{
.appVersion = "1286";
customParameters = (
{
name = glyphOrder;
value = (
.notdef,
space,
uniE050,
uniE062,
uniE05C,
uniE08A,
uniE08B,
uniE1D2,
uniE1D4,
uniE1D3,
uniE1D6,
uniE1D5,
uniE1D8,
uniE1D7,
uniE561,
uniE560,
uniE1DA,
uniE1D9,
uniE1DC,
uniE1DB,
uniE4E3,
uniE4E4,
uniE4E5,
uniE4E6,
uniE4E7,
uniE4E8,
uniE260,
uniE261,
uniE262,
uniE263,
uniE030,
uniE043,
uniE1FC,
uniE4C0,
uniE4C1,
uniE8E4,
uniE8E5,
uniF0A0,
uniF0A6,
uniF0A7,
uniF0A2,
uniF0A8,
uniE1F3,
uniF0A9,
uniF0B0,
uniF0B1,
uniF0A4,
uniF0B3,
uniE1F5,
uniF0B4,
uniF0B2,
uniF0B5,
uniE080,
uniE081,
uniE082,
uniE083,
uniE084,
uniE085,
uniE086,
uniE087,
uniE088,
uniE089,
uniE4CE,
uniE4EE,
uniE562,
uniE563,
uniF0B6,
uniE1F6,
uniF0B7,
uniF0B8,
uniF0B9,
uniF0C0
);
}
);
date = "2018-02-06 14:33:21 +0000";
designer = "Daniel Spreadbury et al., Beatriz Pascual Sánchez. David Rizo Valero";
disablesNiceNames = 1;
familyName = PetalumaModernMuRET;
fontMaster = (
{
alignmentZones = (
"{0, 0}"
);
ascender = 2012;
capHeight = 475;
descender = -2012;
id = "02376AAC-77FF-49DA-9399-294AF7A35492";
weightValue = 400;
widthValue = 5;
xHeight = 275;
}
);
glyphs = (
{
glyphname = uniE050;
lastChange = "2019-03-25 18:18:32 +0000";
layers = (
{
hints = (
{
horizontal = 1;
place = "{-228, 117}";
type = Stem;
},
{
horizontal = 1;
place = "{133, 140}";
type = Stem;
},
{
place = "{0, 81}";
type = Stem;
},
{
place = "{211, 54}";
type = Stem;
},
{
place = "{352, 78}";
type = Stem;
},
{
place = "{341, 63}";
type = Stem;
},
{
place = "{169, 44}";
type = Stem;
}
);
layerId = "02376AAC-77FF-49DA-9399-294AF7A35492";
paths = (
{
closed = 1;
nodes = (
"243 -559 OFFCURVE",
"248 -558 OFFCURVE",
"254 -556 CURVE SMOOTH",
"266 -552 OFFCURVE",
"276 -546 OFFCURVE",
"284 -537 CURVE",
"367 -450 OFFCURVE",
"401 -345 OFFCURVE",
"404 -228 CURVE SMOOTH",
"404 -219 OFFCURVE",
"405 -204 OFFCURVE",
"405 -204 CURVE SMOOTH",
"405 -204 OFFCURVE",
"419 -196 OFFCURVE",
"425 -194 CURVE",
"458 -178 OFFCURVE",
"490 -160 OFFCURVE",
"519 -137 CURVE SMOOTH",
"595 -76 OFFCURVE",
"639 7 OFFCURVE",
"659 99 CURVE",
"663 114 OFFCURVE",
"664 129 OFFCURVE",
"664 143 CURVE SMOOTH",
"664 206 OFFCURVE",
"629 252 OFFCURVE",
"549 267 CURVE SMOOTH",
"529 271 OFFCURVE",
"509 273 OFFCURVE",
"489 273 CURVE SMOOTH",
"439 273 OFFCURVE",
"391 260 OFFCURVE",
"346 233 CURVE",
"340 230 OFFCURVE",
"334 226 OFFCURVE",
"334 226 CURVE",
"308 323 LINE",
"307 328 OFFCURVE",
"307 337 OFFCURVE",
"307 337 CURVE SMOOTH",
"307 337 OFFCURVE",
"409 518 OFFCURVE",
"423 611 CURVE SMOOTH",
"428 638 OFFCURVE",
"430 665 OFFCURVE",
"430 692 CURVE SMOOTH",
"430 713 OFFCURVE",
"429 733 OFFCURVE",
"426 753 CURVE SMOOTH",
"416 825 OFFCURVE",
"389 893 OFFCURVE",
"371 963 CURVE SMOOTH",
"366 984 OFFCURVE",
"359 1009 OFFCURVE",
"335 1009 CURVE SMOOTH",
"317 1009 OFFCURVE",
"304 992 OFFCURVE",
"293 977 CURVE SMOOTH",
"242 906 OFFCURVE",
"217 825 OFFCURVE",
"212 738 CURVE SMOOTH",
"211 724 OFFCURVE",
"211 710 OFFCURVE",
"211 696 CURVE SMOOTH",
"211 615 OFFCURVE",
"224 534 OFFCURVE",
"235 454 CURVE",
"235 448 OFFCURVE",
"237 442 OFFCURVE",
"238 437 CURVE",
"193 373 OFFCURVE",
"143 313 OFFCURVE",
"100 247 CURVE SMOOTH",
"70 200 OFFCURVE",
"37 153 OFFCURVE",
"16 100 CURVE SMOOTH",
"5 74 OFFCURVE",
"0 44 OFFCURVE",
"0 14 CURVE SMOOTH",
"0 -48 OFFCURVE",
"21 -111 OFFCURVE",
"57 -146 CURVE SMOOTH",
"78 -166 OFFCURVE",
"111 -188 OFFCURVE",
"144 -200 CURVE SMOOTH",
"190 -217 OFFCURVE",
"236 -228 OFFCURVE",
"285 -228 CURVE SMOOTH",
"299 -228 OFFCURVE",
"314 -227 OFFCURVE",
"329 -225 CURVE SMOOTH",
"341 -223 LINE",
"341 -223 OFFCURVE",
"342 -232 OFFCURVE",
"341 -237 CURVE SMOOTH",
"330 -297 OFFCURVE",
"315 -356 OFFCURVE",
"279 -406 CURVE SMOOTH",
"260 -432 OFFCURVE",
"242 -461 OFFCURVE",
"204 -464 CURVE SMOOTH",
"193 -465 OFFCURVE",
"188 -472 OFFCURVE",
"188 -481 CURVE SMOOTH",
"188 -485 OFFCURVE",
"189 -488 OFFCURVE",
"190 -492 CURVE",
"196 -507 OFFCURVE",
"203 -523 OFFCURVE",
"210 -538 CURVE SMOOTH",
"216 -552 OFFCURVE",
"226 -559 OFFCURVE",
"238 -559 CURVE SMOOTH"
);
},
{
closed = 1;
nodes = (
"270 546 OFFCURVE",
"265 593 OFFCURVE",
"265 640 CURVE SMOOTH",
"265 727 OFFCURVE",
"283 812 OFFCURVE",
"334 893 CURVE",
"346 856 OFFCURVE",
"352 819 OFFCURVE",
"352 781 CURVE SMOOTH",
"352 762 OFFCURVE",
"350 742 OFFCURVE",
"347 722 CURVE SMOOTH",
"334 644 OFFCURVE",
"316 568 OFFCURVE",
"278 498 CURVE"
);
},
{
closed = 1;
nodes = (
"161 -93 OFFCURVE",
"149 -88 OFFCURVE",
"136 -84 CURVE SMOOTH",
"110 -75 OFFCURVE",
"88 -65 OFFCURVE",
"81 -48 CURVE SMOOTH",
"78 -40 OFFCURVE",
"77 -31 OFFCURVE",
"77 -22 CURVE SMOOTH",
"77 -11 OFFCURVE",
"79 1 OFFCURVE",
"81 13 CURVE SMOOTH",
"82 19 OFFCURVE",
"88 36 OFFCURVE",
"90 39 CURVE",
"129 108 OFFCURVE",
"176 171 OFFCURVE",
"225 234 CURVE SMOOTH",
"267 289 LINE",
"274 267 LINE SMOOTH",
"282 242 OFFCURVE",
"289 202 OFFCURVE",
"289 202 CURVE SMOOTH",
"289 202 OFFCURVE",
"261 166 OFFCURVE",
"243 148 CURVE SMOOTH",
"193 99 OFFCURVE",
"169 38 OFFCURVE",
"169 -29 CURVE SMOOTH",
"169 -46 OFFCURVE",
"171 -63 OFFCURVE",
"174 -81 CURVE",
"175 -85 OFFCURVE",
"175 -88 OFFCURVE",
"175 -94 CURVE"
);
},
{
closed = 1;
nodes = (
"395 -91 LINE",
"391 -63 LINE SMOOTH",
"383 2 OFFCURVE",
"368 54 OFFCURVE",
"354 117 CURVE",
"353 124 OFFCURVE",
"353 129 OFFCURVE",
"356 133 CURVE",
"382 138 OFFCURVE",
"407 140 OFFCURVE",
"433 140 CURVE SMOOTH",
"458 140 OFFCURVE",
"482 138 OFFCURVE",
"507 133 CURVE SMOOTH",
"537 127 OFFCURVE",
"567 122 OFFCURVE",
"590 98 CURVE SMOOTH",
"592 96 OFFCURVE",
"594 94 OFFCURVE",
"596 93 CURVE",
"556 13 OFFCURVE",
"497 -47 OFFCURVE",
"413 -84 CURVE"
);
},
{
closed = 1;
nodes = (
"250 -111 OFFCURVE",
"216 -102 OFFCURVE",
"216 -102 CURVE SMOOTH",
"216 -102 OFFCURVE",
"213 -88 OFFCURVE",
"213 -68 CURVE SMOOTH",
"213 -55 OFFCURVE",
"214 -39 OFFCURVE",
"218 -23 CURVE",
"228 25 OFFCURVE",
"262 59 OFFCURVE",
"298 91 CURVE",
"301 94 OFFCURVE",
"304 96 OFFCURVE",
"306 96 CURVE SMOOTH",
"310 96 OFFCURVE",
"311 92 OFFCURVE",
"312 85 CURVE SMOOTH",
"321 26 OFFCURVE",
"336 -32 OFFCURVE",
"340 -91 CURVE",
"341 -97 OFFCURVE",
"340 -106 OFFCURVE",
"340 -106 CURVE SMOOTH",
"340 -106 OFFCURVE",
"314 -113 OFFCURVE",
"285 -111 CURVE"
);
}
);
width = 664;
}
);
note = uniE050;
unicode = E050;
},
{
glyphname = uniE062;
lastChange = "2019-03-25 18:27:52 +0000";
layers = (
{
hints = (
{
horizontal = 1;
place = "{-496, 120}";
type = Stem;
},
{
place = "{0, 776}";
type = Stem;
},
{
horizontal = 1;
place = "{74, 142}";
type = Stem;
},
{
place = "{519, 89}";
type = Stem;
},
{
place = "{659, 84}";
type = Stem;
}
);
layerId = "02376AAC-77FF-49DA-9399-294AF7A35492";
paths = (
{
closed = 1;
nodes = (
"411 -471 OFFCURVE",
"497 -393 OFFCURVE",
"558 -281 CURVE SMOOTH",
"598 -207 OFFCURVE",
"607 -127 OFFCURVE",
"608 -37 CURVE SMOOTH",
"608 -22 OFFCURVE",
"606 1 OFFCURVE",
"603 23 CURVE SMOOTH",
"587 151 OFFCURVE",
"502 216 OFFCURVE",
"389 216 CURVE SMOOTH",
"381 216 OFFCURVE",
"372 216 OFFCURVE",
"364 215 CURVE",
"259 206 OFFCURVE",
"166 168 OFFCURVE",
"91 93 CURVE SMOOTH",
"58 60 OFFCURVE",
"26 27 OFFCURVE",
"12 -20 CURVE SMOOTH",
"8 -35 OFFCURVE",
"6 -49 OFFCURVE",
"6 -62 CURVE SMOOTH",
"6 -107 OFFCURVE",
"30 -143 OFFCURVE",
"78 -165 CURVE",
"81 -166 OFFCURVE",
"83 -168 OFFCURVE",
"86 -169 CURVE",
"101 -177 OFFCURVE",
"115 -181 OFFCURVE",
"129 -181 CURVE SMOOTH",
"149 -181 OFFCURVE",
"168 -173 OFFCURVE",
"186 -158 CURVE SMOOTH",
"226 -126 OFFCURVE",
"244 -86 OFFCURVE",
"244 -41 CURVE SMOOTH",
"244 -25 OFFCURVE",
"242 -9 OFFCURVE",
"238 7 CURVE",
"237 13 OFFCURVE",
"236 19 OFFCURVE",
"236 25 CURVE SMOOTH",
"236 52 OFFCURVE",
"252 71 OFFCURVE",
"284 73 CURVE",
"292 74 OFFCURVE",
"299 74 OFFCURVE",
"306 74 CURVE SMOOTH",
"354 74 OFFCURVE",
"398 60 OFFCURVE",
"433 25 CURVE SMOOTH",
"478 -19 OFFCURVE",
"503 -76 OFFCURVE",
"517 -139 CURVE",
"519 -146 OFFCURVE",
"519 -154 OFFCURVE",
"519 -160 CURVE SMOOTH",
"519 -183 OFFCURVE",
"511 -203 OFFCURVE",
"498 -224 CURVE SMOOTH",
"478 -257 OFFCURVE",
"454 -285 OFFCURVE",
"422 -309 CURVE SMOOTH",
"360 -356 OFFCURVE",
"288 -376 OFFCURVE",
"213 -376 CURVE SMOOTH",
"148 -376 LINE SMOOTH",
"107 -376 OFFCURVE",
"67 -374 OFFCURVE",
"27 -362 CURVE SMOOTH",
"12 -357 OFFCURVE",
"0 -369 OFFCURVE",
"0 -383 CURVE SMOOTH",
"0 -386 OFFCURVE",
"0 -389 OFFCURVE",
"1 -392 CURVE",
"4 -403 OFFCURVE",
"7 -414 OFFCURVE",
"12 -424 CURVE SMOOTH",
"24 -450 OFFCURVE",
"35 -475 OFFCURVE",
"70 -482 CURVE SMOOTH",
"114 -491 OFFCURVE",
"156 -496 OFFCURVE",
"200 -496 CURVE SMOOTH",
"226 -496 OFFCURVE",
"252 -494 OFFCURVE",
"279 -490 CURVE SMOOTH"
);
},
{
closed = 1;
nodes = (
"707 64 LINE",
"723 63 OFFCURVE",
"742 67 OFFCURVE",
"750 82 CURVE",
"763 104 OFFCURVE",
"776 125 OFFCURVE",
"776 152 CURVE SMOOTH",
"776 159 OFFCURVE",
"775 167 OFFCURVE",
"773 175 CURVE SMOOTH",
"765 206 OFFCURVE",
"742 192 OFFCURVE",
"726 200 CURVE SMOOTH",
"714 206 OFFCURVE",
"711 190 OFFCURVE",
"706 182 CURVE SMOOTH",
"687 153 OFFCURVE",
"692 118 OFFCURVE",
"683 86 CURVE SMOOTH",
"680 75 OFFCURVE",
"685 63 OFFCURVE",
"700 63 CURVE"
);
},
{
closed = 1;
nodes = (
"675 -195 LINE SMOOTH",
"711 -194 OFFCURVE",
"743 -146 OFFCURVE",
"743 -103 CURVE SMOOTH",
"743 -73 OFFCURVE",
"726 -78 OFFCURVE",
"712 -73 CURVE",
"697 -67 OFFCURVE",
"693 -79 OFFCURVE",
"687 -88 CURVE SMOOTH",
"669 -114 OFFCURVE",
"669 -145 OFFCURVE",
"659 -173 CURVE SMOOTH",
"655 -184 OFFCURVE",
"659 -195 OFFCURVE",
"673 -195 CURVE SMOOTH"
);
}
);
width = 776;
}
);
note = uniE062;
unicode = E062;
},
{
glyphname = uniE05C;
lastChange = "2019-03-25 18:50:31 +0000";
layers = (
{
hints = (
{
horizontal = 1;
place = "{-535, 71}";
type = Stem;
},
{
horizontal = 1;
place = "{69, 53}";
type = Stem;
},
{
place = "{12, 90}";
type = Stem;
},
{
place = "{191, 32}";
type = Stem;
},
{
place = "{256, 111}";
type = Stem;
},
{
place = "{589, 119}";
type = Stem;
},
{
place = "{3, 111}";
type = Stem;
},
{
place = "{241, 132}";
type = Stem;
},
{
place = "{579, 152}";
type = Stem;
}
);
layerId = "02376AAC-77FF-49DA-9399-294AF7A35492";
paths = (
{
closed = 1;
nodes = (
"96 -543 OFFCURVE",
"97 -537 OFFCURVE",
"98 -524 CURVE",
"99 -463 OFFCURVE",
"101 -401 OFFCURVE",
"102 -340 CURVE SMOOTH",
"104 -179 OFFCURVE",
"106 -17 OFFCURVE",
"111 144 CURVE SMOOTH",
"114 239 OFFCURVE",
"110 334 OFFCURVE",
"117 429 CURVE SMOOTH",
"120 479 OFFCURVE",
"92 508 OFFCURVE",
"56 533 CURVE SMOOTH",
"46 540 OFFCURVE",
"38 543 OFFCURVE",
"31 543 CURVE SMOOTH",
"18 543 OFFCURVE",
"9 533 OFFCURVE",
"2 514 CURVE SMOOTH",
"1 511 OFFCURVE",
"0 507 OFFCURVE",
"0 503 CURVE",
"1 493 LINE SMOOTH",
"3 467 OFFCURVE",
"3 440 OFFCURVE",
"3 414 CURVE SMOOTH",
"3 265 LINE SMOOTH",
"3 200 OFFCURVE",
"3 136 OFFCURVE",
"6 71 CURVE SMOOTH",
"9 -22 OFFCURVE",
"7 -115 OFFCURVE",
"12 -209 CURVE",
"12 -467 LINE SMOOTH",
"12 -487 OFFCURVE",
"19 -500 OFFCURVE",
"35 -511 CURVE SMOOTH",
"48 -520 OFFCURVE",
"63 -527 OFFCURVE",
"76 -536 CURVE",
"83 -540 OFFCURVE",
"88 -543 OFFCURVE",
"91 -543 CURVE SMOOTH"
);
},
{
closed = 1;
nodes = (
"493 -535 OFFCURVE",
"556 -513 OFFCURVE",
"612 -475 CURVE SMOOTH",
"685 -425 OFFCURVE",
"708 -354 OFFCURVE",
"708 -274 CURVE SMOOTH",
"708 -260 OFFCURVE",
"707 -246 OFFCURVE",
"706 -232 CURVE SMOOTH",
"699 -145 OFFCURVE",
"622 -52 OFFCURVE",
"534 -43 CURVE",
"529 -42 OFFCURVE",
"524 -42 OFFCURVE",
"518 -42 CURVE SMOOTH",
"493 -42 OFFCURVE",
"469 -48 OFFCURVE",
"444 -51 CURVE SMOOTH",
"415 -55 OFFCURVE",
"389 -64 OFFCURVE",
"364 -76 CURVE",
"365 -59 OFFCURVE",
"367 -42 OFFCURVE",
"367 -25 CURVE SMOOTH",
"367 -18 OFFCURVE",
"367 -10 OFFCURVE",
"366 -3 CURVE",
"366 7 OFFCURVE",
"367 17 OFFCURVE",
"367 27 CURVE SMOOTH",
"367 41 OFFCURVE",
"366 55 OFFCURVE",
"365 69 CURVE",
"381 66 OFFCURVE",
"396 65 OFFCURVE",
"411 65 CURVE SMOOTH",
"424 65 OFFCURVE",
"437 66 OFFCURVE",
"450 69 CURVE",
"517 65 OFFCURVE",
"586 81 OFFCURVE",
"633 109 CURVE SMOOTH",
"701 149 OFFCURVE",
"731 197 OFFCURVE",
"731 262 CURVE SMOOTH",
"731 273 OFFCURVE",
"731 284 OFFCURVE",
"729 295 CURVE",
"720 362 OFFCURVE",
"685 418 OFFCURVE",
"635 462 CURVE SMOOTH",
"594 498 OFFCURVE",
"549 523 OFFCURVE",
"498 523 CURVE SMOOTH",
"478 523 OFFCURVE",
"457 519 OFFCURVE",
"435 510 CURVE SMOOTH",
"321 462 LINE SMOOTH",
"260 436 OFFCURVE",
"241 403 OFFCURVE",
"241 347 CURVE SMOOTH",
"241 336 OFFCURVE",
"242 325 OFFCURVE",
"243 312 CURVE",
"245 297 OFFCURVE",
"255 289 OFFCURVE",
"272 291 CURVE",
"295 295 OFFCURVE",
"319 297 OFFCURVE",
"342 304 CURVE SMOOTH",
"364 311 OFFCURVE",
"376 325 OFFCURVE",
"376 346 CURVE SMOOTH",
"376 349 OFFCURVE",
"376 353 OFFCURVE",
"375 357 CURVE SMOOTH",
"373 364 OFFCURVE",
"373 372 OFFCURVE",
"373 379 CURVE SMOOTH",
"373 403 OFFCURVE",
"382 424 OFFCURVE",
"398 444 CURVE SMOOTH",
"404 451 OFFCURVE",
"412 456 OFFCURVE",
"421 456 CURVE SMOOTH",
"423 456 LINE",
"449 453 OFFCURVE",
"475 449 OFFCURVE",
"497 432 CURVE SMOOTH",
"556 386 OFFCURVE",
"579 326 OFFCURVE",
"579 258 CURVE SMOOTH",
"579 247 OFFCURVE",
"578 235 OFFCURVE",
"577 224 CURVE SMOOTH",
"573 185 OFFCURVE",
"552 151 OFFCURVE",
"516 130 CURVE SMOOTH",
"508 125 OFFCURVE",
"500 122 OFFCURVE",
"493 122 CURVE SMOOTH",
"489 122 OFFCURVE",
"486 123 OFFCURVE",
"482 124 CURVE SMOOTH",
"443 134 OFFCURVE",
"404 143 OFFCURVE",
"366 155 CURVE",
"358 158 OFFCURVE",
"351 159 OFFCURVE",
"344 159 CURVE SMOOTH",
"334 159 OFFCURVE",
"325 156 OFFCURVE",
"315 153 CURVE SMOOTH",
"300 148 OFFCURVE",
"288 139 OFFCURVE",
"274 131 CURVE",
"267 129 OFFCURVE",
"260 126 OFFCURVE",
"252 125 CURVE",
"247 124 OFFCURVE",
"242 122 OFFCURVE",
"242 117 CURVE",
"238 116 OFFCURVE",
"236 114 OFFCURVE",
"236 112 CURVE SMOOTH",
"236 109 OFFCURVE",
"238 107 OFFCURVE",
"241 104 CURVE SMOOTH",
"242 103 OFFCURVE",
"245 102 OFFCURVE",
"247 102 CURVE",
"251 90 OFFCURVE",
"252 77 OFFCURVE",
"253 64 CURVE SMOOTH",
"255 34 OFFCURVE",
"256 4 OFFCURVE",
"256 -26 CURVE SMOOTH",
"256 -53 OFFCURVE",
"255 -80 OFFCURVE",
"252 -107 CURVE SMOOTH",
"250 -127 OFFCURVE",
"248 -146 OFFCURVE",
"248 -164 CURVE SMOOTH",
"248 -176 OFFCURVE",
"251 -180 OFFCURVE",
"261 -183 CURVE",
"279 -197 OFFCURVE",
"298 -201 OFFCURVE",
"317 -201 CURVE SMOOTH",
"332 -201 OFFCURVE",
"347 -198 OFFCURVE",
"362 -196 CURVE",
"373 -194 OFFCURVE",
"379 -188 OFFCURVE",
"381 -177 CURVE",
"386 -156 OFFCURVE",
"401 -140 OFFCURVE",
"415 -123 CURVE SMOOTH",
"420 -117 OFFCURVE",
"426 -114 OFFCURVE",
"432 -114 CURVE SMOOTH",
"435 -114 OFFCURVE",
"438 -115 OFFCURVE",
"442 -116 CURVE SMOOTH",
"471 -123 OFFCURVE",
"496 -138 OFFCURVE",
"520 -156 CURVE SMOOTH",
"565 -192 OFFCURVE",
"589 -234 OFFCURVE",
"589 -281 CURVE SMOOTH",
"589 -303 OFFCURVE",
"583 -327 OFFCURVE",
"572 -352 CURVE SMOOTH",
"550 -404 OFFCURVE",
"507 -434 OFFCURVE",
"456 -456 CURVE",
"443 -461 OFFCURVE",
"432 -464 OFFCURVE",
"422 -464 CURVE SMOOTH",
"397 -464 OFFCURVE",
"380 -448 OFFCURVE",
"371 -418 CURVE SMOOTH",
"368 -409 OFFCURVE",
"363 -399 OFFCURVE",
"356 -399 CURVE SMOOTH",
"354 -399 OFFCURVE",
"353 -399 OFFCURVE",
"352 -400 CURVE",
"345 -403 OFFCURVE",
"339 -404 OFFCURVE",
"332 -404 CURVE SMOOTH",
"315 -404 OFFCURVE",
"297 -396 OFFCURVE",
"281 -396 CURVE SMOOTH",
"277 -396 OFFCURVE",
"274 -396 OFFCURVE",
"270 -397 CURVE",
"252 -397 LINE SMOOTH",
"242 -397 OFFCURVE",
"231 -395 OFFCURVE",
"223 -399 CURVE",
"223 438 LINE",
"224 445 OFFCURVE",
"224 453 OFFCURVE",
"224 460 CURVE SMOOTH",
"224 473 OFFCURVE",
"223 485 OFFCURVE",
"219 497 CURVE",
"218 502 OFFCURVE",
"220 511 OFFCURVE",
"211 511 CURVE SMOOTH",
"210 511 LINE",
"204 510 OFFCURVE",
"198 506 OFFCURVE",
"195 497 CURVE",
"192 486 OFFCURVE",
"191 474 OFFCURVE",
"191 462 CURVE SMOOTH",
"191 265 LINE SMOOTH",
"191 200 OFFCURVE",
"191 134 OFFCURVE",
"192 69 CURVE SMOOTH",
"193 7 OFFCURVE",
"192 -56 OFFCURVE",
"194 -118 CURVE SMOOTH",
"196 -171 OFFCURVE",
"197 -224 OFFCURVE",
"197 -277 CURVE SMOOTH",
"197 -330 OFFCURVE",
"196 -384 OFFCURVE",
"196 -437 CURVE SMOOTH",
"196 -458 OFFCURVE",
"201 -479 OFFCURVE",
"201 -501 CURVE SMOOTH",
"201 -505 OFFCURVE",
"202 -511 OFFCURVE",
"208 -511 CURVE SMOOTH",
"213 -511 OFFCURVE",
"215 -507 OFFCURVE",
"217 -503 CURVE SMOOTH",
"224 -490 OFFCURVE",
"223 -477 OFFCURVE",
"223 -463 CURVE SMOOTH",
"223 -439 LINE",
"228 -447 LINE",
"236 -456 LINE SMOOTH",
"268 -491 OFFCURVE",
"309 -514 OFFCURVE",
"354 -526 CURVE SMOOTH",
"379 -532 OFFCURVE",
"403 -535 OFFCURVE",
"427 -535 CURVE SMOOTH"
);
}
);
width = 731;
}
);
note = uniE05C;
unicode = E05C;
},
{
glyphname = uniE08A;
lastChange = "2019-03-25 19:00:01 +0000";
layers = (
{
hints = (
{
horizontal = 1;
place = "{-298, 130}";
type = Stem;
},
{
horizontal = 1;
place = "{-51, 178}";
type = Stem;
},
{
horizontal = 1;
place = "{193, 101}";
type = Stem;
},
{
place = "{20, 72}";
type = Stem;
},
{
place = "{379, 72}";
type = Stem;
}
);
layerId = "02376AAC-77FF-49DA-9399-294AF7A35492";
paths = (
{
closed = 1;
nodes = (
"435 -240 OFFCURVE",
"514 -144 OFFCURVE",
"576 -31 CURVE",
"585 -16 OFFCURVE",
"585 1 OFFCURVE",
"585 18 CURVE SMOOTH",
"585 27 OFFCURVE",
"584 40 OFFCURVE",
"570 40 CURVE SMOOTH",
"563 40 OFFCURVE",
"557 33 OFFCURVE",
"552 28 CURVE",
"545 20 OFFCURVE",
"537 11 OFFCURVE",
"531 2 CURVE SMOOTH",
"479 -72 OFFCURVE",
"414 -127 OFFCURVE",
"326 -155 CURVE SMOOTH",
"299 -163 OFFCURVE",
"272 -168 OFFCURVE",
"246 -168 CURVE SMOOTH",
"203 -168 OFFCURVE",
"163 -155 OFFCURVE",
"125 -123 CURVE",
"107 -109 OFFCURVE",
"97 -91 OFFCURVE",
"94 -69 CURVE",
"93 -59 OFFCURVE",
"92 -50 OFFCURVE",
"92 -41 CURVE SMOOTH",
"92 -26 OFFCURVE",
"94 -11 OFFCURVE",
"98 5 CURVE",
"131 111 OFFCURVE",
"206 169 OFFCURVE",
"312 190 CURVE",
"319 192 OFFCURVE",
"325 192 OFFCURVE",
"331 193 CURVE",
"359 193 OFFCURVE",
"374 176 OFFCURVE",
"379 141 CURVE SMOOTH",
"382 123 OFFCURVE",
"370 115 OFFCURVE",
"359 109 CURVE",
"352 106 OFFCURVE",
"345 99 OFFCURVE",
"337 99 CURVE SMOOTH",
"335 99 LINE SMOOTH",
"332 99 OFFCURVE",
"328 100 OFFCURVE",
"324 103 CURVE SMOOTH",
"304 118 OFFCURVE",
"282 126 OFFCURVE",
"260 127 CURVE",
"231 127 OFFCURVE",
"203 112 OFFCURVE",
"183 82 CURVE SMOOTH",
"171 64 OFFCURVE",
"165 48 OFFCURVE",
"165 33 CURVE SMOOTH",
"165 20 OFFCURVE",
"170 7 OFFCURVE",
"181 -6 CURVE SMOOTH",
"199 -27 OFFCURVE",
"234 -51 OFFCURVE",
"266 -51 CURVE SMOOTH",
"272 -51 OFFCURVE",
"279 -50 OFFCURVE",
"286 -47 CURVE",
"365 -19 OFFCURVE",
"407 41 OFFCURVE",
"438 114 CURVE SMOOTH",
"447 134 OFFCURVE",
"451 154 OFFCURVE",
"451 175 CURVE SMOOTH",
"451 193 OFFCURVE",
"448 211 OFFCURVE",
"442 228 CURVE",
"427 278 OFFCURVE",
"402 298 OFFCURVE",
"350 294 CURVE SMOOTH",
"283 288 OFFCURVE",
"220 269 OFFCURVE",
"168 221 CURVE SMOOTH",
"72 132 OFFCURVE",
"20 23 OFFCURVE",
"20 -110 CURVE SMOOTH",
"20 -114 OFFCURVE",
"20 -118 OFFCURVE",
"21 -122 CURVE",
"29 -171 OFFCURVE",
"36 -219 OFFCURVE",
"80 -253 CURVE SMOOTH",
"123 -285 OFFCURVE",
"167 -298 OFFCURVE",
"213 -298 CURVE SMOOTH",
"244 -298 OFFCURVE",
"276 -292 OFFCURVE",
"308 -281 CURVE SMOOTH"
);
}
);
width = 605;
}
);
note = uniE08A;
unicode = E08A;
},
{
glyphname = uniE08B;
lastChange = "2019-03-25 19:03:45 +0000";
layers = (
{
hints = (
{
horizontal = 1;
place = "{-316, 116}";
type = Stem;
},
{
horizontal = 1;
place = "{212, 114}";
type = Stem;
},
{
place = "{368, 50}";
type = Stem;
},
{
place = "{374, 47.5}";
type = Stem;
},
{
place = "{378.5, 45.5}";
type = Stem;
},
{
place = "{20, 78}";
type = Stem;
},
{
place = "{392, 42}";
type = Stem;
},
{
place = "{385, 47}";
type = Stem;
}
);
layerId = "02376AAC-77FF-49DA-9399-294AF7A35492";
paths = (
{
closed = 1;
nodes = (
"406 -688 OFFCURVE",
"409 -669 OFFCURVE",
"413 -656 CURVE",
"416 -640 LINE",
"417 -572 OFFCURVE",
"419 -504 OFFCURVE",
"420 -436 CURVE SMOOTH",
"423 -277 LINE",
"490 -252 OFFCURVE",
"554 -222 OFFCURVE",
"610 -174 CURVE SMOOTH",
"647 -142 OFFCURVE",
"678 -106 OFFCURVE",
"692 -59 CURVE",
"693 -54 OFFCURVE",
"695 -49 OFFCURVE",
"695 -44 CURVE SMOOTH",
"695 -39 OFFCURVE",
"693 -34 OFFCURVE",
"687 -32 CURVE SMOOTH",
"684 -31 OFFCURVE",
"682 -30 OFFCURVE",
"679 -30 CURVE SMOOTH",
"672 -30 OFFCURVE",
"666 -34 OFFCURVE",
"660 -41 CURVE",
"621 -92 OFFCURVE",
"566 -123 OFFCURVE",
"509 -150 CURVE SMOOTH",
"482 -163 OFFCURVE",
"453 -173 OFFCURVE",
"424 -180 CURVE",
"425 -124 OFFCURVE",
"427 -69 OFFCURVE",
"428 -14 CURVE",
"446 -5 OFFCURVE",
"462 6 OFFCURVE",
"472 20 CURVE",
"476 25 OFFCURVE",
"479 28 OFFCURVE",
"485 30 CURVE",
"550 57 OFFCURVE",
"583 111 OFFCURVE",
"604 174 CURVE SMOOTH",
"607 184 OFFCURVE",
"609 194 OFFCURVE",
"609 204 CURVE SMOOTH",
"609 235 OFFCURVE",
"594 265 OFFCURVE",
"568 285 CURVE SMOOTH",
"541 307 OFFCURVE",
"507 311 OFFCURVE",
"474 318 CURVE SMOOTH",
"461 321 OFFCURVE",
"447 323 OFFCURVE",
"434 325 CURVE",
"434 357 LINE SMOOTH",
"435 460 OFFCURVE",
"442 563 OFFCURVE",
"443 665 CURVE SMOOTH",
"443 680 OFFCURVE",
"441 687 OFFCURVE",
"435 687 CURVE SMOOTH",
"431 687 OFFCURVE",
"426 685 OFFCURVE",
"419 681 CURVE",
"371 656 OFFCURVE",
"334 617 OFFCURVE",
"293 583 CURVE",
"286 578 OFFCURVE",
"287 568 OFFCURVE",
"286 559 CURVE",
"285 537 OFFCURVE",
"292 516 OFFCURVE",
"296 495 CURVE",
"298 479 OFFCURVE",
"302 471 OFFCURVE",
"309 471 CURVE SMOOTH",
"314 471 OFFCURVE",
"320 474 OFFCURVE",
"329 480 CURVE SMOOTH",
"349 493 OFFCURVE",
"368 508 OFFCURVE",
"391 524 CURVE",
"392 514 OFFCURVE",
"392 509 OFFCURVE",
"392 503 CURVE SMOOTH",
"391 444 OFFCURVE",
"389 385 OFFCURVE",
"388 326 CURVE",
"365 326 OFFCURVE",
"343 322 OFFCURVE",
"321 315 CURVE SMOOTH",
"210 277 OFFCURVE",
"138 195 OFFCURVE",
"78 99 CURVE SMOOTH",
"46 49 OFFCURVE",
"31 -7 OFFCURVE",
"23 -65 CURVE SMOOTH",
"21 -78 OFFCURVE",
"20 -91 OFFCURVE",
"20 -103 CURVE SMOOTH",
"20 -155 OFFCURVE",
"36 -202 OFFCURVE",
"73 -244 CURVE SMOOTH",
"119 -296 OFFCURVE",
"179 -313 OFFCURVE",
"249 -316 CURVE",
"284 -313 OFFCURVE",
"322 -310 OFFCURVE",
"359 -299 CURVE",
"374 -293 LINE",
"374 -331 LINE SMOOTH",
"372 -391 OFFCURVE",
"374 -452 OFFCURVE",
"370 -513 CURVE SMOOTH",
"369 -533 OFFCURVE",
"368 -552 OFFCURVE",
"368 -572 CURVE SMOOTH",
"368 -601 OFFCURVE",
"370 -630 OFFCURVE",
"379 -658 CURVE",
"383 -668 OFFCURVE",
"377 -687 OFFCURVE",
"392 -687 CURVE"
);
},
{
closed = 1;
nodes = (
"228 -200 OFFCURVE",
"176 -183 OFFCURVE",
"134 -137 CURVE SMOOTH",
"111 -112 OFFCURVE",
"98 -75 OFFCURVE",
"98 -42 CURVE SMOOTH",
"98 -24 OFFCURVE",
"102 -8 OFFCURVE",
"109 4 CURVE SMOOTH",
"131 40 OFFCURVE",
"151 78 OFFCURVE",
"180 110 CURVE SMOOTH",
"216 149 OFFCURVE",
"253 185 OFFCURVE",
"304 202 CURVE SMOOTH",
"325 209 OFFCURVE",
"346 212 OFFCURVE",
"367 212 CURVE SMOOTH",
"373 212 OFFCURVE",
"379 211 OFFCURVE",
"385 211 CURVE",
"385 190 OFFCURVE",
"385 168 OFFCURVE",
"384 147 CURVE",
"346 138 OFFCURVE",
"310 114 OFFCURVE",
"296 80 CURVE",
"291 69 OFFCURVE",
"289 58 OFFCURVE",
"289 47 CURVE SMOOTH",
"289 34 OFFCURVE",
"292 21 OFFCURVE",
"295 8 CURVE SMOOTH",
"300 -12 OFFCURVE",
"311 -22 OFFCURVE",
"329 -27 CURVE",
"338 -29 OFFCURVE",
"346 -30 OFFCURVE",
"356 -30 CURVE SMOOTH",
"364 -30 OFFCURVE",
"372 -29 OFFCURVE",
"380 -28 CURVE",
"377 -189 LINE",
"358 -193 OFFCURVE",
"339 -195 OFFCURVE",
"320 -198 CURVE",
"308 -199 OFFCURVE",
"296 -200 OFFCURVE",
"285 -200 CURVE SMOOTH"
);
},
{
closed = 1;
nodes = (
"476 137 OFFCURVE",
"470 138 OFFCURVE",
"464 141 CURVE SMOOTH",
"454 146 OFFCURVE",
"443 149 OFFCURVE",
"431 150 CURVE",
"432 168 OFFCURVE",
"432 186 OFFCURVE",
"432 204 CURVE",
"452 199 OFFCURVE",
"471 193 OFFCURVE",
"490 186 CURVE",
"501 181 OFFCURVE",
"510 173 OFFCURVE",
"518 163 CURVE",
"520 160 OFFCURVE",
"522 157 OFFCURVE",
"522 154 CURVE SMOOTH",
"522 152 OFFCURVE",
"520 149 OFFCURVE",
"516 148 CURVE",
"505 143 OFFCURVE",
"494 137 OFFCURVE",
"482 137 CURVE SMOOTH"
);
}
);
width = 715;
}
);
note = uniE08B;
unicode = E08B;
},
{
glyphname = uniE1D2;
lastChange = "2019-03-26 11:14:12 +0000";
layers = (
{
hints = (
{
horizontal = 1;
place = "{-186, 112}";
type = Stem;
},
{
horizontal = 1;
place = "{51, 114}";
type = Stem;
},
{
place = "{302, 78}";
type = Stem;
}
);
layerId = "02376AAC-77FF-49DA-9399-294AF7A35492";
paths = (
{
closed = 1;
nodes = (
"255 -180 OFFCURVE",
"377 -105 OFFCURVE",
"380 28 CURVE SMOOTH",
"381 58 OFFCURVE",
"378 87 OFFCURVE",
"357 110 CURVE SMOOTH",
"324 147 OFFCURVE",
"276 165 OFFCURVE",
"227 165 CURVE SMOOTH",
"173 165 OFFCURVE",
"118 142 OFFCURVE",
"85 98 CURVE SMOOTH",
"48 49 OFFCURVE",
"23 -6 OFFCURVE",
"4 -63 CURVE SMOOTH",
"1 -72 OFFCURVE",
"0 -80 OFFCURVE",
"0 -88 CURVE SMOOTH",
"0 -115 OFFCURVE",
"15 -137 OFFCURVE",
"43 -150 CURVE SMOOTH",
"71 -162 LINE",
"99 -172 OFFCURVE",
"125 -188 OFFCURVE",
"155 -186 CURVE SMOOTH"
);
},
{
closed = 1;
nodes = (
"140 -74 OFFCURVE",
"114 -62 OFFCURVE",
"87 -52 CURVE",
"80 -49 OFFCURVE",
"77 -45 OFFCURVE",
"77 -40 CURVE SMOOTH",
"77 -35 OFFCURVE",
"81 -29 OFFCURVE",
"84 -24 CURVE",
"109 14 OFFCURVE",
"144 37 OFFCURVE",
"189 48 CURVE",
"196 50 OFFCURVE",
"202 51 OFFCURVE",
"209 51 CURVE SMOOTH",
"238 51 OFFCURVE",
"261 34 OFFCURVE",
"287 22 CURVE SMOOTH",
"297 17 OFFCURVE",
"302 10 OFFCURVE",
"302 2 CURVE SMOOTH",
"302 -4 OFFCURVE",
"300 -10 OFFCURVE",
"296 -16 CURVE SMOOTH",
"288 -28 OFFCURVE",
"279 -37 OFFCURVE",
"267 -44 CURVE SMOOTH",
"237 -61 OFFCURVE",
"205 -71 OFFCURVE",
"172 -74 CURVE"
);
}
);
width = 380;
}
);
note = uniE1D2;
unicode = E1D2;
},
{
glyphname = uniE1D4;
lastChange = "2019-03-26 11:16:38 +0000";
layers = (
{
hints = (
{
horizontal = 1;
place = "{-141, 98}";
type = Stem;
},
{
horizontal = 1;
place = "{88, 103}";
type = Stem;
},
{
place = "{10, 38}";
type = Stem;
},
{
place = "{268.02, 52.98}";
type = Stem;
},
{
place = "{0, 46}";
type = Stem;
}
);
layerId = "02376AAC-77FF-49DA-9399-294AF7A35492";
paths = (
{
closed = 1;
nodes = (
"23 -815 OFFCURVE",
"25 -815 OFFCURVE",
"28 -813 CURVE",
"43 -805 OFFCURVE",
"52 -794 OFFCURVE",
"52 -775 CURVE",
"50 -711 OFFCURVE",
"51 -646 OFFCURVE",
"50 -581 CURVE SMOOTH",
"48 -516 OFFCURVE",
"48 -451 OFFCURVE",
"48 -387 CURVE SMOOTH",
"48 -133 LINE",
"72 -137 OFFCURVE",
"94 -141 OFFCURVE",
"116 -141 CURVE SMOOTH",
"121 -141 OFFCURVE",
"127 -141 OFFCURVE",
"133 -140 CURVE",
"238 -129 OFFCURVE",
"321 -41 OFFCURVE",
"321 65 CURVE SMOOTH",
"321 124 OFFCURVE",
"280 177 OFFCURVE",
"223 191 CURVE",
"216 193 OFFCURVE",
"209 194 OFFCURVE",
"202 194 CURVE SMOOTH",
"196 194 OFFCURVE",
"191 193 OFFCURVE",
"185 191 CURVE SMOOTH",
"145 178 OFFCURVE",
"108 160 OFFCURVE",
"75 133 CURVE SMOOTH",
"26 93 OFFCURVE",
"0 42 OFFCURVE",
"0 -21 CURVE SMOOTH",
"0 -66 OFFCURVE",
"1 -110 OFFCURVE",
"2 -154 CURVE SMOOTH",
"5 -359 OFFCURVE",
"7 -564 OFFCURVE",
"10 -768 CURVE SMOOTH",
"10 -780 OFFCURVE",
"10 -792 OFFCURVE",
"11 -804 CURVE",
"12 -812 OFFCURVE",
"15 -815 OFFCURVE",
"20 -815 CURVE SMOOTH"
);
},
{
closed = 1;
nodes = (
"101 -43 OFFCURVE",
"80 -37 OFFCURVE",
"61 -31 CURVE SMOOTH",
"51 -28 OFFCURVE",
"46 -20 OFFCURVE",
"46 -10 CURVE SMOOTH",
"46 -5 OFFCURVE",
"48 1 OFFCURVE",
"50 6 CURVE",
"56 18 OFFCURVE",
"65 29 OFFCURVE",
"76 36 CURVE SMOOTH",
"102 53 OFFCURVE",
"129 70 OFFCURVE",
"158 82 CURVE SMOOTH",
"169 87 OFFCURVE",
"182 89 OFFCURVE",
"196 88 CURVE",
"230 90 OFFCURVE",
"247 65 OFFCURVE",
"266 42 CURVE SMOOTH",
"271 36 OFFCURVE",
"266 30 OFFCURVE",
"261 26 CURVE",
"226 -5 OFFCURVE",
"187 -29 OFFCURVE",
"143 -40 CURVE SMOOTH",
"136 -42 OFFCURVE",
"129 -43 OFFCURVE",
"121 -43 CURVE SMOOTH"
);
}
);
width = 321;
}
);
note = uniE1D4;
unicode = E1D4;
},
{
glyphname = uniE1D3;
lastChange = "2019-03-26 11:16:52 +0000";
layers = (
{
hints = (
{
horizontal = 1;
place = "{-140, 99}";
type = Stem;
},
{
horizontal = 1;
place = "{90, 105}";
type = Stem;
},
{
place = "{1, 47}";
type = Stem;
},
{
place = "{285, 37}";
type = Stem;
}
);
layerId = "02376AAC-77FF-49DA-9399-294AF7A35492";
paths = (
{
closed = 1;
nodes = (
"109 -140 OFFCURVE",
"115 -140 OFFCURVE",
"121 -139 CURVE",
"242 -128 OFFCURVE",
"321 -42 OFFCURVE",
"322 80 CURVE SMOOTH",
"322 414 LINE SMOOTH",
"322 495 OFFCURVE",
"322 575 OFFCURVE",
"325 656 CURVE SMOOTH",
"326 683 OFFCURVE",
"326 709 OFFCURVE",
"326 736 CURVE SMOOTH",
"326 816 LINE SMOOTH",
"326 837 OFFCURVE",
"313 850 OFFCURVE",
"296 851 CURVE",
"286 851 OFFCURVE",
"283 845 OFFCURVE",
"283 838 CURVE SMOOTH",
"283 832 OFFCURVE",
"285 826 OFFCURVE",
"285 821 CURVE SMOOTH",
"282 638 OFFCURVE",
"280 456 OFFCURVE",
"278 274 CURVE SMOOTH",
"278 172 LINE",
"276 170 OFFCURVE",
"274 169 OFFCURVE",
"272 168 CURVE",
"251 187 OFFCURVE",
"228 195 OFFCURVE",
"206 195 CURVE SMOOTH",
"187 195 OFFCURVE",
"168 189 OFFCURVE",
"149 180 CURVE",
"129 169 OFFCURVE",
"109 160 OFFCURVE",
"91 147 CURVE SMOOTH",
"32 105 OFFCURVE",
"1 49 OFFCURVE",
"1 -26 CURVE SMOOTH",
"1 -99 OFFCURVE",
"38 -140 OFFCURVE",
"104 -140 CURVE SMOOTH"
);
},
{
closed = 1;
nodes = (
"103 -41 OFFCURVE",
"82 -34 OFFCURVE",
"63 -29 CURVE SMOOTH",
"53 -26 OFFCURVE",
"48 -19 OFFCURVE",
"48 -8 CURVE SMOOTH",
"48 -3 LINE SMOOTH",
"48 5 OFFCURVE",
"51 11 OFFCURVE",
"56 16 CURVE SMOOTH",
"95 57 OFFCURVE",
"141 82 OFFCURVE",
"180 90 CURVE",
"230 92 OFFCURVE",
"247 68 OFFCURVE",
"266 46 CURVE SMOOTH",
"272 39 OFFCURVE",
"267 32 OFFCURVE",
"261 27 CURVE SMOOTH",
"227 -3 OFFCURVE",
"188 -27 OFFCURVE",
"143 -38 CURVE",
"136 -40 OFFCURVE",
"130 -41 OFFCURVE",
"123 -41 CURVE SMOOTH"
);
}
);
width = 326;
}
);
note = uniE1D3;
unicode = E1D3;
},
{
glyphname = uniE1D6;
lastChange = "2019-03-26 11:18:49 +0000";
layers = (
{
hints = (
{
horizontal = 1;
place = "{-824, 999}";
type = Stem;
},
{
place = "{5, 45}";
type = Stem;
}
);
layerId = "02376AAC-77FF-49DA-9399-294AF7A35492";
paths = (
{
closed = 1;
nodes = (
"45 -814 OFFCURVE",
"54 -804 OFFCURVE",
"54 -785 CURVE",
"52 -720 OFFCURVE",
"53 -654 OFFCURVE",
"52 -589 CURVE SMOOTH",
"51 -531 OFFCURVE",
"50 -474 OFFCURVE",
"50 -416 CURVE SMOOTH",
"50 -130 LINE",
"67 -137 OFFCURVE",
"82 -140 OFFCURVE",
"98 -140 CURVE SMOOTH",
"127 -140 OFFCURVE",
"154 -129 OFFCURVE",
"180 -114 CURVE SMOOTH",
"231 -85 OFFCURVE",
"272 -47 OFFCURVE",
"300 4 CURVE SMOOTH",
"310 22 OFFCURVE",
"318 42 OFFCURVE",
"321 62 CURVE",
"322 71 OFFCURVE",
"323 81 OFFCURVE",
"323 90 CURVE SMOOTH",
"323 114 OFFCURVE",
"316 136 OFFCURVE",
"293 153 CURVE SMOOTH",
"274 167 OFFCURVE",
"251 175 OFFCURVE",
"227 175 CURVE SMOOTH",
"187 175 OFFCURVE",
"151 161 OFFCURVE",
"119 138 CURVE SMOOTH",
"48 87 OFFCURVE",
"0 27 OFFCURVE",
"0 -62 CURVE SMOOTH",
"0 -69 OFFCURVE",
"0 -77 OFFCURVE",
"1 -85 CURVE SMOOTH",
"6 -125 OFFCURVE",
"5 -166 OFFCURVE",
"5 -206 CURVE SMOOTH",
"5 -255 LINE SMOOTH",
"5 -435 OFFCURVE",
"12 -614 OFFCURVE",
"12 -794 CURVE SMOOTH",
"12 -800 OFFCURVE",
"12 -806 OFFCURVE",
"13 -811 CURVE",
"14 -820 OFFCURVE",
"17 -824 OFFCURVE",
"21 -824 CURVE SMOOTH",
"24 -824 OFFCURVE",
"26 -823 OFFCURVE",
"30 -821 CURVE SMOOTH"
);
}
);
width = 323;
}
);
note = uniE1D6;
unicode = E1D6;
},
{
glyphname = uniE1D5;
lastChange = "2019-03-26 11:19:12 +0000";
layers = (
{
hints = (
{
horizontal = 1;
place = "{-140, 987}";
type = Stem;
},
{
place = "{275, 52}";
type = Stem;
}
);
layerId = "02376AAC-77FF-49DA-9399-294AF7A35492";
paths = (
{
closed = 1;
nodes = (
"208 -116 OFFCURVE",
"270 -55 OFFCURVE",
"313 28 CURVE",
"321 45 OFFCURVE",
"326 63 OFFCURVE",
"326 83 CURVE",
"325 108 OFFCURVE",
"324 132 OFFCURVE",
"324 157 CURVE SMOOTH",
"324 199 OFFCURVE",
"326 242 OFFCURVE",
"327 284 CURVE SMOOTH",
"327 466 LINE SMOOTH",
"328 578 OFFCURVE",
"328 690 OFFCURVE",
"329 802 CURVE SMOOTH",
"329 820 OFFCURVE",
"323 833 OFFCURVE",
"308 842 CURVE SMOOTH",
"303 845 OFFCURVE",
"299 847 OFFCURVE",
"295 847 CURVE SMOOTH",
"289 847 OFFCURVE",
"285 841 OFFCURVE",
"284 830 CURVE",
"284 818 LINE SMOOTH",
"282 746 OFFCURVE",
"283 673 OFFCURVE",
"281 600 CURVE SMOOTH",
"277 464 OFFCURVE",
"275 327 OFFCURVE",
"275 192 CURVE SMOOTH",
"275 186 OFFCURVE",
"275 180 OFFCURVE",
"273 174 CURVE",
"269 172 OFFCURVE",
"266 173 OFFCURVE",
"263 174 CURVE SMOOTH",
"250 178 OFFCURVE",
"236 180 OFFCURVE",
"223 180 CURVE SMOOTH",
"204 180 OFFCURVE",
"185 176 OFFCURVE",
"167 168 CURVE SMOOTH",
"97 139 OFFCURVE",
"45 90 OFFCURVE",
"12 21 CURVE SMOOTH",
"4 4 OFFCURVE",
"0 -14 OFFCURVE",
"0 -33 CURVE SMOOTH",
"0 -39 OFFCURVE",
"0 -45 OFFCURVE",
"1 -51 CURVE",
"5 -103 OFFCURVE",
"44 -140 OFFCURVE",
"92 -140 CURVE SMOOTH",
"99 -140 OFFCURVE",
"107 -139 OFFCURVE",
"115 -137 CURVE SMOOTH"
);
}
);
width = 329;
}
);
note = uniE1D5;
unicode = E1D5;
},
{
glyphname = uniE1D8;
lastChange = "2019-03-26 11:46:48 +0000";
layers = (
{
hints = (
{
horizontal = 1;
place = "{-831.65, 1006.65}";
type = Stem;
},
{
place = "{11, 42}";
type = Stem;
},
{
place = "{207, 58}";
type = Stem;
}
);
layerId = "02376AAC-77FF-49DA-9399-294AF7A35492";
paths = (
{
closed = 1;
nodes = (
"27 -836 OFFCURVE",
"36 -825 OFFCURVE",
"44 -819 CURVE",
"85 -794 OFFCURVE",
"113 -755 OFFCURVE",
"143 -719 CURVE SMOOTH",
"198 -650 OFFCURVE",
"241 -575 OFFCURVE",
"258 -488 CURVE SMOOTH",
"263 -460 OFFCURVE",
"265 -431 OFFCURVE",
"265 -403 CURVE SMOOTH",
"265 -371 OFFCURVE",
"262 -338 OFFCURVE",
"257 -306 CURVE SMOOTH",
"250 -263 OFFCURVE",
"239 -219 OFFCURVE",
"198 -191 CURVE",
"194 -188 OFFCURVE",
"190 -187 OFFCURVE",
"187 -187 CURVE SMOOTH",
"183 -187 OFFCURVE",
"180 -189 OFFCURVE",
"180 -193 CURVE",
"181 -211 OFFCURVE",
"177 -228 OFFCURVE",
"177 -246 CURVE SMOOTH",
"177 -261 OFFCURVE",
"180 -275 OFFCURVE",
"189 -289 CURVE SMOOTH",
"202 -309 OFFCURVE",
"207 -330 OFFCURVE",
"207 -352 CURVE SMOOTH",
"207 -359 OFFCURVE",
"207 -365 OFFCURVE",
"206 -371 CURVE",
"194 -486 OFFCURVE",
"127 -571 OFFCURVE",
"53 -659 CURVE",
"48 -480 OFFCURVE",
"51 -306 OFFCURVE",
"49 -131 CURVE",
"66 -134 OFFCURVE",
"82 -140 OFFCURVE",
"97 -140 CURVE SMOOTH",
"101 -140 OFFCURVE",
"104 -140 OFFCURVE",
"107 -139 CURVE",
"199 -127 OFFCURVE",
"305 -27 OFFCURVE",
"322 64 CURVE",
"323 71 OFFCURVE",
"324 77 OFFCURVE",
"324 83 CURVE SMOOTH",
"324 137 OFFCURVE",
"285 175 OFFCURVE",
"225 175 CURVE SMOOTH",
"185 175 OFFCURVE",
"150 161 OFFCURVE",
"117 137 CURVE SMOOTH",
"47 89 OFFCURVE",
"0 28 OFFCURVE",
"0 -59 CURVE SMOOTH",
"0 -67 OFFCURVE",
"0 -75 OFFCURVE",
"1 -84 CURVE SMOOTH",
"3 -100 OFFCURVE",
"3 -116 OFFCURVE",
"3 -133 CURVE SMOOTH",
"3 -165 LINE SMOOTH",
"6 -381 OFFCURVE",
"11 -596 OFFCURVE",
"11 -810 CURVE SMOOTH",
"11 -818 OFFCURVE",
"12 -827 OFFCURVE",
"17 -830 CURVE SMOOTH"
);
}
);
width = 324;
}
);
note = uniE1D8;
unicode = E1D8;
},
{
glyphname = uniE1D7;
lastChange = "2019-03-26 11:46:59 +0000";
layers = (
{
hints = (
{
horizontal = 1;
place = "{-140, 980}";
type = Stem;
},
{
place = "{276, 46}";
type = Stem;
},
{
place = "{512, 32}";
type = Stem;
},
{
place = "{284, 40}";
type = Stem;
}
);
layerId = "02376AAC-77FF-49DA-9399-294AF7A35492";
paths = (
{
closed = 1;
nodes = (
"205 -120 OFFCURVE",
"266 -59 OFFCURVE",
"308 24 CURVE SMOOTH",
"316 40 OFFCURVE",
"322 56 OFFCURVE",
"322 75 CURVE SMOOTH",
"322 579 LINE SMOOTH",
"322 601 OFFCURVE",
"323 624 OFFCURVE",
"326 647 CURVE",
"331 643 OFFCURVE",
"335 642 OFFCURVE",
"338 639 CURVE SMOOTH",
"415 559 OFFCURVE",
"468 465 OFFCURVE",
"493 356 CURVE SMOOTH",
"501 321 OFFCURVE",
"512 286 OFFCURVE",
"512 251 CURVE SMOOTH",
"512 230 OFFCURVE",
"508 209 OFFCURVE",
"498 188 CURVE SMOOTH",
"486 163 OFFCURVE",
"481 138 OFFCURVE",
"481 111 CURVE SMOOTH",
"481 92 OFFCURVE",
"484 73 OFFCURVE",
"489 52 CURVE",
"509 75 OFFCURVE",
"519 99 OFFCURVE",
"527 124 CURVE SMOOTH",
"540 167 OFFCURVE",
"544 211 OFFCURVE",
"544 256 CURVE SMOOTH",
"544 267 OFFCURVE",
"543 278 OFFCURVE",
"543 289 CURVE",
"542 351 OFFCURVE",
"531 411 OFFCURVE",
"517 471 CURVE SMOOTH",
"492 577 OFFCURVE",
"440 667 OFFCURVE",
"364 745 CURVE SMOOTH",
"345 764 OFFCURVE",
"324 783 OFFCURVE",
"324 816 CURVE SMOOTH",
"324 829 OFFCURVE",
"312 840 OFFCURVE",
"298 840 CURVE SMOOTH",
"285 840 OFFCURVE",
"283 834 OFFCURVE",
"283 827 CURVE SMOOTH",
"283 822 OFFCURVE",
"284 816 OFFCURVE",
"284 812 CURVE SMOOTH",
"282 709 OFFCURVE",
"281 606 OFFCURVE",
"280 503 CURVE SMOOTH",
"278 397 OFFCURVE",
"277 290 OFFCURVE",
"276 184 CURVE SMOOTH",
"276 172 OFFCURVE",
"274 166 OFFCURVE",
"267 166 CURVE SMOOTH",
"264 166 OFFCURVE",
"261 167 OFFCURVE",
"256 169 CURVE SMOOTH",
"246 173 OFFCURVE",
"235 175 OFFCURVE",
"224 175 CURVE SMOOTH",
"214 175 OFFCURVE",
"205 173 OFFCURVE",
"195 171 CURVE",
"106 148 OFFCURVE",
"46 91 OFFCURVE",
"9 8 CURVE",
"1 -7 OFFCURVE",
"0 -27 OFFCURVE",
"0 -43 CURVE SMOOTH",
"0 -99 OFFCURVE",
"36 -140 OFFCURVE",
"89 -140 CURVE SMOOTH",
"96 -140 OFFCURVE",
"104 -140 OFFCURVE",
"112 -138 CURVE"
);
}
);
width = 544;
}
);
note = uniE1D7;
unicode = E1D7;
},
{
glyphname = uniE561;
lastChange = "2019-03-26 12:05:01 +0000";
layers = (
{
hints = (
{
horizontal = 1;
place = "{-512, 590.3}";
type = Stem;
},
{
place = "{0, 29}";
type = Stem;
},
{
place = "{121, 29}";
type = Stem;
}
);
layerId = "02376AAC-77FF-49DA-9399-294AF7A35492";
paths = (
{
closed = 1;
nodes = (
"18 -502 OFFCURVE",
"21 -497 OFFCURVE",
"23 -494 CURVE",
"30 -479 OFFCURVE",
"39 -465 OFFCURVE",
"50 -453 CURVE SMOOTH",
"72 -429 OFFCURVE",
"92 -403 OFFCURVE",
"108 -375 CURVE",
"135 -394 OFFCURVE",
"163 -414 OFFCURVE",
"192 -434 CURVE",
"190 -406 OFFCURVE",
"187 -385 OFFCURVE",
"168 -370 CURVE SMOOTH",
"154 -359 OFFCURVE",
"140 -349 OFFCURVE",
"127 -338 CURVE",
"131 -328 OFFCURVE",
"135 -318 OFFCURVE",
"138 -307 CURVE SMOOTH",
"146 -281 OFFCURVE",
"150 -255 OFFCURVE",
"150 -229 CURVE SMOOTH",
"150 -204 OFFCURVE",
"146 -180 OFFCURVE",
"137 -155 CURVE",
"134 -149 OFFCURVE",
"131 -141 OFFCURVE",
"124 -141 CURVE SMOOTH",
"123 -141 LINE",
"118 -142 OFFCURVE",
"117 -146 OFFCURVE",
"117 -151 CURVE SMOOTH",
"117 -160 LINE",
"115 -175 OFFCURVE",
"121 -190 OFFCURVE",
"121 -206 CURVE SMOOTH",
"121 -210 OFFCURVE",
"121 -214 OFFCURVE",
"120 -218 CURVE SMOOTH",
"113 -250 OFFCURVE",
"101 -279 OFFCURVE",
"85 -306 CURVE",
"66 -292 OFFCURVE",
"47 -278 OFFCURVE",
"29 -263 CURVE",
"29 -207 LINE SMOOTH",
"29 -162 OFFCURVE",
"29 -116 OFFCURVE",
"28 -71 CURVE",
"30 -72 OFFCURVE",
"31 -74 OFFCURVE",
"32 -75 CURVE",
"45 -86 OFFCURVE",
"59 -89 OFFCURVE",
"74 -89 CURVE SMOOTH",
"85 -89 OFFCURVE",
"96 -87 OFFCURVE",
"107 -86 CURVE",
"154 -80 OFFCURVE",
"197 -48 OFFCURVE",
"203 -10 CURVE",
"205 -1 OFFCURVE",
"205 8 OFFCURVE",
"205 17 CURVE SMOOTH",
"205 53 OFFCURVE",
"190 83 OFFCURVE",
"146 78 CURVE",
"95 75 OFFCURVE",
"50 64 OFFCURVE",
"20 20 CURVE",
"15 11 LINE",
"13 6 LINE SMOOTH",
"3 -18 OFFCURVE",
"1 -63 OFFCURVE",
"1 -97 CURVE SMOOTH",
"0 -145 OFFCURVE",
"0 -193 OFFCURVE",
"0 -241 CURVE",
"-18 -228 OFFCURVE",
"-35 -214 OFFCURVE",
"-53 -201 CURVE",
"-56 -199 OFFCURVE",
"-59 -194 OFFCURVE",
"-63 -194 CURVE SMOOTH",
"-65 -194 OFFCURVE",
"-67 -194 OFFCURVE",
"-69 -196 CURVE SMOOTH",
"-72 -199 OFFCURVE",
"-75 -202 OFFCURVE",
"-75 -207 CURVE SMOOTH",
"-75 -209 LINE",
"-67 -230 OFFCURVE",
"-63 -253 OFFCURVE",
"-42 -268 CURVE SMOOTH",
"0 -298 LINE",
"0 -454 LINE SMOOTH",
"0 -474 OFFCURVE",
"7 -492 OFFCURVE",
"13 -512 CURVE"
);
},
{
closed = 1;
nodes = (
"25 -373 OFFCURVE",
"25 -349 OFFCURVE",
"27 -326 CURVE",
"27 -317 LINE",
"63 -343 LINE",
"59 -348 OFFCURVE",
"55 -353 OFFCURVE",
"51 -359 CURVE",
"42 -371 OFFCURVE",
"33 -384 OFFCURVE",
"25 -397 CURVE"
);
}
);
width = 205;
}
);
note = uniE561;
unicode = E561;
},
{
glyphname = uniE560;
lastChange = "2019-03-26 12:05:15 +0000";
layers = (
{
hints = (
{
horizontal = 1;
place = "{-80, 586}";
type = Stem;
},
{
place = "{154, 20}";
type = Stem;
},
{
place = "{262, 25}";
type = Stem;
},
{
place = "{160, 20}";
type = Stem;
}
);
layerId = "02376AAC-77FF-49DA-9399-294AF7A35492";
paths = (
{
closed = 1;
nodes = (
"98 -81 OFFCURVE",
"135 -61 OFFCURVE",
"163 -33 CURVE SMOOTH",
"174 -22 OFFCURVE",
"180 -9 OFFCURVE",
"182 4 CURVE",
"184 10 OFFCURVE",
"184 16 OFFCURVE",
"184 22 CURVE",
"186 58 OFFCURVE",
"180 94 OFFCURVE",
"180 130 CURVE SMOOTH",
"180 164 OFFCURVE",
"179 198 OFFCURVE",
"178 232 CURVE",
"249 286 LINE",
"258 265 OFFCURVE",
"262 243 OFFCURVE",
"262 220 CURVE SMOOTH",
"262 209 OFFCURVE",
"261 198 OFFCURVE",
"259 186 CURVE SMOOTH",
"256 169 OFFCURVE",
"251 151 OFFCURVE",
"251 134 CURVE SMOOTH",
"251 123 OFFCURVE",
"253 113 OFFCURVE",
"257 102 CURVE",
"259 103 OFFCURVE",
"261 103 OFFCURVE",
"262 105 CURVE",
"264 107 OFFCURVE",
"265 110 OFFCURVE",
"266 113 CURVE",
"281 148 OFFCURVE",
"287 184 OFFCURVE",
"287 220 CURVE SMOOTH",
"287 247 OFFCURVE",
"284 273 OFFCURVE",
"279 300 CURVE",
"278 302 OFFCURVE",
"278 305 OFFCURVE",
"277 307 CURVE",
"291 317 OFFCURVE",
"304 327 OFFCURVE",
"317 337 CURVE SMOOTH",
"333 349 OFFCURVE",
"341 367 OFFCURVE",
"342 390 CURVE",
"336 387 OFFCURVE",
"333 387 OFFCURVE",
"331 385 CURVE",
"309 370 OFFCURVE",
"288 355 OFFCURVE",
"267 340 CURVE",
"243 395 OFFCURVE",
"196 438 OFFCURVE",
"172 493 CURVE",
"167 499 LINE",
"166 500 OFFCURVE",
"165 500 OFFCURVE",
"165 501 CURVE",
"154 506 LINE",
"157 425 OFFCURVE",
"158 344 OFFCURVE",
"159 264 CURVE",
"140 250 OFFCURVE",
"121 237 OFFCURVE",
"102 224 CURVE SMOOTH",
"77 207 OFFCURVE",
"74 181 OFFCURVE",
"64 152 CURVE",
"72 155 OFFCURVE",
"75 156 OFFCURVE",
"77 158 CURVE",
"105 178 OFFCURVE",
"132 198 OFFCURVE",
"160 219 CURVE",
"160 167 OFFCURVE",
"161 115 OFFCURVE",
"164 62 CURVE",
"155 71 OFFCURVE",
"145 79 OFFCURVE",
"133 83 CURVE SMOOTH",
"122 87 OFFCURVE",
"111 88 OFFCURVE",
"100 88 CURVE SMOOTH",
"71 88 OFFCURVE",
"46 76 OFFCURVE",
"22 52 CURVE SMOOTH",
"6 36 OFFCURVE",
"0 19 OFFCURVE",
"0 1 CURVE SMOOTH",
"0 -11 OFFCURVE",
"3 -24 OFFCURVE",
"7 -37 CURVE SMOOTH",
"18 -73 OFFCURVE",
"27 -79 OFFCURVE",
"60 -80 CURVE SMOOTH"
);
},
{
closed = 1;
nodes = (
"175 319 OFFCURVE",
"174 362 OFFCURVE",
"174 405 CURVE SMOOTH",
"174 410 LINE",
"188 378 OFFCURVE",
"207 349 OFFCURVE",
"228 322 CURVE",
"230 320 OFFCURVE",
"231 317 OFFCURVE",
"232 315 CURVE",
"214 302 OFFCURVE",
"195 289 OFFCURVE",
"176 276 CURVE"
);
}
);
width = 342;
}
);
note = uniE560;
unicode = E560;
},
{
glyphname = uniE1DA;
lastChange = "2019-03-26 12:17:00 +0000";
layers = (
{
hints = (
{
horizontal = 1;
place = "{-831.83, 1006.83}";
type = Stem;
},
{
place = "{11, 39}";
type = Stem;
},
{
place = "{222, 39}";
type = Stem;
}
);
layerId = "02376AAC-77FF-49DA-9399-294AF7A35492";
paths = (
{
closed = 1;
nodes = (
"24 -835 OFFCURVE",
"29 -826 OFFCURVE",
"35 -822 CURVE",
"79 -788 OFFCURVE",
"113 -744 OFFCURVE",
"149 -703 CURVE SMOOTH",
"184 -663 OFFCURVE",
"215 -621 OFFCURVE",
"236 -572 CURVE SMOOTH",
"252 -535 OFFCURVE",
"261 -498 OFFCURVE",
"261 -461 CURVE SMOOTH",
"261 -435 OFFCURVE",
"256 -408 OFFCURVE",
"246 -381 CURVE SMOOTH",
"244 -376 OFFCURVE",
"244 -370 OFFCURVE",
"238 -370 CURVE SMOOTH",
"237 -370 LINE",
"231 -371 OFFCURVE",
"226 -375 OFFCURVE",
"224 -381 CURVE",
"223 -388 OFFCURVE",
"222 -396 OFFCURVE",
"222 -404 CURVE",
"220 -440 OFFCURVE",
"212 -474 OFFCURVE",
"194 -504 CURVE SMOOTH",
"156 -568 OFFCURVE",
"107 -622 OFFCURVE",
"56 -679 CURVE",
"53 -663 OFFCURVE",
"52 -652 OFFCURVE",
"52 -642 CURVE SMOOTH",
"52 -620 OFFCURVE",
"60 -608 OFFCURVE",
"79 -584 CURVE",
"140 -513 OFFCURVE",
"184 -432 OFFCURVE",
"223 -348 CURVE SMOOTH",
"238 -316 OFFCURVE",
"246 -284 OFFCURVE",
"246 -252 CURVE SMOOTH",
"246 -228 OFFCURVE",
"241 -204 OFFCURVE",
"232 -179 CURVE",
"229 -174 OFFCURVE",
"229 -165 OFFCURVE",
"222 -165 CURVE SMOOTH",
"220 -165 LINE",
"211 -166 OFFCURVE",
"208 -173 OFFCURVE",
"207 -182 CURVE SMOOTH",
"203 -211 OFFCURVE",
"198 -240 OFFCURVE",
"185 -265 CURVE SMOOTH",
"158 -317 OFFCURVE",
"130 -367 OFFCURVE",
"100 -417 CURVE SMOOTH",
"87 -438 OFFCURVE",
"73 -459 OFFCURVE",
"50 -477 CURVE",
"50 -393 LINE",
"49 -312 OFFCURVE",
"49 -231 OFFCURVE",
"48 -150 CURVE",
"48 -139 OFFCURVE",
"49 -133 OFFCURVE",
"56 -133 CURVE SMOOTH",
"59 -133 OFFCURVE",
"63 -134 OFFCURVE",
"68 -136 CURVE SMOOTH",
"76 -139 OFFCURVE",
"85 -140 OFFCURVE",
"94 -140 CURVE SMOOTH",
"99 -140 OFFCURVE",
"105 -140 OFFCURVE",
"111 -139 CURVE SMOOTH",
"206 -125 OFFCURVE",
"324 -9 OFFCURVE",
"324 84 CURVE SMOOTH",
"324 132 OFFCURVE",
"293 167 OFFCURVE",
"242 174 CURVE",
"237 175 OFFCURVE",
"232 175 OFFCURVE",
"227 175 CURVE SMOOTH",
"221 175 OFFCURVE",
"216 175 OFFCURVE",
"211 174 CURVE",
"120 167 OFFCURVE",
"-9 54 OFFCURVE",
"0 -59 CURVE SMOOTH",
"3 -94 OFFCURVE",
"3 -129 OFFCURVE",
"3 -164 CURVE SMOOTH",
"6 -379 OFFCURVE",
"8 -594 OFFCURVE",
"11 -810 CURVE SMOOTH",
"11 -818 OFFCURVE",
"10 -828 OFFCURVE",
"17 -831 CURVE"
);
}
);
width = 324;
}
);
note = uniE1DA;
unicode = E1DA;
},
{
glyphname = uniE1D9;
lastChange = "2019-03-26 12:17:12 +0000";
layers = (
{
hints = (
{
horizontal = 1;
place = "{-140, 995}";
type = Stem;
},
{
place = "{276, 46}";
type = Stem;
},
{
place = "{536, 30}";
type = Stem;
},
{
place = "{551, 35}";
type = Stem;
},
{
place = "{284, 42}";
type = Stem;
}
);
layerId = "02376AAC-77FF-49DA-9399-294AF7A35492";
paths = (
{
closed = 1;
nodes = (
"205 -120 OFFCURVE",
"265 -59 OFFCURVE",
"308 23 CURVE SMOOTH",
"317 41 OFFCURVE",
"322 59 OFFCURVE",
"322 80 CURVE SMOOTH",
"322 479 LINE",
"328 475 OFFCURVE",
"330 475 OFFCURVE",
"331 473 CURVE",
"390 407 OFFCURVE",
"458 348 OFFCURVE",
"514 279 CURVE SMOOTH",
"535 254 OFFCURVE",
"551 226 OFFCURVE",
"551 195 CURVE SMOOTH",
"551 181 OFFCURVE",
"548 167 OFFCURVE",
"541 152 CURVE",
"536 140 OFFCURVE",
"534 127 OFFCURVE",
"534 115 CURVE SMOOTH",
"534 94 OFFCURVE",
"538 72 OFFCURVE",
"539 48 CURVE",
"551 58 OFFCURVE",
"554 65 OFFCURVE",
"557 73 CURVE",
"574 104 OFFCURVE",
"580 139 OFFCURVE",
"583 174 CURVE SMOOTH",
"584 192 OFFCURVE",
"586 210 OFFCURVE",
"586 228 CURVE SMOOTH",
"586 260 OFFCURVE",
"582 293 OFFCURVE",
"568 324 CURVE SMOOTH",
"562 338 OFFCURVE",
"559 351 OFFCURVE",
"559 364 CURVE SMOOTH",
"559 371 OFFCURVE",
"560 377 OFFCURVE",
"561 384 CURVE SMOOTH",
"564 406 OFFCURVE",
"566 427 OFFCURVE",
"566 447 CURVE SMOOTH",
"566 549 OFFCURVE",
"523 635 OFFCURVE",
"441 706 CURVE SMOOTH",
"394 747 OFFCURVE",
"346 787 OFFCURVE",
"312 840 CURVE SMOOTH",
"309 845 OFFCURVE",
"309 855 OFFCURVE",
"302 855 CURVE SMOOTH",
"301 855 OFFCURVE",
"300 854 OFFCURVE",
"299 854 CURVE",
"291 852 OFFCURVE",
"286 845 OFFCURVE",
"286 836 CURVE",
"285 829 OFFCURVE",
"284 822 OFFCURVE",
"284 815 CURVE SMOOTH",
"282 711 OFFCURVE",
"281 607 OFFCURVE",
"280 503 CURVE SMOOTH",
"278 397 OFFCURVE",
"277 290 OFFCURVE",
"276 184 CURVE SMOOTH",
"276 172 OFFCURVE",
"274 166 OFFCURVE",
"267 166 CURVE SMOOTH",
"264 166 OFFCURVE",
"261 167 OFFCURVE",
"256 169 CURVE SMOOTH",
"246 173 OFFCURVE",
"235 175 OFFCURVE",
"224 175 CURVE SMOOTH",
"214 175 OFFCURVE",
"205 173 OFFCURVE",
"195 171 CURVE",
"106 148 OFFCURVE",
"46 91 OFFCURVE",
"9 8 CURVE",
"1 -7 OFFCURVE",
"0 -25 OFFCURVE",
"0 -42 CURVE SMOOTH",
"0 -99 OFFCURVE",
"37 -140 OFFCURVE",
"90 -140 CURVE SMOOTH",
"97 -140 OFFCURVE",
"104 -139 OFFCURVE",
"112 -138 CURVE"
);
},
{
closed = 1;
nodes = (
"471 460 OFFCURVE",
"409 519 OFFCURVE",
"346 578 CURVE SMOOTH",
"332 592 OFFCURVE",
"323 606 OFFCURVE",
"323 625 CURVE SMOOTH",
"323 629 OFFCURVE",
"323 633 OFFCURVE",
"324 637 CURVE",
"325 646 OFFCURVE",
"326 654 OFFCURVE",
"326 664 CURVE SMOOTH",
"326 676 OFFCURVE",
"325 689 OFFCURVE",
"325 704 CURVE",
"372 649 OFFCURVE",
"427 610 OFFCURVE",
"470 558 CURVE SMOOTH",
"499 525 OFFCURVE",
"521 488 OFFCURVE",
"534 445 CURVE",
"535 441 OFFCURVE",
"536 437 OFFCURVE",
"536 433 CURVE SMOOTH",
"536 423 OFFCURVE",
"533 414 OFFCURVE",
"533 407 CURVE SMOOTH",
"533 404 OFFCURVE",
"533 402 OFFCURVE",
"534 400 CURVE"
);
}
);
width = 586;
}
);
note = uniE1D9;
unicode = E1D9;
},
{
glyphname = uniE1DC;
lastChange = "2019-03-26 13:39:41 +0000";
layers = (
{
hints = (
{
horizontal = 1;
place = "{-1010.91, 1185.91}";
type = Stem;
},
{
place = "{0, 32}";
type = Stem;
},
{
place = "{234, 25}";
type = Stem;
},
{
place = "{246, 42}";
type = Stem;
},
{
place = "{238, 42}";
type = Stem;
},
{
place = "{234, 21}";
type = Stem;
},
{
place = "{9, 28}";
type = Stem;
}
);
layerId = "02376AAC-77FF-49DA-9399-294AF7A35492";
paths = (
{
closed = 1;
nodes = (
"35 -1015 OFFCURVE",
"40 -1003 OFFCURVE",
"46 -997 CURVE",
"67 -978 OFFCURVE",
"86 -956 OFFCURVE",
"107 -936 CURVE SMOOTH",
"173 -871 OFFCURVE",
"233 -801 OFFCURVE",
"259 -709 CURVE SMOOTH",
"269 -673 OFFCURVE",
"275 -637 OFFCURVE",
"275 -601 CURVE SMOOTH",
"275 -570 OFFCURVE",
"271 -539 OFFCURVE",
"259 -509 CURVE",
"257 -503 OFFCURVE",
"255 -497 OFFCURVE",
"255 -492 CURVE SMOOTH",
"255 -486 OFFCURVE",
"257 -481 OFFCURVE",
"260 -475 CURVE SMOOTH",
"278 -438 OFFCURVE",
"288 -400 OFFCURVE",
"288 -361 CURVE SMOOTH",
"288 -341 OFFCURVE",
"286 -321 OFFCURVE",
"280 -301 CURVE SMOOTH",
"275 -285 OFFCURVE",
"273 -269 OFFCURVE",
"273 -253 CURVE SMOOTH",
"273 -229 OFFCURVE",
"277 -206 OFFCURVE",
"280 -183 CURVE SMOOTH",
"281 -176 OFFCURVE",
"281 -168 OFFCURVE",
"281 -161 CURVE SMOOTH",
"281 -132 OFFCURVE",
"274 -105 OFFCURVE",
"260 -79 CURVE",
"256 -73 OFFCURVE",
"255 -69 OFFCURVE",
"255 -64 CURVE SMOOTH",
"255 -59 OFFCURVE",
"257 -55 OFFCURVE",
"263 -49 CURVE SMOOTH",
"293 -18 OFFCURVE",
"315 18 OFFCURVE",
"324 61 CURVE SMOOTH",
"326 70 OFFCURVE",
"327 79 OFFCURVE",
"327 87 CURVE SMOOTH",
"327 130 OFFCURVE",
"302 159 OFFCURVE",
"255 171 CURVE SMOOTH",
"244 174 OFFCURVE",
"233 175 OFFCURVE",
"223 175 CURVE SMOOTH",
"188 175 OFFCURVE",
"156 161 OFFCURVE",
"126 141 CURVE SMOOTH",
"67 101 OFFCURVE",
"20 52 OFFCURVE",
"5 -22 CURVE SMOOTH",
"4 -27 OFFCURVE",
"4 -32 OFFCURVE",
"4 -37 CURVE SMOOTH",
"4 -50 OFFCURVE",
"6 -64 OFFCURVE",
"6 -77 CURVE SMOOTH",
"4 -146 OFFCURVE",
"0 -216 OFFCURVE",
"0 -285 CURVE SMOOTH",
"0 -307 OFFCURVE",
"0 -328 OFFCURVE",
"1 -350 CURVE SMOOTH",
"5 -451 OFFCURVE",
"0 -551 OFFCURVE",
"7 -652 CURVE SMOOTH",
"9 -679 OFFCURVE",
"9 -706 OFFCURVE",
"9 -734 CURVE SMOOTH",
"9 -774 OFFCURVE",
"8 -815 OFFCURVE",
"8 -856 CURVE",
"6 -879 OFFCURVE",
"4 -902 OFFCURVE",
"4 -925 CURVE SMOOTH",
"4 -944 OFFCURVE",
"5 -963 OFFCURVE",
"8 -982 CURVE SMOOTH",
"10 -994 OFFCURVE",
"12 -1005 OFFCURVE",
"23 -1010 CURVE SMOOTH"
);
},
{
closed = 1;
nodes = (
"33 -412 LINE SMOOTH",
"33 -362 OFFCURVE",
"32 -313 OFFCURVE",
"32 -263 CURVE SMOOTH",
"32 -216 OFFCURVE",
"33 -169 OFFCURVE",
"36 -122 CURVE",
"59 -135 OFFCURVE",
"81 -140 OFFCURVE",
"101 -140 CURVE SMOOTH",
"149 -140 OFFCURVE",
"191 -111 OFFCURVE",
"234 -80 CURVE",
"234 -115 OFFCURVE",
"233 -147 OFFCURVE",
"238 -178 CURVE",
"240 -199 OFFCURVE",
"226 -219 OFFCURVE",
"214 -237 CURVE SMOOTH",
"163 -314 OFFCURVE",
"105 -384 OFFCURVE",
"33 -450 CURVE"
);
},
{
closed = 1;
nodes = (
"37 -656 OFFCURVE",
"37 -651 OFFCURVE",
"37 -646 CURVE SMOOTH",
"37 -641 LINE SMOOTH",
"37 -629 OFFCURVE",
"38 -617 OFFCURVE",
"38 -606 CURVE SMOOTH",
"38 -600 OFFCURVE",
"38 -594 OFFCURVE",
"37 -588 CURVE",
"34 -565 OFFCURVE",
"43 -550 OFFCURVE",
"60 -534 CURVE SMOOTH",
"124 -474 OFFCURVE",
"181 -406 OFFCURVE",
"230 -333 CURVE",
"233 -328 OFFCURVE",
"234 -322 OFFCURVE",
"241 -319 CURVE",
"245 -331 OFFCURVE",
"246 -342 OFFCURVE",
"246 -353 CURVE SMOOTH",
"246 -387 OFFCURVE",
"230 -417 OFFCURVE",
"208 -446 CURVE SMOOTH",
"82 -611 LINE SMOOTH",
"70 -627 OFFCURVE",
"57 -643 OFFCURVE",
"44 -660 CURVE"
);
},
{
closed = 1;
nodes = (
"38 -874 OFFCURVE",
"37 -863 OFFCURVE",
"37 -852 CURVE SMOOTH",
"37 -827 OFFCURVE",
"40 -804 OFFCURVE",
"41 -781 CURVE",
"41 -772 OFFCURVE",
"48 -766 OFFCURVE",
"53 -759 CURVE",
"105 -692 OFFCURVE",
"157 -625 OFFCURVE",
"209 -559 CURVE SMOOTH",
"216 -550 OFFCURVE",
"222 -541 OFFCURVE",
"230 -530 CURVE",
"233 -546 OFFCURVE",
"234 -562 OFFCURVE",
"234 -578 CURVE SMOOTH",
"234 -623 OFFCURVE",
"223 -665 OFFCURVE",
"199 -705 CURVE SMOOTH",
"157 -774 OFFCURVE",
"98 -827 OFFCURVE",
"39 -886 CURVE"
);
}
);
width = 327;
}
);
note = uniE1DC;
unicode = E1DC;
},
{
glyphname = uniE1DB;
lastChange = "2019-03-26 13:39:28 +0000";
layers = (
{
hints = (
{
horizontal = 1;
place = "{-140, 1175}";
type = Stem;
},
{
place = "{287, 33}";
type = Stem;
},
{
place = "{516, 49}";
type = Stem;
},
{
place = "{537, 41}";
type = Stem;
},
{
place = "{515, 31}";
type = Stem;
}
);
layerId = "02376AAC-77FF-49DA-9399-294AF7A35492";
paths = (
{
closed = 1;
nodes = (
"153 -133 OFFCURVE",
"188 -113 OFFCURVE",
"219 -87 CURVE SMOOTH",
"267 -48 OFFCURVE",
"309 -2 OFFCURVE",
"320 62 CURVE SMOOTH",
"324 86 OFFCURVE",
"326 111 OFFCURVE",
"326 135 CURVE SMOOTH",
"326 158 OFFCURVE",
"324 181 OFFCURVE",
"323 203 CURVE SMOOTH",
"321 234 OFFCURVE",
"320 266 OFFCURVE",
"320 297 CURVE SMOOTH",
"320 343 OFFCURVE",
"322 390 OFFCURVE",
"321 438 CURVE",
"345 415 OFFCURVE",
"367 396 OFFCURVE",
"388 376 CURVE SMOOTH",
"428 338 OFFCURVE",
"469 302 OFFCURVE",
"499 254 CURVE SMOOTH",
"509 238 OFFCURVE",
"516 222 OFFCURVE",
"516 206 CURVE SMOOTH",
"516 195 OFFCURVE",
"513 183 OFFCURVE",
"504 171 CURVE SMOOTH",
"497 162 OFFCURVE",
"495 150 OFFCURVE",
"488 141 CURVE",
"468 110 OFFCURVE",
"451 79 OFFCURVE",
"451 43 CURVE SMOOTH",
"451 33 OFFCURVE",
"453 22 OFFCURVE",
"456 10 CURVE",
"457 5 OFFCURVE",
"456 -3 OFFCURVE",
"461 -5 CURVE",
"468 -7 OFFCURVE",
"471 0 OFFCURVE",
"474 4 CURVE SMOOTH",
"482 15 OFFCURVE",
"489 27 OFFCURVE",
"498 37 CURVE SMOOTH",
"547 90 OFFCURVE",
"565 152 OFFCURVE",
"565 217 CURVE SMOOTH",
"565 240 OFFCURVE",
"563 263 OFFCURVE",
"559 287 CURVE",
"558 297 OFFCURVE",
"558 306 OFFCURVE",
"561 315 CURVE SMOOTH",
"571 346 OFFCURVE",
"578 379 OFFCURVE",
"578 410 CURVE SMOOTH",
"578 434 OFFCURVE",
"574 458 OFFCURVE",
"566 481 CURVE SMOOTH",
"552 520 OFFCURVE",
"546 557 OFFCURVE",
"546 596 CURVE SMOOTH",
"546 605 OFFCURVE",
"546 613 OFFCURVE",
"547 622 CURVE",
"547 641 LINE",
"541 712 OFFCURVE",
"522 781 OFFCURVE",
"476 835 CURVE SMOOTH",
"424 897 OFFCURVE",
"368 955 OFFCURVE",
"321 1020 CURVE",
"318 1025 OFFCURVE",
"315 1035 OFFCURVE",
"307 1035 CURVE SMOOTH",
"305 1035 OFFCURVE",
"303 1034 OFFCURVE",
"301 1033 CURVE SMOOTH",
"291 1028 OFFCURVE",
"287 1020 OFFCURVE",
"287 1008 CURVE SMOOTH",
"287 973 OFFCURVE",
"290 939 OFFCURVE",
"291 905 CURVE SMOOTH",
"292 872 OFFCURVE",
"293 838 OFFCURVE",
"293 805 CURVE SMOOTH",
"293 694 OFFCURVE",
"287 583 OFFCURVE",
"287 472 CURVE SMOOTH",
"287 179 LINE SMOOTH",
"287 169 OFFCURVE",
"286 161 OFFCURVE",
"279 161 CURVE SMOOTH",
"275 161 OFFCURVE",
"270 163 OFFCURVE",
"263 167 CURVE SMOOTH",
"252 173 OFFCURVE",
"239 176 OFFCURVE",
"226 176 CURVE SMOOTH",
"217 176 OFFCURVE",
"207 174 OFFCURVE",
"197 172 CURVE",
"114 152 OFFCURVE",
"58 100 OFFCURVE",
"18 28 CURVE SMOOTH",
"5 6 OFFCURVE",
"0 -18 OFFCURVE",
"0 -42 CURVE SMOOTH",
"0 -101 OFFCURVE",
"39 -140 OFFCURVE",
"95 -140 CURVE SMOOTH",
"100 -140 OFFCURVE",
"106 -140 OFFCURVE",
"112 -139 CURVE SMOOTH"
);
},
{
closed = 1;
nodes = (
"471 632 OFFCURVE",
"432 670 OFFCURVE",
"393 708 CURVE SMOOTH",
"383 718 OFFCURVE",
"374 729 OFFCURVE",
"363 738 CURVE",
"339 761 OFFCURVE",
"322 786 OFFCURVE",
"322 820 CURVE SMOOTH",
"322 825 OFFCURVE",
"322 830 OFFCURVE",
"323 835 CURVE",
"323 839 OFFCURVE",
"324 844 OFFCURVE",
"324 848 CURVE SMOOTH",
"324 862 OFFCURVE",
"322 875 OFFCURVE",
"321 889 CURVE",
"366 828 OFFCURVE",
"421 777 OFFCURVE",
"463 717 CURVE SMOOTH",
"489 680 OFFCURVE",
"504 640 OFFCURVE",
"515 590 CURVE"
);
},
{
closed = 1;
nodes = (
"483 441 OFFCURVE",
"410 491 OFFCURVE",
"341 546 CURVE",
"326 559 OFFCURVE",
"320 572 OFFCURVE",
"322 591 CURVE SMOOTH",
"324 611 OFFCURVE",
"325 631 OFFCURVE",
"327 653 CURVE",
"380 596 OFFCURVE",
"433 541 OFFCURVE",
"484 485 CURVE SMOOTH",
"506 460 OFFCURVE",
"521 432 OFFCURVE",
"533 401 CURVE",
"535 395 OFFCURVE",
"537 390 OFFCURVE",
"537 384 CURVE SMOOTH",
"537 377 OFFCURVE",
"535 371 OFFCURVE",
"530 363 CURVE"
);
}
);
width = 578;
}
);
note = uniE1DB;
unicode = E1DB;
},
{
glyphname = uniE4E3;
lastChange = "2019-03-26 13:48:41 +0000";
layers = (
{
hints = (
{
horizontal = 1;
place = "{-119, 131}";
type = Stem;
},
{
place = "{1, 499}";
type = Stem;
}
);
layerId = "02376AAC-77FF-49DA-9399-294AF7A35492";
paths = (
{
closed = 1;
nodes = (
"247 -120 LINE",
"247 -119 LINE",
"446 -119 LINE SMOOTH",
"472 -119 OFFCURVE",
"498 -101 OFFCURVE",
"499 -80 CURVE",
"499 -72 OFFCURVE",
"500 -64 OFFCURVE",
"500 -57 CURVE SMOOTH",
"500 -42 OFFCURVE",
"499 -28 OFFCURVE",
"494 -14 CURVE SMOOTH",
"489 0 OFFCURVE",
"482 7 OFFCURVE",
"467 12 CURVE SMOOTH",
"461 14 OFFCURVE",
"456 14 OFFCURVE",
"451 14 CURVE SMOOTH",
"440 14 OFFCURVE",
"431 12 OFFCURVE",
"420 12 CURVE SMOOTH",
"301 12 OFFCURVE",
"182 12 OFFCURVE",
"64 13 CURVE",
"48 14 OFFCURVE",
"34 8 OFFCURVE",
"20 5 CURVE",
"8 3 OFFCURVE",
"6 -4 OFFCURVE",
"6 -12 CURVE SMOOTH",
"6 -18 OFFCURVE",
"7 -24 OFFCURVE",
"7 -30 CURVE SMOOTH",
"7 -40 OFFCURVE",
"2 -50 OFFCURVE",
"1 -58 CURVE",
"0 -102 OFFCURVE",
"5 -120 OFFCURVE",
"53 -120 CURVE SMOOTH"
);
}
);
width = 600;
}
);
note = uniE4E3;
unicode = E4E3;
},
{
glyphname = uniE4E4;
lastChange = "2019-03-26 13:50:33 +0000";
layers = (
{
hints = (
{
horizontal = 1;
place = "{0, 162}";
type = Stem;
},
{
place = "{0, 518.17}";
type = Stem;
}
);
layerId = "02376AAC-77FF-49DA-9399-294AF7A35492";
paths = (
{
closed = 1;
nodes = (
"386 0 LINE SMOOTH",
"411 0 OFFCURVE",
"437 0 OFFCURVE",
"462 1 CURVE SMOOTH",
"500 2 OFFCURVE",
"516 20 OFFCURVE",
"518 57 CURVE",
"520 79 OFFCURVE",
"514 100 OFFCURVE",
"511 121 CURVE SMOOTH",
"506 149 OFFCURVE",
"492 161 OFFCURVE",
"465 161 CURVE SMOOTH",
"442 161 OFFCURVE",
"419 159 OFFCURVE",
"396 159 CURVE SMOOTH",
"346 159 OFFCURVE",
"296 162 OFFCURVE",
"247 162 CURVE SMOOTH",
"51 162 LINE SMOOTH",
"13 162 OFFCURVE",
"0 153 OFFCURVE",
"0 124 CURVE SMOOTH",
"0 119 OFFCURVE",
"0 114 OFFCURVE",
"1 107 CURVE SMOOTH",
"3 94 OFFCURVE",
"4 80 OFFCURVE",
"4 66 CURVE",
"2 19 OFFCURVE",
"20 0 OFFCURVE",
"68 0 CURVE SMOOTH"
);
}
);
width = 518;
}
);
note = uniE4E4;
unicode = E4E4;
},
{
glyphname = uniE4E5;
lastChange = "2019-03-26 15:31:42 +0000";
layers = (
{
hints = (
{
horizontal = 1;
place = "{-415, 830}";
type = Stem;
},
{
place = "{0, 85}";
type = Stem;
}
);
layerId = "02376AAC-77FF-49DA-9399-294AF7A35492";
paths = (
{
closed = 1;
nodes = (
"113 -409 OFFCURVE",
"112 -399 OFFCURVE",
"114 -391 CURVE",
"114 -387 OFFCURVE",
"112 -383 OFFCURVE",
"111 -379 CURVE SMOOTH",
"103 -344 OFFCURVE",
"94 -310 OFFCURVE",
"86 -275 CURVE SMOOTH",
"85 -271 OFFCURVE",
"85 -267 OFFCURVE",
"85 -264 CURVE SMOOTH",
"85 -230 OFFCURVE",
"110 -189 OFFCURVE",
"138 -177 CURVE",
"145 -173 OFFCURVE",
"151 -176 OFFCURVE",
"158 -178 CURVE SMOOTH",
"190 -188 OFFCURVE",
"207 -215 OFFCURVE",
"225 -240 CURVE SMOOTH",
"230 -247 OFFCURVE",
"237 -256 OFFCURVE",
"245 -256 CURVE SMOOTH",
"247 -256 OFFCURVE",
"248 -256 OFFCURVE",
"250 -255 CURVE",
"259 -251 OFFCURVE",
"263 -242 OFFCURVE",
"263 -233 CURVE",
"262 -226 LINE SMOOTH",
"258 -203 OFFCURVE",
"254 -179 OFFCURVE",
"239 -161 CURVE SMOOTH",
"209 -125 OFFCURVE",
"193 -81 OFFCURVE",
"173 -40 CURVE SMOOTH",
"170 -34 OFFCURVE",
"168 -29 OFFCURVE",
"168 -25 CURVE SMOOTH",
"168 -18 OFFCURVE",
"172 -12 OFFCURVE",
"179 -5 CURVE SMOOTH",
"197 14 OFFCURVE",
"216 31 OFFCURVE",
"228 54 CURVE",
"239 72 OFFCURVE",
"246 91 OFFCURVE",
"246 110 CURVE SMOOTH",
"246 123 OFFCURVE",
"243 136 OFFCURVE",
"234 150 CURVE SMOOTH",
"204 200 OFFCURVE",
"173 249 OFFCURVE",
"148 302 CURVE SMOOTH",
"131 338 OFFCURVE",
"110 372 OFFCURVE",
"80 399 CURVE",
"73 406 OFFCURVE",
"64 415 OFFCURVE",
"54 415 CURVE SMOOTH",
"50 415 OFFCURVE",
"46 414 OFFCURVE",
"41 411 CURVE SMOOTH",
"31 405 OFFCURVE",
"27 397 OFFCURVE",
"27 390 CURVE SMOOTH",
"27 382 OFFCURVE",
"31 374 OFFCURVE",
"37 366 CURVE SMOOTH",
"68 326 OFFCURVE",
"87 279 OFFCURVE",
"117 239 CURVE",
"126 228 OFFCURVE",
"130 220 OFFCURVE",
"130 213 CURVE SMOOTH",
"130 204 OFFCURVE",
"122 197 OFFCURVE",
"106 187 CURVE",
"85 175 OFFCURVE",
"63 163 OFFCURVE",
"43 148 CURVE SMOOTH",
"33 141 OFFCURVE",
"28 133 OFFCURVE",
"28 125 CURVE SMOOTH",
"28 120 OFFCURVE",
"30 115 OFFCURVE",
"32 110 CURVE SMOOTH",
"42 87 OFFCURVE",
"55 66 OFFCURVE",
"69 45 CURVE SMOOTH",
"91 14 OFFCURVE",
"111 -20 OFFCURVE",
"127 -55 CURVE",
"120 -61 OFFCURVE",
"114 -59 OFFCURVE",
"108 -60 CURVE SMOOTH",
"40 -69 OFFCURVE",
"-5 -120 OFFCURVE",
"0 -181 CURVE SMOOTH",
"7 -254 OFFCURVE",
"34 -322 OFFCURVE",
"67 -387 CURVE SMOOTH",
"71 -395 OFFCURVE",
"76 -403 OFFCURVE",
"86 -406 CURVE SMOOTH",
"92 -408 OFFCURVE",
"96 -415 OFFCURVE",
"101 -415 CURVE SMOOTH",
"102 -415 OFFCURVE",
"104 -415 OFFCURVE",
"105 -414 CURVE"
);
}
);
width = 263;
}
);
note = uniE4E5;
unicode = E4E5;
},
{
glyphname = uniE4E6;
lastChange = "2019-03-26 15:31:42 +0000";
layers = (
{
hints = (
{
horizontal = 1;
place = "{-260, 521}";
type = Stem;
},
{
place = "{0, 289}";
type = Stem;
}
);
layerId = "02376AAC-77FF-49DA-9399-294AF7A35492";
paths = (
{
closed = 1;
nodes = (
"132 -259 OFFCURVE",
"141 -248 OFFCURVE",
"147 -236 CURVE",
"165 -203 OFFCURVE",
"179 -168 OFFCURVE",
"192 -132 CURVE SMOOTH",
"231 -25 OFFCURVE",
"249 89 OFFCURVE",
"285 198 CURVE SMOOTH",
"287 204 OFFCURVE",
"289 211 OFFCURVE",
"289 218 CURVE SMOOTH",
"289 223 LINE",
"288 237 OFFCURVE",
"285 246 OFFCURVE",
"273 246 CURVE SMOOTH",
"270 246 OFFCURVE",
"268 246 OFFCURVE",
"265 245 CURVE",
"241 241 OFFCURVE",
"219 231 OFFCURVE",
"203 216 CURVE SMOOTH",
"178 192 OFFCURVE",
"150 174 OFFCURVE",
"121 156 CURVE",
"117 154 OFFCURVE",
"113 152 OFFCURVE",
"109 152 CURVE SMOOTH",
"105 152 OFFCURVE",
"101 154 OFFCURVE",
"97 158 CURVE SMOOTH",
"93 162 OFFCURVE",
"91 167 OFFCURVE",
"91 171 CURVE SMOOTH",
"91 175 OFFCURVE",
"92 178 OFFCURVE",
"94 182 CURVE",
"98 189 OFFCURVE",
"102 198 OFFCURVE",
"102 207 CURVE SMOOTH",
"102 224 OFFCURVE",
"107 246 OFFCURVE",
"88 255 CURVE SMOOTH",
"79 259 OFFCURVE",
"71 261 OFFCURVE",
"65 261 CURVE SMOOTH",
"52 261 OFFCURVE",
"44 252 OFFCURVE",
"33 233 CURVE SMOOTH",
"14 200 OFFCURVE",
"8 163 OFFCURVE",
"2 126 CURVE",
"1 118 OFFCURVE",
"0 111 OFFCURVE",
"0 104 CURVE SMOOTH",
"0 58 OFFCURVE",
"24 17 OFFCURVE",
"76 17 CURVE SMOOTH",
"88 17 OFFCURVE",
"103 19 OFFCURVE",
"119 25 CURVE SMOOTH",
"148 36 OFFCURVE",
"172 52 OFFCURVE",
"201 70 CURVE",
"178 -43 OFFCURVE",
"134 -148 OFFCURVE",
"114 -260 CURVE"
);
}
);
width = 289;
}
);
note = uniE4E6;
unicode = E4E6;
},
{
glyphname = uniE4E7;
lastChange = "2019-03-26 15:31:42 +0000";
layers = (
{
hints = (
{
horizontal = 1;
place = "{-328.26, 572.26}";
type = Stem;
},
{
place = "{0, 333}";
type = Stem;
},
{
place = "{41, 124}";
type = Stem;
},
{
horizontal = 1;
place = "{-204, 198}";
type = Stem;
},
{
place = "{0, 122}";
type = Stem;
}
);
layerId = "02376AAC-77FF-49DA-9399-294AF7A35492";
paths = (
{
closed = 1;
nodes = (
"154 -331 OFFCURVE",
"164 -325 OFFCURVE",
"171 -318 CURVE SMOOTH",
"194 -295 OFFCURVE",
"208 -267 OFFCURVE",
"213 -235 CURVE SMOOTH",
"217 -209 OFFCURVE",
"220 -182 OFFCURVE",
"225 -157 CURVE SMOOTH",
"243 -65 OFFCURVE",
"268 24 OFFCURVE",
"297 112 CURVE SMOOTH",
"309 149 OFFCURVE",
"333 180 OFFCURVE",
"333 221 CURVE SMOOTH",
"333 230 OFFCURVE",
"331 237 OFFCURVE",
"324 241 CURVE",
"320 243 OFFCURVE",
"315 244 OFFCURVE",
"309 244 CURVE SMOOTH",
"300 244 OFFCURVE",
"291 241 OFFCURVE",
"283 234 CURVE",
"281 233 OFFCURVE",
"280 232 OFFCURVE",
"279 231 CURVE",
"239 204 OFFCURVE",
"204 170 OFFCURVE",
"155 149 CURVE",
"159 162 OFFCURVE",
"163 171 OFFCURVE",
"164 180 CURVE",
"165 184 OFFCURVE",
"165 188 OFFCURVE",
"165 192 CURVE SMOOTH",
"165 210 OFFCURVE",
"157 232 OFFCURVE",
"147 235 CURVE",
"143 236 OFFCURVE",
"138 237 OFFCURVE",
"134 237 CURVE SMOOTH",
"108 237 OFFCURVE",
"72 220 OFFCURVE",
"60 201 CURVE",
"46 177 OFFCURVE",
"41 151 OFFCURVE",
"41 125 CURVE SMOOTH",
"41 53 OFFCURVE",
"64 19 OFFCURVE",
"108 19 CURVE SMOOTH",
"124 19 OFFCURVE",
"142 24 OFFCURVE",
"164 32 CURVE SMOOTH",
"188 41 OFFCURVE",
"207 57 OFFCURVE",
"235 70 CURVE",
"217 34 OFFCURVE",
"210 0 OFFCURVE",
"201 -34 CURVE SMOOTH",
"192 -69 OFFCURVE",
"163 -74 OFFCURVE",
"136 -85 CURVE",
"130 -88 OFFCURVE",
"122 -88 OFFCURVE",
"122 -79 CURVE SMOOTH",
"122 -77 LINE",
"123 -61 OFFCURVE",
"114 -50 OFFCURVE",
"109 -37 CURVE",
"98 -5 OFFCURVE",
"70 -11 OFFCURVE",
"48 -6 CURVE SMOOTH",
"30 -2 OFFCURVE",
"20 -19 OFFCURVE",
"12 -33 CURVE",
"3 -51 OFFCURVE",
"0 -69 OFFCURVE",
"0 -88 CURVE SMOOTH",
"0 -102 OFFCURVE",
"1 -116 OFFCURVE",
"4 -129 CURVE",
"12 -182 OFFCURVE",
"26 -204 OFFCURVE",
"57 -204 CURVE SMOOTH",
"71 -204 OFFCURVE",
"89 -201 OFFCURVE",
"111 -192 CURVE SMOOTH",
"126 -186 OFFCURVE",
"141 -180 OFFCURVE",
"152 -168 CURVE",
"155 -164 OFFCURVE",
"159 -160 OFFCURVE",
"164 -160 CURVE SMOOTH",
"166 -160 OFFCURVE",
"167 -160 OFFCURVE",
"169 -161 CURVE",
"172 -171 OFFCURVE",
"166 -181 OFFCURVE",
"163 -191 CURVE",
"153 -232 OFFCURVE",
"140 -274 OFFCURVE",
"140 -317 CURVE SMOOTH",
"140 -321 OFFCURVE",
"141 -325 OFFCURVE",
"145 -327 CURVE"
);
}
);
width = 333;
}
);
note = uniE4E7;
unicode = E4E7;
},
{
glyphname = uniE4E8;
lastChange = "2019-03-26 15:31:42 +0000";
layers = (
{
hints = (
{
horizontal = 1;
place = "{-497, 980}";
type = Stem;
},
{
place = "{0, 347}";
type = Stem;
},
{
horizontal = 1;
place = "{44, 187}";
type = Stem;
}
);
layerId = "02376AAC-77FF-49DA-9399-294AF7A35492";
paths = (
{
closed = 1;
nodes = (
"135 -500 OFFCURVE",
"145 -489 OFFCURVE",
"151 -479 CURVE",
"156 -472 OFFCURVE",
"160 -464 OFFCURVE",
"162 -455 CURVE SMOOTH",
"176 -394 OFFCURVE",
"191 -333 OFFCURVE",
"203 -271 CURVE SMOOTH",
"217 -191 OFFCURVE",
"233 -112 OFFCURVE",
"251 -33 CURVE SMOOTH",
"273 71 OFFCURVE",
"293 175 OFFCURVE",
"314 278 CURVE SMOOTH",
"324 331 OFFCURVE",
"335 384 OFFCURVE",
"345 437 CURVE",
"346 441 OFFCURVE",
"347 445 OFFCURVE",
"347 449 CURVE SMOOTH",
"347 462 OFFCURVE",
"342 475 OFFCURVE",
"333 480 CURVE",
"330 482 OFFCURVE",
"326 483 OFFCURVE",
"322 483 CURVE SMOOTH",
"311 483 OFFCURVE",
"299 476 OFFCURVE",
"290 468 CURVE SMOOTH",
"251 435 LINE",
"245 429 OFFCURVE",
"238 425 OFFCURVE",
"231 424 CURVE",
"226 424 OFFCURVE",
"220 428 OFFCURVE",
"214 437 CURVE",
"203 452 OFFCURVE",
"184 459 OFFCURVE",
"166 463 CURVE",
"158 464 OFFCURVE",
"150 465 OFFCURVE",
"142 465 CURVE SMOOTH",
"98 465 OFFCURVE",
"66 436 OFFCURVE",
"60 388 CURVE",
"60 383 OFFCURVE",
"59 378 OFFCURVE",
"59 373 CURVE SMOOTH",
"59 344 OFFCURVE",
"66 316 OFFCURVE",
"74 289 CURVE SMOOTH",
"79 270 OFFCURVE",
"93 258 OFFCURVE",
"112 258 CURVE SMOOTH",
"115 258 OFFCURVE",
"118 258 OFFCURVE",
"121 259 CURVE",
"133 260 OFFCURVE",
"145 262 OFFCURVE",
"157 266 CURVE SMOOTH",
"198 279 OFFCURVE",
"229 308 OFFCURVE",
"269 332 CURVE",
"263 308 OFFCURVE",
"253 288 OFFCURVE",
"253 268 CURVE SMOOTH",
"253 224 OFFCURVE",
"222 207 OFFCURVE",
"192 188 CURVE SMOOTH",
"189 186 OFFCURVE",
"186 185 OFFCURVE",
"184 185 CURVE SMOOTH",
"181 185 OFFCURVE",
"178 187 OFFCURVE",
"175 192 CURVE",
"159 216 OFFCURVE",
"129 231 OFFCURVE",
"99 231 CURVE SMOOTH",
"90 231 OFFCURVE",
"82 229 OFFCURVE",
"74 227 CURVE",
"43 218 OFFCURVE",
"32 202 OFFCURVE",
"30 169 CURVE",
"30 146 OFFCURVE",
"36 124 OFFCURVE",
"40 101 CURVE SMOOTH",
"47 64 OFFCURVE",
"69 44 OFFCURVE",
"104 44 CURVE SMOOTH",
"148 44 OFFCURVE",
"180 68 OFFCURVE",
"219 92 CURVE",
"206 44 OFFCURVE",
"195 3 OFFCURVE",
"185 -40 CURVE SMOOTH",
"180 -63 OFFCURVE",
"160 -67 OFFCURVE",
"144 -70 CURVE",
"129 -74 OFFCURVE",
"138 -52 OFFCURVE",
"129 -46 CURVE SMOOTH",
"126 -44 OFFCURVE",
"127 -38 OFFCURVE",
"125 -35 CURVE",
"111 -16 OFFCURVE",
"94 -2 OFFCURVE",
"70 -2 CURVE SMOOTH",
"41 -2 OFFCURVE",
"14 -22 OFFCURVE",
"6 -46 CURVE SMOOTH",
"2 -58 OFFCURVE",
"0 -70 OFFCURVE",
"0 -82 CURVE SMOOTH",
"0 -100 OFFCURVE",
"4 -118 OFFCURVE",
"7 -136 CURVE SMOOTH",
"14 -178 OFFCURVE",
"36 -199 OFFCURVE",
"72 -199 CURVE SMOOTH",
"79 -199 OFFCURVE",
"87 -199 OFFCURVE",
"95 -196 CURVE",
"105 -195 OFFCURVE",
"119 -187 OFFCURVE",
"128 -187 CURVE SMOOTH",
"132 -187 OFFCURVE",
"134 -188 OFFCURVE",
"136 -191 CURVE",
"137 -193 OFFCURVE",
"138 -196 OFFCURVE",
"138 -199 CURVE SMOOTH",
"138 -211 OFFCURVE",
"131 -226 OFFCURVE",
"128 -238 CURVE",
"128 -240 OFFCURVE",
"127 -241 OFFCURVE",
"126 -242 CURVE",
"110 -298 OFFCURVE",
"91 -353 OFFCURVE",
"93 -413 CURVE SMOOTH",
"93 -433 OFFCURVE",
"104 -450 OFFCURVE",
"108 -470 CURVE SMOOTH",
"110 -481 OFFCURVE",
"111 -495 OFFCURVE",
"123 -497 CURVE"
);
}
);
width = 347;
}
);
note = uniE4E8;
unicode = E4E8;
},
{
glyphname = uniE260;
lastChange = "2019-03-27 08:45:19 +0000";
layers = (
{
hints = (
{
horizontal = 1;
place = "{-208, 680}";
type = Stem;
},
{
place = "{23, 42}";
type = Stem;
},
{
place = "{165, 44}";
type = Stem;
},
{
horizontal = 1;
place = "{94, 112}";
type = Stem;
},
{
place = "{1, 46}";
type = Stem;
}
);
layerId = "02376AAC-77FF-49DA-9399-294AF7A35492";
paths = (
{
closed = 1;
nodes = (
"23 -208 OFFCURVE",
"27 -206 OFFCURVE",
"32 -201 CURVE",
"45 -190 OFFCURVE",
"60 -179 OFFCURVE",
"74 -169 CURVE SMOOTH",
"162 -106 OFFCURVE",
"209 -21 OFFCURVE",
"209 88 CURVE SMOOTH",
"209 102 OFFCURVE",
"209 115 OFFCURVE",
"207 129 CURVE",
"202 178 OFFCURVE",
"174 206 OFFCURVE",
"132 206 CURVE SMOOTH",
"123 206 OFFCURVE",
"113 204 OFFCURVE",
"102 201 CURVE SMOOTH",
"88 197 OFFCURVE",
"74 190 OFFCURVE",
"60 184 CURVE",
"59 183 LINE",
"59 209 LINE SMOOTH",
"59 247 OFFCURVE",
"61 285 OFFCURVE",
"63 323 CURVE",
"63 345 OFFCURVE",
"65 366 OFFCURVE",
"65 388 CURVE SMOOTH",
"65 409 OFFCURVE",
"63 431 OFFCURVE",
"58 452 CURVE",
"56 459 OFFCURVE",
"56 472 OFFCURVE",
"46 472 CURVE SMOOTH",
"45 472 LINE",
"34 471 OFFCURVE",
"26 462 OFFCURVE",
"26 448 CURVE",
"25 420 OFFCURVE",
"22 391 OFFCURVE",
"23 363 CURVE",
"23 332 LINE SMOOTH",
"23 273 OFFCURVE",
"20 214 OFFCURVE",
"18 155 CURVE SMOOTH",
"15 70 OFFCURVE",
"1 -13 OFFCURVE",
"1 -98 CURVE SMOOTH",
"1 -131 OFFCURVE",
"3 -166 OFFCURVE",
"12 -199 CURVE",
"14 -205 OFFCURVE",
"16 -208 OFFCURVE",
"20 -208 CURVE SMOOTH"
);
},
{
closed = 1;
nodes = (
"49 -47 OFFCURVE",
"50 -20 OFFCURVE",
"53 8 CURVE SMOOTH",
"55 30 OFFCURVE",
"56 52 OFFCURVE",
"56 74 CURVE",
"60 76 LINE",
"79 84 OFFCURVE",
"98 94 OFFCURVE",
"119 94 CURVE SMOOTH",
"126 94 OFFCURVE",
"134 92 OFFCURVE",
"142 89 CURVE SMOOTH",
"158 83 OFFCURVE",
"166 75 OFFCURVE",
"165 64 CURVE",
"165 58 OFFCURVE",
"164 52 OFFCURVE",
"160 44 CURVE SMOOTH",
"134 -7 OFFCURVE",
"92 -41 OFFCURVE",
"47 -73 CURVE"
);
}
);
width = 208;
}
);
note = uniE260;
unicode = E260;
},
{
glyphname = uniE261;
lastChange = "2019-03-27 08:45:22 +0000";
layers = (
{
hints = (
{
horizontal = 1;
place = "{-456, 918}";
type = Stem;
},
{
place = "{12, 38}";
type = Stem;
},
{
place = "{160, 43}";
type = Stem;
},
{
place = "{2, 38}";
type = Stem;
}
);
layerId = "02376AAC-77FF-49DA-9399-294AF7A35492";
paths = (
{
closed = 1;
nodes = (
"188 -456 OFFCURVE",
"191 -442 OFFCURVE",
"195 -433 CURVE",
"196 -427 OFFCURVE",
"198 -422 OFFCURVE",
"198 -416 CURVE SMOOTH",
"200 -347 OFFCURVE",
"201 -278 OFFCURVE",
"203 -208 CURVE SMOOTH",
"203 -176 OFFCURVE",
"201 -144 OFFCURVE",
"201 -112 CURVE SMOOTH",
"203 -45 OFFCURVE",
"206 22 OFFCURVE",
"208 89 CURVE",
"208 89 OFFCURVE",
"210 104 OFFCURVE",
"211 117 CURVE",
"211 120 LINE",
"212 132 LINE",
"212 138 LINE",
"213 156 LINE",
"213 159 OFFCURVE",
"215 171 OFFCURVE",
"211 180 CURVE",
"206 190 OFFCURVE",
"210 212 OFFCURVE",
"189 207 CURVE",
"142 194 OFFCURVE",
"93 189 OFFCURVE",
"44 185 CURVE",
"47 242 OFFCURVE",
"50 300 OFFCURVE",
"50 357 CURVE SMOOTH",
"50 376 OFFCURVE",
"50 394 OFFCURVE",
"49 413 CURVE",
"49 430 OFFCURVE",
"46 446 OFFCURVE",
"39 462 CURVE",
"6 452 OFFCURVE",
"12 422 OFFCURVE",
"12 402 CURVE SMOOTH",
"13 301 OFFCURVE",
"5 201 OFFCURVE",
"2 100 CURVE SMOOTH",
"1 65 OFFCURVE",
"0 30 OFFCURVE",
"0 -5 CURVE SMOOTH",
"0 -35 OFFCURVE",
"1 -64 OFFCURVE",
"2 -93 CURVE SMOOTH",
"2 -113 OFFCURVE",
"5 -133 OFFCURVE",
"5 -152 CURVE SMOOTH",
"5 -169 OFFCURVE",
"12 -174 OFFCURVE",
"24 -174 CURVE SMOOTH",
"27 -174 OFFCURVE",
"30 -174 OFFCURVE",
"34 -173 CURVE",
"155 -155 LINE",
"160 -154 LINE",
"160 -249 LINE SMOOTH",
"160 -285 OFFCURVE",
"155 -322 OFFCURVE",
"155 -358 CURVE SMOOTH",
"155 -382 OFFCURVE",
"157 -406 OFFCURVE",
"164 -430 CURVE SMOOTH",
"167 -440 OFFCURVE",
"164 -456 OFFCURVE",
"177 -456 CURVE SMOOTH"
);
},
{
closed = 1;
nodes = (
"40 -44 LINE",
"39 -10 OFFCURVE",
"37 23 OFFCURVE",
"38 56 CURVE",
"39 69 LINE",
"45 69 OFFCURVE",
"52 68 OFFCURVE",
"59 69 CURVE",
"93 72 OFFCURVE",
"127 74 OFFCURVE",
"161 75 CURVE",
"167 76 LINE",
"164 46 LINE",
"163 20 OFFCURVE",
"161 -7 OFFCURVE",
"161 -33 CURVE",
"121 -44 OFFCURVE",
"80 -51 OFFCURVE",
"40 -56 CURVE"
);
}
);
width = 214;
}
);
note = uniE261;
unicode = E261;
},
{
glyphname = uniE262;
lastChange = "2019-03-27 08:45:26 +0000";
layers = (
{
hints = (
{
horizontal = 1;
place = "{-384, 767}";
type = Stem;
},
{
place = "{115, 42}";
type = Stem;
},
{
place = "{206, 55}";
type = Stem;
},
{
place = "{138, 31}";
type = Stem;
},
{
place = "{214, 53}";
type = Stem;
},
{
place = "{219, 44.5}";
type = Stem;
},
{
place = "{128.5, 41.5}";
type = Stem;
}
);
layerId = "02376AAC-77FF-49DA-9399-294AF7A35492";
paths = (
{
closed = 1;
nodes = (
"148 -383 OFFCURVE",
"150 -372 OFFCURVE",
"152 -365 CURVE SMOOTH",
"156 -352 OFFCURVE",
"157 -339 OFFCURVE",
"157 -327 CURVE SMOOTH",
"157 -316 OFFCURVE",
"156 -306 OFFCURVE",
"156 -295 CURVE SMOOTH",
"156 -288 OFFCURVE",
"156 -279 OFFCURVE",
"157 -272 CURVE",
"159 -252 OFFCURVE",
"161 -232 OFFCURVE",
"162 -212 CURVE",
"206 -203 LINE",
"208 -245 OFFCURVE",
"216 -286 OFFCURVE",
"230 -326 CURVE",
"231 -331 OFFCURVE",
"235 -337 OFFCURVE",
"241 -337 CURVE",
"247 -338 OFFCURVE",
"249 -331 OFFCURVE",
"252 -326 CURVE SMOOTH",
"259 -315 OFFCURVE",
"260 -302 OFFCURVE",
"260 -290 CURVE",
"261 -281 OFFCURVE",
"261 -273 OFFCURVE",
"261 -265 CURVE SMOOTH",
"261 -241 OFFCURVE",
"259 -216 OFFCURVE",
"258 -192 CURVE",
"316 -180 LINE SMOOTH",
"371 -169 OFFCURVE",
"378 -161 OFFCURVE",
"382 -108 CURVE",
"382 -95 OFFCURVE",
"383 -86 OFFCURVE",
"382 -76 CURVE SMOOTH",
"381 -63 OFFCURVE",
"376 -54 OFFCURVE",
"365 -54 CURVE SMOOTH",
"363 -54 LINE SMOOTH",
"359 -54 OFFCURVE",
"356 -54 OFFCURVE",
"352 -55 CURVE SMOOTH",
"329 -61 OFFCURVE",
"304 -66 OFFCURVE",
"280 -70 CURVE SMOOTH",
"263 -73 LINE",
"264 -59 OFFCURVE",
"264 -44 OFFCURVE",
"265 -29 CURVE",
"266 3 OFFCURVE",
"267 35 OFFCURVE",
"267 67 CURVE",
"295 74 OFFCURVE",
"322 82 OFFCURVE",
"349 91 CURVE SMOOTH",
"364 96 OFFCURVE",
"377 104 OFFCURVE",
"381 120 CURVE SMOOTH",
"385 138 OFFCURVE",
"390 155 OFFCURVE",
"390 173 CURVE SMOOTH",
"390 183 OFFCURVE",
"389 194 OFFCURVE",
"385 204 CURVE SMOOTH",
"381 214 OFFCURVE",
"378 219 OFFCURVE",
"372 219 CURVE SMOOTH",
"370 219 LINE SMOOTH",
"367 219 OFFCURVE",
"363 219 OFFCURVE",
"359 217 CURVE",
"328 204 OFFCURVE",
"297 194 OFFCURVE",
"265 185 CURVE",
"262 239 LINE SMOOTH",
"260 282 OFFCURVE",
"258 326 OFFCURVE",
"249 369 CURVE",
"247 374 OFFCURVE",
"248 383 OFFCURVE",
"242 383 CURVE SMOOTH",
"241 383 LINE",
"238 383 LINE",
"230 381 OFFCURVE",
"220 378 OFFCURVE",
"219 367 CURVE",
"219 348 LINE SMOOTH",
"219 289 OFFCURVE",
"221 231 OFFCURVE",
"222 173 CURVE",
"169 161 LINE",
"169 191 OFFCURVE",
"168 221 OFFCURVE",
"166 251 CURVE SMOOTH",
"165 266 OFFCURVE",
"165 280 OFFCURVE",
"157 295 CURVE",
"135 284 OFFCURVE",
"138 265 OFFCURVE",
"138 249 CURVE",
"136 217 OFFCURVE",
"135 186 OFFCURVE",
"134 155 CURVE",
"106 149 OFFCURVE",
"78 145 OFFCURVE",
"50 140 CURVE SMOOTH",
"9 133 OFFCURVE",
"3 127 OFFCURVE",
"3 82 CURVE",
"0 71 OFFCURVE",
"8 58 OFFCURVE",
"7 46 CURVE SMOOTH",
"5 27 OFFCURVE",
"10 21 OFFCURVE",
"23 20 CURVE",
"26 20 OFFCURVE",
"29 21 OFFCURVE",
"33 22 CURVE",
"66 27 OFFCURVE",
"98 32 OFFCURVE",
"130 38 CURVE",
"127 -52 LINE SMOOTH",
"126 -69 OFFCURVE",
"124 -85 OFFCURVE",
"122 -101 CURVE",
"85 -108 OFFCURVE",
"48 -115 OFFCURVE",
"11 -124 CURVE SMOOTH",
"-10 -129 OFFCURVE",
"-22 -137 OFFCURVE",
"-22 -161 CURVE SMOOTH",
"-22 -185 OFFCURVE",
"-13 -207 OFFCURVE",
"-12 -230 CURVE",
"-12 -241 OFFCURVE",
"-9 -246 OFFCURVE",
"-1 -247 CURVE",
"1 -247 OFFCURVE",
"4 -246 OFFCURVE",
"8 -245 CURVE SMOOTH",
"44 -237 OFFCURVE",
"80 -230 OFFCURVE",
"116 -222 CURVE",
"115 -235 OFFCURVE",
"115 -248 OFFCURVE",
"115 -262 CURVE SMOOTH",
"115 -297 OFFCURVE",
"119 -331 OFFCURVE",
"131 -365 CURVE",
"133 -372 OFFCURVE",
"131 -384 OFFCURVE",
"140 -384 CURVE"
);
},
{
closed = 1;
nodes = (
"167 -92 LINE",
"168 -70 OFFCURVE",
"168 -48 OFFCURVE",
"169 -26 CURVE SMOOTH",
"170 -2 OFFCURVE",
"170 21 OFFCURVE",
"170 45 CURVE",
"187 48 OFFCURVE",
"203 51 OFFCURVE",
"219 55 CURVE",
"214 9 OFFCURVE",
"212 -37 OFFCURVE",
"209 -83 CURVE"
);
}
);
width = 380;
}
);
note = uniE262;
unicode = E262;
},
{
glyphname = uniE263;
lastChange = "2019-03-26 15:52:16 +0000";
layers = (
{
hints = (
{
horizontal = 1;
place = "{-159, 318}";
type = Stem;
},
{
place = "{0, 287}";
type = Stem;
}
);
layerId = "02376AAC-77FF-49DA-9399-294AF7A35492";
paths = (
{
closed = 1;
nodes = (
"63 -159 OFFCURVE",
"68 -156 OFFCURVE",
"74 -150 CURVE SMOOTH",
"96 -129 OFFCURVE",
"116 -107 OFFCURVE",
"139 -87 CURVE SMOOTH",
"147 -80 OFFCURVE",
"154 -73 OFFCURVE",
"161 -66 CURVE",
"188 -87 OFFCURVE",
"215 -109 OFFCURVE",
"241 -131 CURVE SMOOTH",
"247 -136 OFFCURVE",
"252 -139 OFFCURVE",
"257 -139 CURVE SMOOTH",
"264 -139 OFFCURVE",
"270 -133 OFFCURVE",
"275 -124 CURVE SMOOTH",
"285 -107 OFFCURVE",
"282 -87 OFFCURVE",
"286 -71 CURVE",
"285 -48 OFFCURVE",
"278 -32 OFFCURVE",
"262 -19 CURVE SMOOTH",
"226 10 LINE",
"243 29 OFFCURVE",
"260 47 OFFCURVE",
"279 63 CURVE",
"285 67 OFFCURVE",
"287 74 OFFCURVE",
"287 88 CURVE",
"284 103 OFFCURVE",
"276 122 OFFCURVE",
"265 139 CURVE",
"257 153 OFFCURVE",
"250 159 OFFCURVE",
"243 159 CURVE SMOOTH",
"236 159 OFFCURVE",
"228 155 OFFCURVE",
"218 146 CURVE",
"208 138 OFFCURVE",
"198 130 OFFCURVE",
"190 121 CURVE SMOOTH",
"175 105 OFFCURVE",
"161 89 OFFCURVE",
"147 72 CURVE",
"120 92 OFFCURVE",
"92 112 OFFCURVE",
"64 130 CURVE",
"60 133 OFFCURVE",
"57 134 OFFCURVE",
"54 134 CURVE SMOOTH",
"52 134 OFFCURVE",
"50 134 OFFCURVE",
"47 132 CURVE",
"43 129 OFFCURVE",
"37 130 OFFCURVE",
"33 124 CURVE",
"30 117 OFFCURVE",
"28 107 OFFCURVE",
"28 95 CURVE SMOOTH",
"28 64 OFFCURVE",
"39 22 OFFCURVE",
"56 11 CURVE SMOOTH",
"62 7 OFFCURVE",
"68 3 OFFCURVE",
"74 -2 CURVE",
"53 -22 OFFCURVE",
"31 -43 OFFCURVE",
"10 -65 CURVE SMOOTH",
"4 -71 OFFCURVE",
"0 -79 OFFCURVE",
"0 -86 CURVE SMOOTH",
"0 -93 OFFCURVE",
"2 -100 OFFCURVE",
"8 -107 CURVE",
"18 -122 OFFCURVE",
"33 -134 OFFCURVE",
"43 -149 CURVE SMOOTH",
"48 -156 OFFCURVE",
"53 -159 OFFCURVE",
"58 -159 CURVE SMOOTH"
);
}
);
width = 287;
}
);
note = uniE263;
unicode = E263;
},
{
glyphname = uniE030;
lastChange = "2019-03-26 16:09:17 +0000";
layers = (
{
hints = (
{
horizontal = 1;
place = "{1, 1024}";
type = Stem;
},
{
place = "{8, 43}";
type = Stem;
}
);
layerId = "02376AAC-77FF-49DA-9399-294AF7A35492";
paths = (
{
closed = 1;
nodes = (
"30 1 LINE",
"41 2 OFFCURVE",
"46 10 OFFCURVE",
"47 21 CURVE SMOOTH",
"48 38 OFFCURVE",
"50 56 OFFCURVE",
"50 73 CURVE SMOOTH",
"50 126 OFFCURVE",
"49 180 OFFCURVE",
"49 233 CURVE SMOOTH",
"49 260 OFFCURVE",
"49 286 OFFCURVE",
"50 313 CURVE SMOOTH",
"51 343 OFFCURVE",
"51 373 OFFCURVE",
"51 403 CURVE SMOOTH",
"51 490 OFFCURVE",
"48 577 OFFCURVE",
"47 664 CURVE",
"47 755 LINE SMOOTH",
"47 815 OFFCURVE",
"46 875 OFFCURVE",
"41 935 CURVE SMOOTH",
"40 947 OFFCURVE",
"41 960 OFFCURVE",
"41 972 CURVE SMOOTH",
"41 986 OFFCURVE",
"40 999 OFFCURVE",
"33 1012 CURVE",
"30 1017 OFFCURVE",
"28 1025 OFFCURVE",
"23 1025 CURVE SMOOTH",
"21 1025 LINE",
"14 1023 OFFCURVE",
"4 1019 OFFCURVE",
"4 1008 CURVE",
"3 1003 OFFCURVE",
"3 997 OFFCURVE",
"3 991 CURVE",
"2 971 OFFCURVE",
"2 951 OFFCURVE",
"2 930 CURVE SMOOTH",
"2 858 OFFCURVE",
"6 786 OFFCURVE",
"7 714 CURVE SMOOTH",
"7 644 OFFCURVE",
"8 574 OFFCURVE",
"8 504 CURVE SMOOTH",
"8 353 OFFCURVE",
"6 202 OFFCURVE",
"0 51 CURVE",
"-1 39 OFFCURVE",
"2 27 OFFCURVE",
"5 15 CURVE",
"8 5 OFFCURVE",
"16 1 OFFCURVE",
"27 1 CURVE SMOOTH"
);
}
);
width = 51;
}
);
note = uniE030;
unicode = E030;
},
{
glyphname = uniE043;
lastChange = "2018-05-24 12:09:50 +0000";
layers = (
{
layerId = "02376AAC-77FF-49DA-9399-294AF7A35492";
paths = (
{
closed = 1;
nodes = (
"91 -98 OFFCURVE",
"71 -77 OFFCURVE",
"46 -77 CURVE SMOOTH",
"20 -77 OFFCURVE",
"0 -98 OFFCURVE",
"0 -123 CURVE SMOOTH",
"0 -148 OFFCURVE",
"20 -169 OFFCURVE",
"46 -169 CURVE SMOOTH",
"71 -169 OFFCURVE",
"91 -148 OFFCURVE",
"91 -123 CURVE SMOOTH"
);
},
{
closed = 1;
nodes = (
"91 118 OFFCURVE",
"71 139 OFFCURVE",
"46 139 CURVE SMOOTH",
"20 139 OFFCURVE",
"0 118 OFFCURVE",
"0 93 CURVE SMOOTH",
"0 68 OFFCURVE",
"20 47 OFFCURVE",
"46 47 CURVE SMOOTH",
"71 47 OFFCURVE",
"91 68 OFFCURVE",
"91 93 CURVE SMOOTH"
);
}
);
width = 91;
}
);
unicode = E043;
},
{
glyphname = uniE1FC;
lastChange = "2019-03-27 08:48:01 +0000";
layers = (
{
hints = (
{
horizontal = 1;
place = "{-37, 103}";
type = Stem;
},
{
place = "{0, 99}";
type = Stem;
}
);
layerId = "02376AAC-77FF-49DA-9399-294AF7A35492";
paths = (
{
closed = 1;
nodes = (
"76 -38 OFFCURVE",
"99 -10 OFFCURVE",
"99 13 CURVE",
"100 37 OFFCURVE",
"68 66 OFFCURVE",
"42 66 CURVE SMOOTH",
"21 66 OFFCURVE",
"1 43 OFFCURVE",
"0 19 CURVE",
"0 -4 OFFCURVE",
"33 -37 OFFCURVE",
"57 -37 CURVE"
);
}
);
width = 99;
}
);
note = uniE1FC;
unicode = E1FC;
},
{
glyphname = uniE4C0;
lastChange = "2019-03-26 17:57:14 +0000";
layers = (
{
hints = (
{
horizontal = 1;
place = "{33, 74}";
type = Stem;
},
{
place = "{0, 472}";
type = Stem;
},
{
place = "{419, 53}";
type = Stem;
}
);
layerId = "02376AAC-77FF-49DA-9399-294AF7A35492";
paths = (
{
closed = 1;
nodes = (
"46 26 OFFCURVE",
"49 51 OFFCURVE",
"54 75 CURVE SMOOTH",
"64 126 OFFCURVE",
"77 175 OFFCURVE",
"113 216 CURVE SMOOTH",
"138 245 OFFCURVE",
"166 272 OFFCURVE",
"197 294 CURVE SMOOTH",
"217 308 OFFCURVE",
"236 315 OFFCURVE",
"259 318 CURVE",
"274 318 OFFCURVE",
"285 310 OFFCURVE",
"301 299 CURVE SMOOTH",
"368 251 OFFCURVE",
"414 192 OFFCURVE",
"419 106 CURVE",
"419 100 OFFCURVE",
"413 91 OFFCURVE",
"413 84 CURVE SMOOTH",
"413 61 LINE",
"414 52 OFFCURVE",
"409 38 OFFCURVE",
"418 35 CURVE",
"430 30 OFFCURVE",
"438 42 OFFCURVE",
"444 51 CURVE SMOOTH",
"448 57 OFFCURVE",
"450 64 OFFCURVE",
"452 71 CURVE SMOOTH",
"458 92 OFFCURVE",
"460 113 OFFCURVE",
"463 135 CURVE SMOOTH",
"466 154 OFFCURVE",
"467 172 OFFCURVE",
"472 193 CURVE",
"472 268 OFFCURVE",
"443 334 OFFCURVE",
"389 394 CURVE SMOOTH",
"353 434 OFFCURVE",
"314 451 OFFCURVE",
"275 454 CURVE",
"253 454 OFFCURVE",
"226 447 OFFCURVE",
"202 439 CURVE SMOOTH",
"163 426 OFFCURVE",
"139 393 OFFCURVE",
"112 365 CURVE SMOOTH",
"59 310 OFFCURVE",
"18 248 OFFCURVE",
"3 173 CURVE",
"0 154 OFFCURVE",
"-2 136 OFFCURVE",
"3 121 CURVE",
"3 86 OFFCURVE",
"3 48 OFFCURVE",
"7 13 CURVE SMOOTH",
"8 4 OFFCURVE",
"11 0 OFFCURVE",
"20 3 CURVE",
"24 3 OFFCURVE",
"23 3 OFFCURVE",
"27 7 CURVE SMOOTH"
);
},
{
closed = 1;
nodes = (
"243 25 OFFCURVE",
"248 25 OFFCURVE",
"257 28 CURVE",
"269 28 OFFCURVE",
"264 30 OFFCURVE",
"264 52 CURVE",
"265 55 OFFCURVE",
"265 59 OFFCURVE",
"270 65 CURVE",
"270 77 OFFCURVE",
"260 85 OFFCURVE",
"247 92 CURVE SMOOTH",
"228 102 OFFCURVE",
"208 108 OFFCURVE",
"187 107 CURVE",
"175 107 OFFCURVE",
"158 109 OFFCURVE",
"156 87 CURVE SMOOTH",
"154 56 OFFCURVE",
"161 39 OFFCURVE",
"181 33 CURVE SMOOTH",
"199 28 OFFCURVE",
"217 28 OFFCURVE",
"235 26 CURVE SMOOTH"
);
}
);
width = 472;
}
);
note = uniE4C0;
unicode = E4C0;
},
{
glyphname = uniE4C1;
lastChange = "2019-03-26 17:57:14 +0000";
layers = (
{
hints = (
{
horizontal = 1;
place = "{-430, 118}";
type = Stem;
},
{
place = "{0, 48}";
type = Stem;
},
{
place = "{187, 115}";
type = Stem;
}
);
layerId = "02376AAC-77FF-49DA-9399-294AF7A35492";
paths = (
{
closed = 1;
nodes = (
"279 -418 OFFCURVE",
"314 -400 OFFCURVE",
"347 -377 CURVE SMOOTH",
"420 -327 OFFCURVE",
"459 -253 OFFCURVE",
"495 -176 CURVE SMOOTH",
"512 -142 OFFCURVE",
"521 -106 OFFCURVE",
"518 -68 CURVE SMOOTH",
"517 -57 OFFCURVE",
"517 -41 OFFCURVE",
"505 -41 CURVE SMOOTH",
"494 -41 OFFCURVE",
"482 -47 OFFCURVE",
"478 -61 CURVE",
"477 -67 OFFCURVE",
"474 -71 OFFCURVE",
"471 -76 CURVE",
"450 -127 OFFCURVE",
"424 -175 OFFCURVE",
"390 -218 CURVE SMOOTH",
"358 -259 OFFCURVE",
"318 -289 OFFCURVE",
"269 -305 CURVE SMOOTH",
"255 -310 OFFCURVE",
"241 -312 OFFCURVE",
"228 -312 CURVE SMOOTH",
"190 -312 OFFCURVE",
"156 -294 OFFCURVE",
"125 -268 CURVE SMOOTH",
"77 -229 OFFCURVE",
"48 -182 OFFCURVE",
"48 -124 CURVE SMOOTH",
"48 -111 OFFCURVE",
"49 -98 OFFCURVE",
"52 -84 CURVE",
"54 -70 OFFCURVE",
"58 -55 OFFCURVE",
"58 -40 CURVE SMOOTH",
"58 -36 OFFCURVE",
"58 -31 OFFCURVE",
"57 -27 CURVE SMOOTH",
"55 -18 OFFCURVE",
"57 -3 OFFCURVE",
"47 -1 CURVE",
"34 0 OFFCURVE",
"23 -8 OFFCURVE",
"18 -22 CURVE",
"17 -27 OFFCURVE",
"15 -31 OFFCURVE",
"14 -36 CURVE SMOOTH",
"6 -74 OFFCURVE",
"-2 -112 OFFCURVE",
"0 -155 CURVE",
"1 -242 OFFCURVE",
"19 -325 OFFCURVE",
"98 -384 CURVE SMOOTH",
"133 -410 OFFCURVE",
"169 -430 OFFCURVE",
"211 -430 CURVE SMOOTH",
"220 -430 OFFCURVE",
"229 -429 OFFCURVE",
"239 -427 CURVE SMOOTH"
);
},
{
closed = 1;
nodes = (
"288 -132 LINE",
"298 -133 OFFCURVE",
"302 -128 OFFCURVE",
"302 -109 CURVE SMOOTH",
"302 -60 OFFCURVE",
"263 -19 OFFCURVE",
"214 -19 CURVE SMOOTH",
"199 -19 OFFCURVE",
"189 -24 OFFCURVE",
"188 -32 CURVE",
"187 -38 OFFCURVE",
"187 -43 OFFCURVE",
"187 -48 CURVE SMOOTH",
"187 -89 OFFCURVE",
"210 -118 OFFCURVE",
"253 -127 CURVE"
);
}
);
width = 519;
}
);
note = uniE4C1;
unicode = E4C1;
},
{
glyphname = uniE8E4;
lastChange = "2019-03-27 08:26:50 +0000";
layers = (
{
layerId = "02376AAC-77FF-49DA-9399-294AF7A35492";
paths = (
{
closed = 1;
nodes = (
"931 498 OFFCURVE",
"914 501 OFFCURVE",
"920 522 CURVE",
"926 540 OFFCURVE",
"939 552 OFFCURVE",
"950 566 CURVE",
"363 522 OFFCURVE",
"0 5 OFFCURVE",
"0 0 CURVE",
"24 0 LINE",
"49 0 OFFCURVE",
"359 381 OFFCURVE",
"925 409 CURVE",
"925 437 OFFCURVE",
"928 466 OFFCURVE",
"942 489 CURVE"
);
}
);
width = 950;
}
);
unicode = E8E4;
},
{
glyphname = uniE8E5;
lastChange = "2019-03-27 08:26:50 +0000";
layers = (
{
layerId = "02376AAC-77FF-49DA-9399-294AF7A35492";
paths = (
{
closed = 1;
nodes = (
"14 526 OFFCURVE",
"33 528 OFFCURVE",
"26 550 CURVE",
"19 570 OFFCURVE",
"6 583 OFFCURVE",
"-6 597 CURVE",
"625 550 OFFCURVE",
"1014 4 OFFCURVE",
"1014 -1 CURVE",
"989 -1 LINE",
"962 -1 OFFCURVE",
"628 402 OFFCURVE",
"21 429 CURVE",
"21 461 OFFCURVE",
"18 491 OFFCURVE",
"2 516 CURVE"
);
}
);
width = 1020;
}
);
unicode = E8E5;
},
{
glyphname = uniF0A0;
lastChange = "2018-05-24 15:38:52 +0000";
layers = (
{
layerId = "02376AAC-77FF-49DA-9399-294AF7A35492";
paths = (
{
closed = 1;
nodes = (
"-1 233 OFFCURVE",
"-7 -68 OFFCURVE",
"7 -368 CURVE",
"7 -382 OFFCURVE",
"32 -382 OFFCURVE",
"32 -368 CURVE",
"41 -112 OFFCURVE",
"70 149 OFFCURVE",
"120 402 CURVE",
"109 402 OFFCURVE",
"104 405 OFFCURVE",
"95 405 CURVE",
"104 210 OFFCURVE",
"109 12 OFFCURVE",
"104 -184 CURVE",
"104 -193 OFFCURVE",
"113 -196 OFFCURVE",
"125 -193 CURVE",
"172 -170 OFFCURVE",
"186 -107 OFFCURVE",
"202 -63 CURVE",
"216 12 OFFCURVE",
"230 82 OFFCURVE",
"239 158 CURVE",
"265 303 OFFCURVE",
"270 454 OFFCURVE",
"258 603 CURVE",
"258 617 OFFCURVE",
"235 617 OFFCURVE",
"235 603 CURVE",
"211 321 OFFCURVE",
"207 39 OFFCURVE",
"216 -244 CURVE",
"216 -258 OFFCURVE",
"235 -261 OFFCURVE",
"239 -249 CURVE",
"298 -14 OFFCURVE",
"332 225 OFFCURVE",
"342 463 CURVE",
"342 477 OFFCURVE",
"318 477 OFFCURVE",
"318 468 CURVE",
"279 303 OFFCURVE",
"246 123 OFFCURVE",
"342 -28 CURVE",
"346 -37 OFFCURVE",
"356 -37 OFFCURVE",
"365 -28 CURVE",
"463 96 OFFCURVE",
"488 263 OFFCURVE",
"428 405 CURVE",
"425 414 OFFCURVE",
"404 419 OFFCURVE",
"404 405 CURVE",
"372 205 OFFCURVE",
"372 -2 OFFCURVE",
"404 -205 CURVE",
"404 -214 OFFCURVE",
"425 -214 OFFCURVE",
"428 -205 CURVE",
"488 -54 OFFCURVE",
"521 105 OFFCURVE",
"518 263 CURVE",
"518 277 OFFCURVE",
"498 277 OFFCURVE",
"498 268 CURVE",
"458 149 OFFCURVE",
"448 30 OFFCURVE",
"472 -89 CURVE",
"472 -98 OFFCURVE",
"491 -103 OFFCURVE",
"491 -95 CURVE",
"570 61 OFFCURVE",
"593 228 OFFCURVE",
"623 396 CURVE",
"612 396 OFFCURVE",
"604 396 OFFCURVE",
"598 396 CURVE",
"593 205 OFFCURVE",
"593 16 OFFCURVE",
"590 -174 CURVE",
"598 -174 OFFCURVE",
"604 -174 OFFCURVE",
"612 -174 CURVE",
"612 -138 OFFCURVE",
"612 -103 OFFCURVE",
"612 -72 CURVE",
"612 -54 OFFCURVE",
"590 -54 OFFCURVE",
"590 -72 CURVE",
"590 -103 OFFCURVE",
"590 -138 OFFCURVE",
"590 -174 CURVE",
"590 -188 OFFCURVE",
"612 -188 OFFCURVE",
"612 -174 CURVE",
"618 16 OFFCURVE",
"618 205 OFFCURVE",
"623 396 CURVE",
"623 410 OFFCURVE",
"598 414 OFFCURVE",
"598 402 CURVE",
"574 237 OFFCURVE",
"546 70 OFFCURVE",
"472 -81 CURVE",
"483 -86 OFFCURVE",
"488 -86 OFFCURVE",
"498 -86 CURVE",
"472 30 OFFCURVE",
"483 149 OFFCURVE",
"518 260 CURVE",
"511 263 OFFCURVE",
"502 263 OFFCURVE",
"491 263 CURVE",
"498 105 OFFCURVE",
"463 -51 OFFCURVE",
"404 -196 CURVE",
"416 -196 OFFCURVE",
"419 -196 OFFCURVE",
"428 -196 CURVE",
"395 -2 OFFCURVE",
"395 202 OFFCURVE",
"428 402 CURVE",
"419 402 OFFCURVE",
"416 402 OFFCURVE",
"404 402 CURVE",
"458 263 OFFCURVE",
"439 105 OFFCURVE",
"342 -19 CURVE",
"353 -19 OFFCURVE",
"356 -19 OFFCURVE",
"365 -19 CURVE",
"270 128 OFFCURVE",
"302 303 OFFCURVE",
"342 459 CURVE",
"332 463 OFFCURVE",
"321 463 OFFCURVE",
"318 463 CURVE",
"309 225 OFFCURVE",
"274 -10 OFFCURVE",
"216 -238 CURVE",
"221 -244 OFFCURVE",
"230 -244 OFFCURVE",
"239 -244 CURVE",
"230 39 OFFCURVE",
"235 321 OFFCURVE",
"258 603 CURVE",
"255 603 OFFCURVE",
"246 603 OFFCURVE",
"235 603 CURVE",
"246 468 OFFCURVE",
"239 326 OFFCURVE",
"221 188 CURVE",
"211 119 OFFCURVE",
"202 53 OFFCURVE",
"186 -19 CURVE",
"172 -68 OFFCURVE",
"167 -147 OFFCURVE",
"109 -174 CURVE",
"113 -174 OFFCURVE",
"120 -179 OFFCURVE",
"128 -184 CURVE",
"134 12 OFFCURVE",
"128 210 OFFCURVE",
"120 405 CURVE",
"120 414 OFFCURVE",
"100 419 OFFCURVE",
"95 410 CURVE",
"46 149 OFFCURVE",
"18 -107 OFFCURVE",
"7 -368 CURVE",
"18 -368 OFFCURVE",
"27 -368 OFFCURVE",
"32 -368 CURVE",
"18 -68 OFFCURVE",
"21 233 OFFCURVE",
"53 528 CURVE",
"56 542 OFFCURVE",
"32 542 OFFCURVE",
"27 528 CURVE"
);
},
{
closed = 1;
nodes = (
"158 402 OFFCURVE",
"249 277 OFFCURVE",
"353 158 CURVE",
"458 35 OFFCURVE",
"565 -95 OFFCURVE",
"672 -217 CURVE",
"681 -226 OFFCURVE",
"700 -214 OFFCURVE",
"691 -202 CURVE",
"584 -77 OFFCURVE",
"472 47 OFFCURVE",
"365 175 CURVE",
"270 295 OFFCURVE",
"176 414 OFFCURVE",
"109 551 CURVE",
"104 565 OFFCURVE",
"85 556 OFFCURVE",
"90 542 CURVE"
);
},
{
closed = 1;
nodes = (
"518 459 OFFCURVE",
"391 344 OFFCURVE",
"284 210 CURVE",
"176 82 OFFCURVE",
"90 -60 OFFCURVE",
"32 -210 CURVE",
"27 -221 OFFCURVE",
"53 -230 OFFCURVE",
"56 -217 CURVE",
"113 -63 OFFCURVE",
"202 79 OFFCURVE",
"309 205 CURVE",
"416 335 OFFCURVE",
"535 451 OFFCURVE",
"633 586 CURVE",
"644 600 OFFCURVE",
"618 609 OFFCURVE",
"612 595 CURVE"
);
}
);
width = 693;
}
);
unicode = F0A0;
},
{
glyphname = uniF0A6;
lastChange = "2018-05-24 15:49:04 +0000";
layers = (
{
layerId = "02376AAC-77FF-49DA-9399-294AF7A35492";
paths = (
{
closed = 1;
nodes = (
"308 -397 OFFCURVE",
"301 -400 OFFCURVE",
"294 -403 CURVE",
"289 -405 OFFCURVE",
"285 -406 OFFCURVE",
"280 -407 CURVE",
"278 -397 OFFCURVE",
"279 -387 OFFCURVE",
"274 -382 CURVE",
"269 -377 OFFCURVE",
"259 -377 OFFCURVE",
"250 -374 CURVE",
"249 -383 OFFCURVE",
"248 -389 OFFCURVE",
"248 -394 CURVE",
"238 -396 OFFCURVE",
"238 -395 OFFCURVE",
"231 -377 CURVE",
"226 -376 OFFCURVE",
"221 -376 OFFCURVE",
"213 -375 CURVE",
"214 -368 OFFCURVE",
"215 -361 OFFCURVE",
"217 -355 CURVE",
"221 -346 OFFCURVE",
"217 -338 OFFCURVE",
"207 -336 CURVE",
"207 -336 OFFCURVE",
"206 -336 OFFCURVE",
"206 -336 CURVE",
"197 -328 OFFCURVE",
"189 -323 OFFCURVE",
"177 -331 CURVE",
"176 -331 OFFCURVE",
"172 -327 OFFCURVE",
"169 -324 CURVE",
"184 -312 OFFCURVE",
"170 -304 OFFCURVE",
"164 -299 CURVE",
"157 -293 OFFCURVE",
"146 -292 OFFCURVE",
"135 -288 CURVE",
"136 -278 OFFCURVE",
"148 -266 OFFCURVE",
"135 -255 CURVE",
"156 -234 OFFCURVE",
"151 -211 OFFCURVE",
"146 -187 CURVE",
"145 -185 OFFCURVE",
"145 -184 OFFCURVE",
"145 -182 CURVE",
"145 -175 OFFCURVE",
"166 -163 OFFCURVE",
"173 -166 CURVE",
"175 -157 OFFCURVE",
"176 -148 OFFCURVE",
"178 -139 CURVE",
"158 -142 OFFCURVE",
"140 -146 OFFCURVE",
"120 -150 CURVE",
"113 -143 OFFCURVE",
"113 -139 OFFCURVE",
"123 -133 CURVE",
"127 -131 OFFCURVE",
"131 -127 OFFCURVE",
"134 -123 CURVE",
"129 -120 OFFCURVE",
"123 -115 OFFCURVE",
"117 -114 CURVE",
"109 -112 OFFCURVE",
"100 -114 OFFCURVE",
"90 -114 CURVE",
"96 -103 OFFCURVE",
"114 -99 OFFCURVE",
"126 -105 CURVE",
"139 -110 OFFCURVE",
"171 -99 OFFCURVE",
"177 -87 CURVE",
"182 -79 OFFCURVE",
"177 -69 OFFCURVE",
"169 -64 CURVE",
"159 -58 OFFCURVE",
"148 -52 OFFCURVE",
"149 -37 CURVE",
"140 -32 OFFCURVE",
"137 -24 OFFCURVE",
"141 -15 CURVE",
"149 2 OFFCURVE",
"146 10 OFFCURVE",
"129 15 CURVE",
"126 16 OFFCURVE",
"123 20 OFFCURVE",
"120 22 CURVE",
"120 23 OFFCURVE",
"120 24 OFFCURVE",
"120 26 CURVE",
"126 27 OFFCURVE",
"133 31 OFFCURVE",
"138 29 CURVE",
"144 26 OFFCURVE",
"148 23 OFFCURVE",
"151 30 CURVE",
"154 36 OFFCURVE",
"155 44 OFFCURVE",
"153 49 CURVE",
"144 65 OFFCURVE",
"125 66 OFFCURVE",
"110 74 CURVE",
"109 75 OFFCURVE",
"105 72 OFFCURVE",
"102 70 CURVE",
"104 72 OFFCURVE",
"106 75 OFFCURVE",
"108 77 CURVE",
"103 82 OFFCURVE",
"98 88 OFFCURVE",
"93 94 CURVE",
"91 91 OFFCURVE",
"89 89 OFFCURVE",
"87 87 CURVE",
"84 95 OFFCURVE",
"80 102 OFFCURVE",
"77 110 CURVE",
"74 117 OFFCURVE",
"72 123 OFFCURVE",
"70 130 CURVE",
"68 139 OFFCURVE",
"58 144 OFFCURVE",
"49 140 CURVE",
"40 135 OFFCURVE",
"31 129 OFFCURVE",
"22 125 CURVE",
"16 123 OFFCURVE",
"8 124 OFFCURVE",
"0 124 CURVE",
"9 136 OFFCURVE",
"9 136 OFFCURVE",
"52 153 CURVE",
"47 160 OFFCURVE",
"44 170 OFFCURVE",
"38 171 CURVE",
"30 173 OFFCURVE",
"21 168 OFFCURVE",
"12 165 CURVE",
"11 166 OFFCURVE",
"8 168 OFFCURVE",
"3 172 CURVE",
"10 175 OFFCURVE",
"15 176 OFFCURVE",
"19 179 CURVE",
"23 182 OFFCURVE",
"30 187 OFFCURVE",
"30 191 CURVE",
"29 195 OFFCURVE",
"23 199 OFFCURVE",
"18 203 CURVE",
"16 205 OFFCURVE",
"13 206 OFFCURVE",
"11 208 CURVE",
"13 209 OFFCURVE",
"15 212 OFFCURVE",
"17 213 CURVE",
"22 217 OFFCURVE",
"22 225 OFFCURVE",
"16 228 CURVE",
"14 229 OFFCURVE",
"12 230 OFFCURVE",
"10 231 CURVE",
"7 234 OFFCURVE",
"4 237 OFFCURVE",
"1 240 CURVE",
"5 242 OFFCURVE",
"9 243 OFFCURVE",
"15 246 CURVE",
"25 258 OFFCURVE",
"13 268 OFFCURVE",
"7 278 CURVE",
"-1 291 OFFCURVE",
"-1 292 OFFCURVE",
"12 298 CURVE",
"20 302 OFFCURVE",
"20 310 OFFCURVE",
"23 318 CURVE",
"27 331 OFFCURVE",
"19 336 OFFCURVE",
"12 343 CURVE",
"11 345 OFFCURVE",
"11 348 OFFCURVE",
"11 350 CURVE",
"12 351 OFFCURVE",
"13 352 OFFCURVE",
"14 351 CURVE",
"34 346 OFFCURVE",
"38 362 OFFCURVE",
"45 375 CURVE",
"48 382 OFFCURVE",
"48 389 OFFCURVE",
"50 396 CURVE",
"51 399 OFFCURVE",
"53 402 OFFCURVE",
"55 404 CURVE",
"63 413 OFFCURVE",
"75 421 OFFCURVE",
"65 436 CURVE",
"64 438 OFFCURVE",
"66 443 OFFCURVE",
"66 446 CURVE",
"67 446 OFFCURVE",
"68 447 OFFCURVE",
"70 448 CURVE",
"74 441 OFFCURVE",
"78 434 OFFCURVE",
"81 428 CURVE",
"103 450 OFFCURVE",
"125 472 OFFCURVE",
"148 495 CURVE",
"153 491 OFFCURVE",
"159 487 OFFCURVE",
"165 483 CURVE",
"172 479 OFFCURVE",
"183 482 OFFCURVE",
"183 490 CURVE",
"183 497 OFFCURVE",
"180 505 OFFCURVE",
"178 513 CURVE",
"178 517 OFFCURVE",
"177 522 OFFCURVE",
"177 526 CURVE",
"178 528 OFFCURVE",
"183 530 OFFCURVE",
"185 530 CURVE",
"187 530 OFFCURVE",
"190 525 OFFCURVE",
"189 523 CURVE",
"189 510 OFFCURVE",
"202 506 OFFCURVE",
"207 497 CURVE",
"208 496 OFFCURVE",
"220 499 OFFCURVE",
"223 503 CURVE",
"230 511 OFFCURVE",
"235 513 OFFCURVE",
"243 505 CURVE",
"247 501 OFFCURVE",
"256 500 OFFCURVE",
"261 502 CURVE",
"272 506 OFFCURVE",
"282 512 OFFCURVE",
"293 517 CURVE",
"293 525 OFFCURVE",
"293 531 OFFCURVE",
"293 540 CURVE",
"297 539 OFFCURVE",
"302 538 OFFCURVE",
"302 537 CURVE",
"302 532 OFFCURVE",
"303 525 OFFCURVE",
"300 520 CURVE",
"294 506 OFFCURVE",
"295 500 OFFCURVE",
"308 494 CURVE",
"312 492 OFFCURVE",
"317 494 OFFCURVE",
"323 494 CURVE",
"316 501 OFFCURVE",
"312 505 OFFCURVE",
"309 510 CURVE",
"308 511 OFFCURVE",
"311 516 OFFCURVE",
"314 519 CURVE",
"314 520 OFFCURVE",
"317 521 OFFCURVE",
"318 521 CURVE",
"325 517 OFFCURVE",
"331 510 OFFCURVE",
"340 515 CURVE",
"341 510 OFFCURVE",
"342 505 OFFCURVE",
"341 501 CURVE",
"341 498 OFFCURVE",
"337 496 OFFCURVE",
"335 493 CURVE",
"343 477 OFFCURVE",
"346 476 OFFCURVE",
"369 477 CURVE",
"375 484 OFFCURVE",
"375 500 OFFCURVE",
"391 495 CURVE",
"387 484 OFFCURVE",
"384 474 OFFCURVE",
"380 461 CURVE",
"392 462 OFFCURVE",
"399 461 OFFCURVE",
"406 463 CURVE",
"414 465 OFFCURVE",
"416 462 OFFCURVE",
"417 456 CURVE",
"417 452 OFFCURVE",
"417 449 OFFCURVE",
"417 446 CURVE",
"417 428 OFFCURVE",
"425 420 OFFCURVE",
"442 416 CURVE",
"454 413 OFFCURVE",
"465 406 OFFCURVE",
"476 401 CURVE",
"475 398 OFFCURVE",
"475 397 OFFCURVE",
"475 397 CURVE",
"458 381 OFFCURVE",
"458 378 OFFCURVE",
"474 362 CURVE",
"480 356 OFFCURVE",
"483 350 OFFCURVE",
"483 340 CURVE",
"484 334 OFFCURVE",
"494 327 OFFCURVE",
"501 323 CURVE",
"508 319 OFFCURVE",
"507 317 OFFCURVE",
"503 311 CURVE",
"500 307 OFFCURVE",
"498 302 OFFCURVE",
"495 296 CURVE",
"504 292 OFFCURVE",
"514 291 OFFCURVE",
"511 278 CURVE",
"505 278 OFFCURVE",
"499 278 OFFCURVE",
"490 277 CURVE",
"497 265 OFFCURVE",
"506 253 OFFCURVE",
"493 239 CURVE",
"479 240 OFFCURVE",
"480 224 OFFCURVE",
"479 216 CURVE",
"478 208 OFFCURVE",
"485 196 OFFCURVE",
"499 198 CURVE",
"498 193 OFFCURVE",
"497 188 OFFCURVE",
"495 182 CURVE",
"489 184 OFFCURVE",
"484 185 OFFCURVE",
"476 188 CURVE",
"475 183 OFFCURVE",
"474 178 OFFCURVE",
"475 173 CURVE",
"476 168 OFFCURVE",
"480 163 OFFCURVE",
"483 157 CURVE",
"475 153 OFFCURVE",
"469 150 OFFCURVE",
"462 147 CURVE",
"464 138 OFFCURVE",
"466 130 OFFCURVE",
"468 119 CURVE",
"480 128 OFFCURVE",
"491 137 OFFCURVE",
"503 144 CURVE",
"511 149 OFFCURVE",
"521 153 OFFCURVE",
"531 154 CURVE",
"542 157 OFFCURVE",
"558 171 OFFCURVE",
"561 183 CURVE",
"564 191 OFFCURVE",
"571 197 OFFCURVE",
"575 205 CURVE",
"581 216 OFFCURVE",
"577 232 OFFCURVE",
"570 241 CURVE",
"561 252 OFFCURVE",
"554 263 OFFCURVE",
"546 274 CURVE",
"536 287 OFFCURVE",
"544 296 OFFCURVE",
"551 305 CURVE",
"553 307 OFFCURVE",
"555 309 OFFCURVE",
"558 312 CURVE",
"560 311 OFFCURVE",
"562 308 OFFCURVE",
"564 308 CURVE",
"578 309 OFFCURVE",
"584 304 OFFCURVE",
"588 291 CURVE",
"591 280 OFFCURVE",
"592 271 OFFCURVE",
"587 260 CURVE",
"578 239 OFFCURVE",
"581 216 OFFCURVE",
"595 207 CURVE",
"604 201 OFFCURVE",
"614 196 OFFCURVE",
"624 190 CURVE",
"626 189 OFFCURVE",
"629 190 OFFCURVE",
"631 191 CURVE",
"636 192 OFFCURVE",
"642 194 OFFCURVE",
"648 193 CURVE",
"666 190 OFFCURVE",
"678 200 OFFCURVE",
"690 212 CURVE",
"691 214 OFFCURVE",
"693 216 OFFCURVE",
"694 218 CURVE",
"699 241 OFFCURVE",
"715 239 OFFCURVE",
"730 229 CURVE",
"739 222 OFFCURVE",
"745 222 OFFCURVE",
"753 230 CURVE",
"768 244 OFFCURVE",
"785 256 OFFCURVE",
"801 268 CURVE",
"802 269 OFFCURVE",
"805 268 OFFCURVE",
"808 268 CURVE",
"808 267 OFFCURVE",
"809 266 OFFCURVE",
"810 265 CURVE",
"793 250 OFFCURVE",
"777 236 OFFCURVE",
"761 222 CURVE",
"750 213 OFFCURVE",
"739 203 OFFCURVE",
"728 195 CURVE",
"718 187 OFFCURVE",
"706 180 OFFCURVE",
"696 172 CURVE",
"686 163 OFFCURVE",
"678 153 OFFCURVE",
"669 143 CURVE",
"661 134 OFFCURVE",
"653 125 OFFCURVE",
"644 115 CURVE",
"634 103 OFFCURVE",
"623 91 OFFCURVE",
"612 79 CURVE",
"611 77 OFFCURVE",
"610 74 OFFCURVE",
"610 71 CURVE",
"609 69 OFFCURVE",
"610 65 OFFCURVE",
"609 64 CURVE",
"591 51 OFFCURVE",
"611 47 OFFCURVE",
"613 37 CURVE",
"605 22 OFFCURVE",
"610 0 OFFCURVE",
"627 -8 CURVE",
"630 -9 OFFCURVE",
"635 -6 OFFCURVE",
"639 -4 CURVE",
"640 -4 OFFCURVE",
"641 0 OFFCURVE",
"642 0 CURVE",
"660 -1 OFFCURVE",
"661 18 OFFCURVE",
"671 26 CURVE",
"679 32 OFFCURVE",
"681 45 OFFCURVE",
"686 56 CURVE",
"689 51 OFFCURVE",
"692 47 OFFCURVE",
"694 44 CURVE",
"697 36 OFFCURVE",
"694 28 OFFCURVE",
"686 25 CURVE",
"666 18 OFFCURVE",
"660 -8 OFFCURVE",
"666 -24 CURVE",
"668 -28 OFFCURVE",
"663 -37 OFFCURVE",
"661 -37 CURVE",
"650 -36 OFFCURVE",
"649 -43 OFFCURVE",
"650 -50 CURVE",
"653 -61 OFFCURVE",
"664 -68 OFFCURVE",
"672 -62 CURVE",
"681 -56 OFFCURVE",
"684 -60 OFFCURVE",
"690 -66 CURVE",
"684 -71 OFFCURVE",
"679 -76 OFFCURVE",
"684 -85 CURVE",
"685 -86 OFFCURVE",
"682 -92 OFFCURVE",
"679 -94 CURVE",
"667 -103 OFFCURVE",
"666 -106 OFFCURVE",
"677 -118 CURVE",
"690 -131 OFFCURVE",
"693 -146 OFFCURVE",
"687 -164 CURVE",
"685 -171 OFFCURVE",
"685 -180 OFFCURVE",
"685 -188 CURVE",
"683 -219 OFFCURVE",
"681 -250 OFFCURVE",
"680 -280 CURVE",
"679 -284 OFFCURVE",
"679 -287 OFFCURVE",
"679 -291 CURVE",
"668 -291 OFFCURVE",
"657 -292 OFFCURVE",
"654 -305 CURVE",
"653 -305 OFFCURVE",
"645 -314 OFFCURVE",
"637 -308 CURVE",
"631 -303 OFFCURVE",
"619 -310 OFFCURVE",
"615 -320 CURVE",
"613 -325 OFFCURVE",
"606 -331 OFFCURVE",
"613 -338 CURVE",
"614 -339 OFFCURVE",
"610 -346 OFFCURVE",
"607 -350 CURVE",
"606 -350 OFFCURVE",
"601 -349 OFFCURVE",
"599 -347 CURVE",
"587 -342 OFFCURVE",
"569 -352 OFFCURVE",
"566 -365 CURVE",
"565 -369 OFFCURVE",
"562 -372 OFFCURVE",
"562 -373 CURVE",
"549 -373 OFFCURVE",
"536 -369 OFFCURVE",
"527 -374 CURVE",
"519 -378 OFFCURVE",
"516 -391 OFFCURVE",
"511 -399 CURVE",
"504 -394 OFFCURVE",
"495 -385 OFFCURVE",
"491 -387 CURVE",
"483 -392 OFFCURVE",
"470 -389 OFFCURVE",
"465 -403 CURVE",
"462 -411 OFFCURVE",
"447 -415 OFFCURVE",
"437 -421 CURVE",
"435 -422 OFFCURVE",
"432 -424 OFFCURVE",
"432 -426 CURVE",
"433 -436 OFFCURVE",
"425 -439 OFFCURVE",
"418 -442 CURVE",
"406 -447 OFFCURVE",
"395 -442 OFFCURVE",
"392 -431 CURVE",
"389 -424 OFFCURVE",
"386 -412 OFFCURVE",
"382 -412 CURVE",
"370 -410 OFFCURVE",
"357 -411 OFFCURVE",
"344 -414 CURVE",
"340 -415 OFFCURVE",
"339 -425 OFFCURVE",
"335 -434 CURVE",
"344 -434 OFFCURVE",
"350 -434 OFFCURVE",
"357 -434 CURVE",
"357 -431 OFFCURVE",
"357 -427 OFFCURVE",
"358 -425 CURVE",
"360 -421 OFFCURVE",
"363 -416 OFFCURVE",
"367 -415 CURVE",
"369 -415 OFFCURVE",
"375 -418 OFFCURVE",
"376 -421 CURVE",
"377 -424 OFFCURVE",
"375 -428 OFFCURVE",
"373 -432 CURVE",
"370 -439 OFFCURVE",
"366 -445 OFFCURVE",
"364 -453 CURVE",
"360 -464 OFFCURVE",
"352 -469 OFFCURVE",
"342 -472 CURVE",
"340 -472 OFFCURVE",
"334 -470 OFFCURVE",
"334 -469 CURVE",
"333 -455 OFFCURVE",
"317 -446 OFFCURVE",
"322 -430 CURVE",
"324 -426 OFFCURVE",
"326 -423 OFFCURVE",
"326 -419 CURVE",
"326 -415 OFFCURVE",
"324 -410 OFFCURVE",
"322 -406 CURVE",
"320 -403 OFFCURVE",
"318 -400 OFFCURVE",
"314 -394 CURVE"
);
},
{
closed = 1;
nodes = (
"891 124 OFFCURVE",
"885 125 OFFCURVE",
"880 127 CURVE",
"869 132 OFFCURVE",
"869 144 OFFCURVE",
"879 151 CURVE",
"889 158 OFFCURVE",
"899 167 OFFCURVE",
"914 164 CURVE",
"923 162 OFFCURVE",
"927 159 OFFCURVE",
"928 150 CURVE",
"928 136 OFFCURVE",
"914 124 OFFCURVE",
"897 122 CURVE"
);
},
{
closed = 1;
nodes = (
"936 120 OFFCURVE",
"941 121 OFFCURVE",
"944 119 CURVE",
"949 117 OFFCURVE",
"955 113 OFFCURVE",
"957 108 CURVE",
"959 102 OFFCURVE",
"956 97 OFFCURVE",
"948 94 CURVE",
"937 91 OFFCURVE",
"927 82 OFFCURVE",
"914 85 CURVE",
"903 86 OFFCURVE",
"892 102 OFFCURVE",
"899 108 CURVE",
"904 114 OFFCURVE",
"912 117 OFFCURVE",
"920 119 CURVE",
"923 121 OFFCURVE",
"928 120 OFFCURVE",
"932 120 CURVE",
"932 120 OFFCURVE",
"932 120 OFFCURVE",
"932 120 CURVE"
);
},
{
closed = 1;
nodes = (
"784 148 OFFCURVE",
"762 119 OFFCURVE",
"755 119 CURVE",
"750 119 OFFCURVE",
"743 122 OFFCURVE",
"741 126 CURVE",
"738 129 OFFCURVE",
"738 138 OFFCURVE",
"741 141 CURVE",
"750 151 OFFCURVE",
"760 160 OFFCURVE",
"771 168 CURVE",
"776 172 OFFCURVE",
"784 163 OFFCURVE",
"784 156 CURVE"
);
},
{
closed = 1;
nodes = (
"802 -38 OFFCURVE",
"808 -25 OFFCURVE",
"812 -12 CURVE",
"815 -2 OFFCURVE",
"822 -3 OFFCURVE",
"827 -6 CURVE",
"831 -8 OFFCURVE",
"833 -16 OFFCURVE",
"832 -21 CURVE",
"831 -28 OFFCURVE",
"826 -35 OFFCURVE",
"823 -42 CURVE",
"819 -53 OFFCURVE",
"810 -55 OFFCURVE",
"797 -54 CURVE"
);
},
{
closed = 1;
nodes = (
"862 310 OFFCURVE",
"903 347 OFFCURVE",
"923 346 CURVE",
"903 328 OFFCURVE",
"884 310 OFFCURVE",
"864 290 CURVE"
);
},
{
closed = 1;
nodes = (
"572 -399 OFFCURVE",
"580 -388 OFFCURVE",
"590 -373 CURVE",
"592 -382 OFFCURVE",
"597 -389 OFFCURVE",
"595 -393 CURVE",
"590 -401 OFFCURVE",
"583 -409 OFFCURVE",
"575 -415 CURVE",
"573 -417 OFFCURVE",
"566 -414 OFFCURVE",
"563 -413 CURVE"
);
},
{
closed = 1;
nodes = (
"826 330 OFFCURVE",
"827 342 OFFCURVE",
"842 347 CURVE",
"845 348 OFFCURVE",
"852 343 OFFCURVE",
"852 342 CURVE",
"849 333 OFFCURVE",
"846 325 OFFCURVE",
"842 315 CURVE"
);
},
{
closed = 1;
nodes = (
"104 -271 OFFCURVE",
"98 -273 OFFCURVE",
"93 -271 CURVE",
"88 -269 OFFCURVE",
"84 -265 OFFCURVE",
"80 -261 CURVE",
"84 -258 OFFCURVE",
"88 -253 OFFCURVE",
"93 -252 CURVE",
"101 -250 OFFCURVE",
"110 -261 OFFCURVE",
"109 -271 CURVE"
);
},
{
closed = 1;
nodes = (
"681 80 OFFCURVE",
"673 80 OFFCURVE",
"666 80 CURVE",
"664 94 OFFCURVE",
"669 97 OFFCURVE",
"689 94 CURVE",
"689 90 OFFCURVE",
"689 86 OFFCURVE",
"690 80 CURVE"
);
},
{
closed = 1;
nodes = (
"96 -171 OFFCURVE",
"81 -183 OFFCURVE",
"64 -181 CURVE",
"75 -172 OFFCURVE",
"83 -164 OFFCURVE",
"94 -155 CURVE"
);
},
{
closed = 1;
nodes = (
"656 72 OFFCURVE",
"660 70 OFFCURVE",
"664 68 CURVE",
"664 64 OFFCURVE",
"664 60 OFFCURVE",
"664 56 CURVE",
"644 53 OFFCURVE",
"644 54 OFFCURVE",
"651 74 CURVE"
);
},
{
closed = 1;
nodes = (
"145 568 OFFCURVE",
"149 574 OFFCURVE",
"157 566 CURVE",
"163 560 OFFCURVE",
"160 556 OFFCURVE",
"155 552 CURVE",
"150 548 OFFCURVE",
"150 548 OFFCURVE",
"140 563 CURVE"
);
},
{
closed = 1;
nodes = (
"911 465 OFFCURVE",
"922 481 OFFCURVE",
"932 480 CURVE",
"927 470 OFFCURVE",
"922 461 OFFCURVE",
"915 449 CURVE"
);
},
{
closed = 1;
nodes = (
"775 396 OFFCURVE",
"780 394 OFFCURVE",
"784 391 CURVE",
"780 388 OFFCURVE",
"777 385 OFFCURVE",
"773 381 CURVE",
"771 385 OFFCURVE",
"769 389 OFFCURVE",
"766 393 CURVE",
"768 395 OFFCURVE",
"769 397 OFFCURVE",
"771 398 CURVE"
);
},
{
closed = 1;
nodes = (
"987 383 OFFCURVE",
"980 377 OFFCURVE",
"973 370 CURVE",
"971 383 OFFCURVE",
"980 392 OFFCURVE",
"994 389 CURVE"
);
},
{
closed = 1;
nodes = (
"526 220 OFFCURVE",
"526 226 OFFCURVE",
"526 232 CURVE",
"527 233 OFFCURVE",
"528 233 OFFCURVE",
"529 234 CURVE",
"532 231 OFFCURVE",
"537 228 OFFCURVE",
"537 226 CURVE",
"536 221 OFFCURVE",
"540 210 OFFCURVE",
"526 214 CURVE"
);
},
{
closed = 1;
nodes = (
"709 -54 OFFCURVE",
"707 -57 OFFCURVE",
"705 -59 CURVE",
"703 -57 OFFCURVE",
"700 -54 OFFCURVE",
"700 -52 CURVE",
"700 -49 OFFCURVE",
"702 -46 OFFCURVE",
"704 -44 CURVE",
"706 -46 OFFCURVE",
"708 -48 OFFCURVE",
"712 -51 CURVE"
);
}
);
width = 994;
}
);
unicode = F0A6;
},
{
glyphname = uniF0A7;
lastChange = "2018-05-24 15:48:23 +0000";
layers = (
{
layerId = "02376AAC-77FF-49DA-9399-294AF7A35492";
paths = (
{
closed = 1;
nodes = (
"166 -83 OFFCURVE",
"196 -70 OFFCURVE",
"223 -63 CURVE",
"243 -58 OFFCURVE",
"263 -55 OFFCURVE",
"283 -53 CURVE",
"312 -53 OFFCURVE",
"335 -68 OFFCURVE",
"347 -95 CURVE",
"354 -112 OFFCURVE",
"359 -130 OFFCURVE",
"364 -147 CURVE",
"367 -152 OFFCURVE",
"367 -154 OFFCURVE",
"369 -162 CURVE",
"374 -154 OFFCURVE",
"382 -149 OFFCURVE",
"384 -144 CURVE",
"389 -130 OFFCURVE",
"394 -112 OFFCURVE",
"402 -97 CURVE",
"404 -90 OFFCURVE",
"411 -83 OFFCURVE",
"416 -75 CURVE",
"424 -85 OFFCURVE",
"431 -92 OFFCURVE",
"436 -100 CURVE",
"461 -132 OFFCURVE",
"488 -137 OFFCURVE",
"520 -115 CURVE",
"535 -105 OFFCURVE",
"545 -95 OFFCURVE",
"558 -85 CURVE",
"600 -53 OFFCURVE",
"644 -33 OFFCURVE",
"699 -60 CURVE",
"701 -53 OFFCURVE",
"704 -45 OFFCURVE",
"704 -36 CURVE",
"714 -6 OFFCURVE",
"731 19 OFFCURVE",
"753 41 CURVE",
"766 56 OFFCURVE",
"778 69 OFFCURVE",
"790 83 CURVE",
"793 88 OFFCURVE",
"798 93 OFFCURVE",
"800 101 CURVE",
"813 126 OFFCURVE",
"810 128 OFFCURVE",
"790 148 CURVE",
"768 173 OFFCURVE",
"743 195 OFFCURVE",
"721 222 CURVE",
"691 254 OFFCURVE",
"684 291 OFFCURVE",
"691 334 CURVE",
"694 351 OFFCURVE",
"696 366 OFFCURVE",
"701 381 CURVE",
"706 408 OFFCURVE",
"719 433 OFFCURVE",
"738 450 CURVE",
"743 455 OFFCURVE",
"746 460 OFFCURVE",
"748 465 CURVE",
"756 480 OFFCURVE",
"751 487 OFFCURVE",
"736 490 CURVE",
"726 490 OFFCURVE",
"714 490 OFFCURVE",
"704 490 CURVE",
"672 490 OFFCURVE",
"637 490 OFFCURVE",
"605 492 CURVE",
"577 492 OFFCURVE",
"555 502 OFFCURVE",
"540 527 CURVE",
"508 507 OFFCURVE",
"473 500 OFFCURVE",
"439 504 CURVE",
"409 509 OFFCURVE",
"382 517 OFFCURVE",
"352 522 CURVE",
"317 529 OFFCURVE",
"285 537 OFFCURVE",
"250 529 CURVE",
"236 527 OFFCURVE",
"231 519 OFFCURVE",
"238 507 CURVE",
"243 497 OFFCURVE",
"248 487 OFFCURVE",
"253 477 CURVE",
"265 452 OFFCURVE",
"260 438 OFFCURVE",
"233 433 CURVE",
"203 428 OFFCURVE",
"171 428 OFFCURVE",
"139 428 CURVE",
"119 425 OFFCURVE",
"97 428 OFFCURVE",
"80 430 CURVE",
"92 420 OFFCURVE",
"109 410 OFFCURVE",
"122 398 CURVE",
"146 371 OFFCURVE",
"144 336 OFFCURVE",
"134 304 CURVE",
"122 257 OFFCURVE",
"94 215 OFFCURVE",
"65 178 CURVE",
"45 150 OFFCURVE",
"20 126 OFFCURVE",
"0 101 CURVE",
"15 106 OFFCURVE",
"32 113 OFFCURVE",
"52 118 CURVE",
"85 126 OFFCURVE",
"117 126 OFFCURVE",
"146 111 CURVE",
"193 83 OFFCURVE",
"213 24 OFFCURVE",
"186 -28 CURVE",
"176 -53 OFFCURVE",
"159 -73 OFFCURVE",
"134 -92 CURVE"
);
}
);
width = 808;
}
);
unicode = F0A7;
},
{
glyphname = uniF0A2;
lastChange = "2018-06-06 20:06:11 +0000";
layers = (
{
layerId = "02376AAC-77FF-49DA-9399-294AF7A35492";
paths = (
{
closed = 1;
nodes = (
"377 654 OFFCURVE",
"721 772 OFFCURVE",
"722 772 CURVE",
"723 772 OFFCURVE",
"729 885 OFFCURVE",
"729 885 CURVE",
"729 889 OFFCURVE",
"395 762 OFFCURVE",
"370 752 CURVE",
"369 752 LINE",
"363 752 OFFCURVE",
"293 709 OFFCURVE",
"293 700 CURVE",
"293 679 OFFCURVE",
"288 139 OFFCURVE",
"287 139 CURVE",
"151 139 OFFCURVE",
"0 32 OFFCURVE",
"0 -68 CURVE",
"0 -133 OFFCURVE",
"28 -154 OFFCURVE",
"122 -154 CURVE",
"251 -154 OFFCURVE",
"364 -15 OFFCURVE",
"364 89 CURVE",
"374 660 LINE"
);
}
);
width = 729;
}
);
unicode = F0A2;
},
{
glyphname = uniF0A8;
lastChange = "2018-06-06 20:06:44 +0000";
layers = (
{
layerId = "02376AAC-77FF-49DA-9399-294AF7A35492";
paths = (
{
closed = 1;
nodes = (
"553 -650 LINE",
"553 -550 LINE",
"336 -605 LINE",
"336 -127 LINE",
"336 -31 OFFCURVE",
"232 98 OFFCURVE",
"112 98 CURVE",
"26 98 OFFCURVE",
"0 80 OFFCURVE",
"0 19 CURVE",
"0 -74 OFFCURVE",
"139 -173 OFFCURVE",
"265 -173 CURVE",
"266 -672 LINE",
"265 -708 LINE"
);
}
);
width = 553;
}
);
unicode = F0A8;
},
{
glyphname = uniE1F3;
lastChange = "2019-03-27 07:58:06 +0000";
layers = (
{
layerId = "02376AAC-77FF-49DA-9399-294AF7A35492";
paths = (
{
closed = 1;
nodes = (
"220 670 OFFCURVE",
"13 600 OFFCURVE",
"0 595 CURVE",
"0 515 LINE",
"335 606 LINE",
"345 438 LINE",
"344 277 OFFCURVE",
"341 128 OFFCURVE",
"340 128 CURVE",
"209 128 OFFCURVE",
"63 23 OFFCURVE",
"63 -73 CURVE",
"63 -137 OFFCURVE",
"90 -156 OFFCURVE",
"182 -156 CURVE",
"304 -156 OFFCURVE",
"414 -21 OFFCURVE",
"414 79 CURVE",
"425 628 LINE",
"417 734 LINE"
);
}
);
width = 425;
}
);
unicode = E1F3;
},
{
glyphname = uniF0A9;
lastChange = "2018-06-26 09:53:45 +0000";
layers = (
{
layerId = "02376AAC-77FF-49DA-9399-294AF7A35492";
paths = (
{
closed = 1;
nodes = (
"341 -124 LINE",
"341 -33 OFFCURVE",
"243 89 OFFCURVE",
"130 89 CURVE",
"48 89 OFFCURVE",
"23 72 OFFCURVE",
"23 14 CURVE",
"23 -73 OFFCURVE",
"155 -168 OFFCURVE",
"275 -168 CURVE",
"276 -641 LINE",
"171 -666 OFFCURVE",
"-2 -710 OFFCURVE",
"0 -710 CURVE",
"1 -710 OFFCURVE",
"3 -808 OFFCURVE",
"3 -810 CURVE",
"3 -813 OFFCURVE",
"369 -714 OFFCURVE",
"347 -704 CURVE",
"346 -704 LINE",
"341 -704 OFFCURVE",
"356 -650 OFFCURVE",
"353 -628 CURVE"
);
},
{
closed = 1;
nodes = (
"278 -640 OFFCURVE",
"273 -641 OFFCURVE",
"276 -641 CURVE"
);
}
);
width = 353;
}
);
unicode = F0A9;
},
{
glyphname = uniF0B0;
lastChange = "2018-06-06 20:11:16 +0000";
layers = (
{
layerId = "02376AAC-77FF-49DA-9399-294AF7A35492";
paths = (
{
closed = 1;
nodes = (
"403 575 OFFCURVE",
"652 692 OFFCURVE",
"712 692 CURVE",
"714 692 OFFCURVE",
"717 793 OFFCURVE",
"717 794 CURVE",
"717 798 OFFCURVE",
"21 567 OFFCURVE",
"0 560 CURVE",
"0 484 LINE",
"313 570 LINE",
"315 494 LINE",
"315 494 LINE",
"322 412 LINE",
"322 412 LINE",
"321 261 OFFCURVE",
"320 120 OFFCURVE",
"319 120 CURVE",
"196 120 OFFCURVE",
"59 22 OFFCURVE",
"59 -68 CURVE",
"59 -128 OFFCURVE",
"83 -146 OFFCURVE",
"169 -146 CURVE",
"285 -146 OFFCURVE",
"388 -20 OFFCURVE",
"388 74 CURVE",
"394 426 LINE",
"398 591 LINE"
);
}
);
width = 717;
}
);
unicode = F0B0;
},
{
glyphname = uniF0B1;
lastChange = "2018-06-06 20:10:50 +0000";
layers = (
{
layerId = "02376AAC-77FF-49DA-9399-294AF7A35492";
paths = (
{
closed = 1;
nodes = (
"430 -603 OFFCURVE",
"667 -541 OFFCURVE",
"731 -541 CURVE",
"733 -541 OFFCURVE",
"736 -648 OFFCURVE",
"736 -651 CURVE",
"736 -653 OFFCURVE",
"21 -862 OFFCURVE",
"0 -853 CURVE",
"0 -773 LINE",
"332 -637 LINE",
"333 -558 LINE",
"333 -558 LINE",
"341 -470 LINE",
"341 -470 LINE",
"340 -310 OFFCURVE",
"339 -161 OFFCURVE",
"337 -161 CURVE",
"208 -161 OFFCURVE",
"63 -58 OFFCURVE",
"63 37 CURVE",
"63 101 OFFCURVE",
"89 120 OFFCURVE",
"180 120 CURVE",
"302 120 OFFCURVE",
"411 -14 OFFCURVE",
"411 -113 CURVE",
"417 -485 LINE",
"426 -620 LINE"
);
}
);
width = 736;
}
);
unicode = F0B1;
},
{
glyphname = uniF0A4;
lastChange = "2018-06-06 20:05:24 +0000";
layers = (
{
layerId = "02376AAC-77FF-49DA-9399-294AF7A35492";
paths = (
{
closed = 1;
nodes = (
"385 480 OFFCURVE",
"732 599 OFFCURVE",
"734 599 CURVE",
"734 599 OFFCURVE",
"738 711 OFFCURVE",
"738 712 CURVE",
"738 716 OFFCURVE",
"402 589 OFFCURVE",
"379 579 CURVE",
"375 578 LINE",
"377 669 LINE",
"382 651 OFFCURVE",
"660 782 OFFCURVE",
"727 782 CURVE",
"728 782 OFFCURVE",
"733 894 OFFCURVE",
"733 897 CURVE",
"733 899 OFFCURVE",
"396 771 OFFCURVE",
"373 763 CURVE",
"371 762 LINE",
"366 762 OFFCURVE",
"296 718 OFFCURVE",
"296 711 CURVE",
"296 688 OFFCURVE",
"291 146 OFFCURVE",
"289 146 CURVE",
"152 146 OFFCURVE",
"0 37 OFFCURVE",
"0 -63 CURVE",
"0 -130 OFFCURVE",
"28 -150 OFFCURVE",
"123 -150 CURVE",
"252 -150 OFFCURVE",
"366 -10 OFFCURVE",
"366 95 CURVE",
"374 486 LINE",
"383 486 LINE"
);
}
);
width = 738;
}
);
unicode = F0A4;
},
{
glyphname = uniF0B3;
lastChange = "2018-06-26 09:54:33 +0000";
layers = (
{
layerId = "02376AAC-77FF-49DA-9399-294AF7A35492";
paths = (
{
closed = 1;
nodes = (
"364 -499 OFFCURVE",
"691 -612 OFFCURVE",
"693 -612 CURVE",
"694 -612 OFFCURVE",
"698 -717 OFFCURVE",
"698 -718 CURVE",
"698 -723 OFFCURVE",
"380 -602 OFFCURVE",
"358 -593 CURVE",
"353 -592 LINE",
"356 -678 LINE",
"362 -662 OFFCURVE",
"625 -785 OFFCURVE",
"686 -785 CURVE",
"688 -785 OFFCURVE",
"692 -890 OFFCURVE",
"692 -893 CURVE",
"692 -896 OFFCURVE",
"374 -775 OFFCURVE",
"353 -767 CURVE",
"351 -766 LINE",
"345 -766 OFFCURVE",
"279 -724 OFFCURVE",
"279 -717 CURVE",
"279 -697 OFFCURVE",
"275 -183 OFFCURVE",
"272 -183 CURVE",
"143 -183 OFFCURVE",
"0 -81 OFFCURVE",
"0 15 CURVE",
"0 77 OFFCURVE",
"26 96 OFFCURVE",
"117 96 CURVE",
"238 96 OFFCURVE",
"346 -36 OFFCURVE",
"346 -136 CURVE",
"353 -505 LINE",
"363 -505 LINE"
);
}
);
width = 698;
}
);
unicode = F0B3;
},
{
glyphname = uniE1F5;
lastChange = "2019-03-27 07:58:06 +0000";
layers = (
{
layerId = "02376AAC-77FF-49DA-9399-294AF7A35492";
paths = (
{
closed = 1;
nodes = (
"321 666 OFFCURVE",
"326 665 OFFCURVE",
"324 665 CURVE"
);
},
{
closed = 1;
nodes = (
"324 584 LINE",
"323 594 OFFCURVE",
"5 682 OFFCURVE",
"5 678 CURVE",
"5 676 OFFCURVE",
"1 568 OFFCURVE",
"0 568 CURVE",
"-1 568 OFFCURVE",
"194 517 OFFCURVE",
"309 489 CURVE",
"324 489 LINE",
"323 136 LINE",
"189 136 OFFCURVE",
"41 30 OFFCURVE",
"41 -67 CURVE",
"41 -132 OFFCURVE",
"69 -153 OFFCURVE",
"161 -153 CURVE",
"287 -153 OFFCURVE",
"398 -14 OFFCURVE",
"398 87 CURVE",
"411 652 LINE",
"415 674 OFFCURVE",
"398 737 OFFCURVE",
"403 737 CURVE",
"404 738 LINE",
"428 746 OFFCURVE",
"19 858 OFFCURVE",
"19 854 CURVE",
"19 853 OFFCURVE",
"15 744 OFFCURVE",
"14 744 CURVE",
"13 744 OFFCURVE",
"208 693 OFFCURVE",
"324 665 CURVE",
"324 584 LINE"
);
}
);
width = 412;
}
);
unicode = E1F5;
},
{
glyphname = uniF0B4;
lastChange = "2018-06-06 20:10:17 +0000";
layers = (
{
layerId = "02376AAC-77FF-49DA-9399-294AF7A35492";
paths = (
{
closed = 1;
nodes = (
"193 -657 OFFCURVE",
"12 -704 OFFCURVE",
"13 -704 CURVE",
"14 -704 OFFCURVE",
"18 -806 OFFCURVE",
"18 -807 CURVE",
"18 -810 OFFCURVE",
"398 -706 OFFCURVE",
"375 -698 CURVE",
"374 -697 LINE",
"370 -697 OFFCURVE",
"385 -639 OFFCURVE",
"382 -618 CURVE",
"370 -92 LINE",
"370 2 OFFCURVE",
"267 130 OFFCURVE",
"149 130 CURVE",
"63 130 OFFCURVE",
"37 110 OFFCURVE",
"37 51 CURVE",
"37 -39 OFFCURVE",
"175 -139 OFFCURVE",
"300 -139 CURVE",
"301 -466 LINE",
"287 -466 LINE",
"180 -493 OFFCURVE",
"-1 -540 OFFCURVE",
"0 -540 CURVE",
"1 -540 OFFCURVE",
"4 -641 OFFCURVE",
"4 -642 CURVE",
"4 -647 OFFCURVE",
"300 -565 OFFCURVE",
"301 -555 CURVE",
"301 -555 LINE",
"301 -631 LINE"
);
},
{
closed = 1;
nodes = (
"302 -631 OFFCURVE",
"298 -632 OFFCURVE",
"301 -631 CURVE"
);
}
);
width = 382;
}
);
unicode = F0B4;
},
{
glyphname = uniF0B2;
lastChange = "2018-06-06 20:09:02 +0000";
layers = (
{
layerId = "02376AAC-77FF-49DA-9399-294AF7A35492";
paths = (
{
closed = 1;
nodes = (
"338 275 OFFCURVE",
"336 128 OFFCURVE",
"335 128 CURVE",
"206 128 OFFCURVE",
"62 25 OFFCURVE",
"62 -70 CURVE",
"62 -133 OFFCURVE",
"88 -152 OFFCURVE",
"178 -152 CURVE",
"300 -152 OFFCURVE",
"408 -19 OFFCURVE",
"408 79 CURVE",
"415 448 LINE",
"424 448 LINE",
"425 442 OFFCURVE",
"683 531 OFFCURVE",
"684 531 CURVE",
"685 531 OFFCURVE",
"642 618 OFFCURVE",
"642 620 CURVE",
"642 623 OFFCURVE",
"442 545 OFFCURVE",
"420 536 CURVE",
"416 535 LINE",
"418 620 LINE",
"423 604 OFFCURVE",
"685 727 OFFCURVE",
"748 727 CURVE",
"749 727 OFFCURVE",
"754 833 OFFCURVE",
"754 835 CURVE",
"754 838 OFFCURVE",
"22 596 OFFCURVE",
"0 588 CURVE",
"0 509 LINE",
"329 598 LINE",
"331 520 LINE",
"136 469 LINE",
"97 375 LINE",
"340 433 LINE"
);
}
);
width = 754;
}
);
unicode = F0B2;
},
{
glyphname = uniF0B5;
lastChange = "2018-06-06 20:09:51 +0000";
layers = (
{
layerId = "02376AAC-77FF-49DA-9399-294AF7A35492";
paths = (
{
closed = 1;
nodes = (
"352 -335 OFFCURVE",
"347 -159 OFFCURVE",
"346 -159 CURVE",
"212 -159 OFFCURVE",
"64 -52 OFFCURVE",
"64 45 CURVE",
"64 109 OFFCURVE",
"91 129 OFFCURVE",
"185 129 CURVE",
"310 129 OFFCURVE",
"421 -8 OFFCURVE",
"421 -109 CURVE",
"429 -490 LINE",
"437 -490 LINE",
"439 -485 OFFCURVE",
"691 -440 OFFCURVE",
"692 -440 CURVE",
"693 -440 OFFCURVE",
"649 -530 OFFCURVE",
"649 -532 CURVE",
"649 -536 OFFCURVE",
"460 -578 OFFCURVE",
"433 -581 CURVE",
"430 -580 LINE",
"431 -669 LINE",
"437 -651 OFFCURVE",
"694 -642 OFFCURVE",
"758 -642 CURVE",
"760 -642 OFFCURVE",
"764 -752 OFFCURVE",
"764 -755 CURVE",
"764 -758 OFFCURVE",
"23 -825 OFFCURVE",
"0 -817 CURVE",
"0 -735 LINE",
"343 -676 LINE",
"341 -592 LINE",
"103 -639 LINE",
"66 -547 LINE",
"354 -496 LINE"
);
}
);
width = 764;
}
);
unicode = F0B5;
},
{
glyphname = uniE080;
lastChange = "2019-03-27 17:25:12 +0000";
layers = (
{
hints = (
{
horizontal = 1;
place = "{-358, 44}";
type = Stem;
},
{
horizontal = 1;
place = "{314, 45}";
type = Stem;
},
{
place = "{20, 110}";
type = Stem;
},
{
place = "{407, 106}";
type = Stem;
}
);
layerId = "02376AAC-77FF-49DA-9399-294AF7A35492";
paths = (
{
closed = 1;
nodes = (
"255 -358 OFFCURVE",
"274 -357 OFFCURVE",
"292 -354 CURVE SMOOTH",
"370 -343 OFFCURVE",
"432 -311 OFFCURVE",
"469 -235 CURVE SMOOTH",
"497 -178 OFFCURVE",
"510 -119 OFFCURVE",
"512 -64 CURVE",
"513 -51 OFFCURVE",
"513 -37 OFFCURVE",
"513 -24 CURVE SMOOTH",
"513 60 OFFCURVE",
"500 144 OFFCURVE",
"472 212 CURVE SMOOTH",
"432 312 OFFCURVE",
"373 359 OFFCURVE",
"278 359 CURVE SMOOTH",
"264 359 OFFCURVE",
"249 359 OFFCURVE",
"234 357 CURVE",
"223 355 OFFCURVE",
"212 356 OFFCURVE",
"201 352 CURVE",
"133 331 OFFCURVE",
"88 286 OFFCURVE",
"63 220 CURVE SMOOTH",
"35 147 OFFCURVE",
"20 75 OFFCURVE",
"20 6 CURVE SMOOTH",
"20 -109 OFFCURVE",
"61 -217 OFFCURVE",
"151 -318 CURVE SMOOTH",
"174 -343 OFFCURVE",
"202 -360 OFFCURVE",
"237 -358 CURVE"
);
},
{
closed = 1;
nodes = (
"273 -314 OFFCURVE",
"261 -308 OFFCURVE",
"249 -295 CURVE SMOOTH",
"168 -209 OFFCURVE",
"124 -110 OFFCURVE",
"130 10 CURVE SMOOTH",
"134 88 OFFCURVE",
"147 163 OFFCURVE",
"186 232 CURVE SMOOTH",
"205 266 OFFCURVE",
"229 297 OFFCURVE",
"269 311 CURVE",
"274 313 OFFCURVE",
"278 314 OFFCURVE",
"282 314 CURVE SMOOTH",
"287 314 OFFCURVE",
"292 312 OFFCURVE",
"297 308 CURVE",
"327 287 OFFCURVE",
"345 258 OFFCURVE",
"359 225 CURVE SMOOTH",
"389 154 OFFCURVE",
"407 60 OFFCURVE",
"407 -20 CURVE SMOOTH",
"407 -78 OFFCURVE",
"406 -134 OFFCURVE",
"386 -188 CURVE SMOOTH",
"372 -227 OFFCURVE",
"353 -262 OFFCURVE",
"325 -293 CURVE SMOOTH",
"312 -307 OFFCURVE",
"299 -314 OFFCURVE",
"286 -314 CURVE SMOOTH"
);
}
);
width = 533;
}
);
note = uniE080;
unicode = E080;
},
{
glyphname = uniE081;
lastChange = "2019-03-27 17:25:12 +0000";
layers = (
{
hints = (
{
horizontal = 1;
place = "{242, 42}";
type = Stem;
},
{
place = "{160.5, 103.5}";
type = Stem;
},
{
place = "{175, 108}";
type = Stem;
}
);
layerId = "02376AAC-77FF-49DA-9399-294AF7A35492";
paths = (
{
closed = 1;
nodes = (
"206 -364 OFFCURVE",
"226 -358 OFFCURVE",
"248 -354 CURVE",
"256 -353 OFFCURVE",
"260 -348 OFFCURVE",
"260 -340 CURVE",
"261 -328 OFFCURVE",
"264 -316 OFFCURVE",
"264 -304 CURVE",
"282 171 LINE",
"283 184 OFFCURVE",
"283 196 OFFCURVE",
"283 209 CURVE SMOOTH",
"283 242 OFFCURVE",
"281 275 OFFCURVE",
"278 309 CURVE",
"274 341 OFFCURVE",
"235 366 OFFCURVE",
"200 366 CURVE SMOOTH",
"192 366 OFFCURVE",
"183 365 OFFCURVE",
"176 361 CURVE",
"173 359 OFFCURVE",
"170 356 OFFCURVE",
"167 353 CURVE",
"133 309 OFFCURVE",
"88 287 OFFCURVE",
"34 284 CURVE",
"23 283 OFFCURVE",
"20 280 OFFCURVE",
"20 275 CURVE SMOOTH",
"20 272 OFFCURVE",
"21 268 OFFCURVE",
"22 264 CURVE",
"25 254 OFFCURVE",
"34 253 OFFCURVE",
"41 252 CURVE",
"66 247 OFFCURVE",
"90 242 OFFCURVE",
"114 242 CURVE SMOOTH",
"127 242 OFFCURVE",
"141 244 OFFCURVE",
"154 248 CURVE",
"158 250 OFFCURVE",
"162 250 OFFCURVE",
"165 251 CURVE",
"172 251 OFFCURVE",
"175 245 OFFCURVE",
"175 232 CURVE SMOOTH",
"175 168 OFFCURVE",
"173 104 OFFCURVE",
"169 41 CURVE SMOOTH",
"159 -86 OFFCURVE",
"162 -213 OFFCURVE",
"152 -340 CURVE SMOOTH",
"151 -358 OFFCURVE",
"161 -364 OFFCURVE",
"183 -364 CURVE SMOOTH"
);
}
);
width = 303;
}
);
note = uniE081;
unicode = E081;
},
{
glyphname = uniE082;
lastChange = "2019-03-27 17:25:12 +0000";
layers = (
{
hints = (
{
horizontal = 1;
place = "{-295, 112}";
type = Stem;
},
{
horizontal = 1;
place = "{270, 112}";
type = Stem;
},
{
place = "{421, 49}";
type = Stem;
},
{
horizontal = 1;
place = "{-345, 113}";
type = Stem;
}
);
layerId = "02376AAC-77FF-49DA-9399-294AF7A35492";
paths = (
{
closed = 1;
nodes = (
"77 -382 OFFCURVE",
"84 -375 OFFCURVE",
"90 -370 CURVE SMOOTH",
"117 -348 OFFCURVE",
"148 -330 OFFCURVE",
"177 -311 CURVE SMOOTH",
"196 -299 OFFCURVE",
"215 -295 OFFCURVE",
"235 -295 CURVE SMOOTH",
"247 -295 OFFCURVE",
"260 -296 OFFCURVE",
"272 -299 CURVE SMOOTH",
"294 -304 OFFCURVE",
"315 -313 OFFCURVE",
"337 -321 CURVE SMOOTH",
"375 -335 OFFCURVE",
"413 -345 OFFCURVE",
"450 -345 CURVE SMOOTH",
"494 -345 OFFCURVE",
"537 -333 OFFCURVE",
"579 -306 CURVE SMOOTH",
"629 -274 OFFCURVE",
"665 -232 OFFCURVE",
"660 -168 CURVE",
"660 -160 OFFCURVE",
"660 -149 OFFCURVE",
"654 -146 CURVE",
"647 -142 OFFCURVE",
"639 -148 OFFCURVE",
"633 -153 CURVE SMOOTH",
"621 -163 OFFCURVE",
"609 -172 OFFCURVE",
"598 -183 CURVE SMOOTH",
"580 -201 OFFCURVE",
"561 -212 OFFCURVE",
"538 -220 CURVE SMOOTH",
"515 -228 OFFCURVE",
"492 -232 OFFCURVE",
"469 -232 CURVE SMOOTH",
"430 -232 OFFCURVE",
"391 -221 OFFCURVE",
"354 -205 CURVE",
"323 -193 OFFCURVE",
"292 -183 OFFCURVE",
"258 -183 CURVE SMOOTH",
"243 -183 OFFCURVE",
"228 -185 OFFCURVE",
"212 -189 CURVE",
"221 -178 OFFCURVE",
"225 -173 OFFCURVE",
"230 -168 CURVE SMOOTH",
"268 -130 OFFCURVE",
"304 -91 OFFCURVE",
"340 -51 CURVE SMOOTH",
"413 30 OFFCURVE",
"461 125 OFFCURVE",
"469 236 CURVE",
"470 243 OFFCURVE",
"470 250 OFFCURVE",
"470 256 CURVE SMOOTH",
"470 320 OFFCURVE",
"443 353 OFFCURVE",
"386 372 CURVE SMOOTH",
"365 379 OFFCURVE",
"345 382 OFFCURVE",
"325 382 CURVE SMOOTH",
"284 382 OFFCURVE",
"245 370 OFFCURVE",
"206 353 CURVE SMOOTH",
"153 330 OFFCURVE",
"117 286 OFFCURVE",
"77 246 CURVE SMOOTH",
"45 214 OFFCURVE",
"20 181 OFFCURVE",
"20 137 CURVE SMOOTH",
"20 130 OFFCURVE",
"20 122 OFFCURVE",
"22 114 CURVE",
"23 109 OFFCURVE",
"20 102 OFFCURVE",
"20 97 CURVE SMOOTH",
"20 92 OFFCURVE",
"22 87 OFFCURVE",
"30 87 CURVE SMOOTH",
"38 87 OFFCURVE",
"45 96 OFFCURVE",
"51 102 CURVE SMOOTH",
"55 106 OFFCURVE",
"57 110 OFFCURVE",
"60 113 CURVE",
"93 152 OFFCURVE",
"127 189 OFFCURVE",
"165 222 CURVE SMOOTH",
"203 255 OFFCURVE",
"250 270 OFFCURVE",
"295 270 CURVE SMOOTH",
"333 270 OFFCURVE",
"369 259 OFFCURVE",
"399 237 CURVE SMOOTH",
"410 229 OFFCURVE",
"421 220 OFFCURVE",
"421 207 CURVE SMOOTH",
"421 203 OFFCURVE",
"419 198 OFFCURVE",
"417 193 CURVE SMOOTH",
"400 151 OFFCURVE",
"378 110 OFFCURVE",
"348 74 CURVE SMOOTH",
"305 23 OFFCURVE",
"258 -24 OFFCURVE",
"211 -72 CURVE SMOOTH",
"160 -125 OFFCURVE",
"116 -184 OFFCURVE",
"77 -247 CURVE SMOOTH",
"64 -268 OFFCURVE",
"58 -288 OFFCURVE",
"58 -310 CURVE SMOOTH",
"58 -318 OFFCURVE",
"59 -326 OFFCURVE",
"60 -334 CURVE SMOOTH",
"61 -341 OFFCURVE",
"61 -349 OFFCURVE",
"61 -357 CURVE",
"62 -365 OFFCURVE",
"63 -373 OFFCURVE",
"69 -377 CURVE SMOOTH"
);
}
);
width = 680;
}
);
note = uniE082;
unicode = E082;
},
{
glyphname = uniE083;
lastChange = "2019-03-27 17:25:12 +0000";
layers = (
{
hints = (
{
horizontal = 1;
place = "{-392, 115}";
type = Stem;
},
{
horizontal = 1;
place = "{272, 113}";
type = Stem;
},
{
place = "{448, 58}";
type = Stem;
}
);
layerId = "02376AAC-77FF-49DA-9399-294AF7A35492";
paths = (
{
closed = 1;
nodes = (
"183 -386 OFFCURVE",
"215 -392 OFFCURVE",
"246 -392 CURVE SMOOTH",
"309 -392 OFFCURVE",
"368 -368 OFFCURVE",
"420 -323 CURVE SMOOTH",
"484 -266 OFFCURVE",
"506 -191 OFFCURVE",
"506 -112 CURVE SMOOTH",
"506 -94 OFFCURVE",
"505 -75 OFFCURVE",
"503 -57 CURVE SMOOTH",
"497 -1 OFFCURVE",
"465 43 OFFCURVE",
"409 66 CURVE",
"394 71 OFFCURVE",
"379 75 OFFCURVE",
"363 79 CURVE",
"421 148 OFFCURVE",
"470 219 OFFCURVE",
"521 290 CURVE SMOOTH",
"534 308 OFFCURVE",
"540 328 OFFCURVE",
"540 349 CURVE SMOOTH",
"540 357 OFFCURVE",
"539 366 OFFCURVE",
"537 375 CURVE SMOOTH",
"534 387 OFFCURVE",
"529 392 OFFCURVE",
"521 392 CURVE SMOOTH",
"518 392 OFFCURVE",
"515 391 OFFCURVE",
"511 390 CURVE SMOOTH",
"489 384 OFFCURVE",
"467 383 OFFCURVE",
"445 383 CURVE SMOOTH",
"390 383 OFFCURVE",
"334 385 OFFCURVE",
"279 385 CURVE SMOOTH",
"240 385 LINE SMOOTH",
"179 385 OFFCURVE",
"118 385 OFFCURVE",
"58 379 CURVE SMOOTH",
"38 377 OFFCURVE",
"28 369 OFFCURVE",
"25 348 CURVE",
"21 328 OFFCURVE",
"22 307 OFFCURVE",
"20 286 CURVE SMOOTH",
"19 273 OFFCURVE",
"22 267 OFFCURVE",
"36 267 CURVE SMOOTH",
"39 267 LINE",
"74 270 OFFCURVE",
"110 272 OFFCURVE",
"146 272 CURVE SMOOTH",
"418 272 LINE",
"363 198 OFFCURVE",
"309 133 OFFCURVE",
"246 75 CURVE SMOOTH",
"208 40 OFFCURVE",
"171 8 OFFCURVE",
"171 -45 CURVE SMOOTH",
"171 -54 OFFCURVE",
"172 -64 OFFCURVE",
"175 -75 CURVE",
"175 -77 LINE",
"174 -85 OFFCURVE",
"174 -94 OFFCURVE",
"183 -98 CURVE SMOOTH",
"190 -101 OFFCURVE",
"197 -97 OFFCURVE",
"202 -92 CURVE SMOOTH",
"228 -66 OFFCURVE",
"262 -58 OFFCURVE",
"295 -50 CURVE SMOOTH",
"307 -47 OFFCURVE",
"319 -45 OFFCURVE",
"330 -45 CURVE SMOOTH",
"359 -45 OFFCURVE",
"387 -55 OFFCURVE",
"411 -75 CURVE",
"427 -87 OFFCURVE",
"448 -102 OFFCURVE",
"448 -124 CURVE SMOOTH",
"448 -128 OFFCURVE",
"447 -131 OFFCURVE",
"446 -135 CURVE",
"428 -193 OFFCURVE",
"395 -239 OFFCURVE",
"337 -261 CURVE SMOOTH",
"308 -272 OFFCURVE",
"279 -277 OFFCURVE",
"251 -277 CURVE SMOOTH",
"201 -277 OFFCURVE",
"152 -261 OFFCURVE",
"105 -236 CURVE",
"85 -224 OFFCURVE",
"68 -215 OFFCURVE",
"61 -191 CURVE",
"60 -186 OFFCURVE",
"59 -173 OFFCURVE",
"49 -173 CURVE SMOOTH",
"47 -173 OFFCURVE",
"46 -173 OFFCURVE",
"44 -174 CURVE",
"33 -177 OFFCURVE",
"25 -185 OFFCURVE",
"25 -200 CURVE",
"23 -233 OFFCURVE",
"31 -262 OFFCURVE",
"38 -294 CURVE SMOOTH",
"42 -311 OFFCURVE",
"54 -325 OFFCURVE",
"70 -335 CURVE",
"96 -350 OFFCURVE",
"121 -365 OFFCURVE",
"150 -375 CURVE SMOOTH"
);
}
);
width = 560;
}
);
note = uniE083;
unicode = E083;
},
{
glyphname = uniE084;
lastChange = "2019-03-27 17:25:12 +0000";
layers = (
{
hints = (
{
horizontal = 1;
place = "{-115, 113}";
type = Stem;
},
{
place = "{430, 47}";
type = Stem;
},
{
horizontal = 1;
place = "{-129, 114}";
type = Stem;
},
{
place = "{414, 62}";
type = Stem;
}
);
layerId = "02376AAC-77FF-49DA-9399-294AF7A35492";
paths = (
{
closed = 1;
nodes = (
"432 -492 OFFCURVE",
"440 -483 OFFCURVE",
"445 -475 CURVE",
"458 -458 OFFCURVE",
"460 -438 OFFCURVE",
"463 -418 CURVE SMOOTH",
"474 -323 OFFCURVE",
"472 -227 OFFCURVE",
"476 -132 CURVE",
"476 -122 LINE",
"511 -115 OFFCURVE",
"544 -103 OFFCURVE",
"577 -88 CURVE SMOOTH",
"626 -65 OFFCURVE",
"634 -53 OFFCURVE",
"633 0 CURVE",
"633 25 OFFCURVE",
"628 36 OFFCURVE",
"615 37 CURVE",
"609 37 OFFCURVE",
"600 34 OFFCURVE",
"589 28 CURVE",
"582 25 LINE SMOOTH",
"548 10 OFFCURVE",
"513 -2 OFFCURVE",
"477 -9 CURVE",
"477 35 OFFCURVE",
"475 79 OFFCURVE",
"473 123 CURVE SMOOTH",
"471 160 OFFCURVE",
"470 198 OFFCURVE",
"467 235 CURVE",
"466 243 OFFCURVE",
"467 259 OFFCURVE",
"454 259 CURVE SMOOTH",
"442 259 OFFCURVE",
"433 251 OFFCURVE",
"432 236 CURVE SMOOTH",
"431 218 OFFCURVE",
"426 200 OFFCURVE",
"427 182 CURVE",
"428 116 OFFCURVE",
"430 50 OFFCURVE",
"430 -15 CURVE",
"418 -16 OFFCURVE",
"406 -16 OFFCURVE",
"395 -15 CURVE SMOOTH",
"334 -11 OFFCURVE",
"274 -1 OFFCURVE",
"212 -2 CURVE SMOOTH",
"190 -2 OFFCURVE",
"168 -3 OFFCURVE",
"146 -6 CURVE",
"168 36 OFFCURVE",
"186 75 OFFCURVE",
"209 113 CURVE SMOOTH",
"262 200 OFFCURVE",
"319 286 OFFCURVE",
"356 383 CURVE SMOOTH",
"365 406 OFFCURVE",
"372 429 OFFCURVE",
"372 453 CURVE SMOOTH",
"372 460 OFFCURVE",
"371 467 OFFCURVE",
"370 474 CURVE SMOOTH",
"369 480 OFFCURVE",
"369 491 OFFCURVE",
"361 491 CURVE",
"353 492 OFFCURVE",
"343 489 OFFCURVE",
"338 481 CURVE",
"335 475 OFFCURVE",
"331 470 OFFCURVE",
"329 464 CURVE SMOOTH",
"315 419 OFFCURVE",
"290 380 OFFCURVE",
"267 340 CURVE SMOOTH",
"238 291 OFFCURVE",
"205 244 OFFCURVE",
"176 195 CURVE SMOOTH",
"135 126 OFFCURVE",
"101 54 OFFCURVE",
"51 -9 CURVE SMOOTH",
"35 -29 OFFCURVE",
"20 -50 OFFCURVE",
"20 -75 CURVE SMOOTH",
"20 -84 OFFCURVE",
"22 -93 OFFCURVE",
"26 -102 CURVE SMOOTH",
"30 -111 OFFCURVE",
"35 -120 OFFCURVE",
"35 -129 CURVE",
"36 -144 OFFCURVE",
"39 -149 OFFCURVE",
"47 -150 CURVE",
"51 -150 OFFCURVE",
"57 -148 OFFCURVE",
"64 -144 CURVE",
"108 -125 OFFCURVE",
"153 -115 OFFCURVE",
"200 -115 CURVE SMOOTH",
"262 -115 OFFCURVE",
"324 -125 OFFCURVE",
"386 -129 CURVE",
"393 -130 OFFCURVE",
"400 -130 OFFCURVE",
"407 -131 CURVE",
"414 -131 OFFCURVE",
"421 -131 OFFCURVE",
"428 -129 CURVE",
"426 -186 OFFCURVE",
"425 -243 OFFCURVE",
"421 -300 CURVE SMOOTH",
"419 -344 OFFCURVE",
"414 -388 OFFCURVE",
"414 -434 CURVE SMOOTH",
"414 -445 OFFCURVE",
"414 -455 OFFCURVE",
"415 -465 CURVE",
"415 -474 OFFCURVE",
"414 -486 OFFCURVE",
"422 -489 CURVE"
);
}
);
width = 653;
}
);
note = uniE084;
unicode = E084;
},
{
glyphname = uniE085;
lastChange = "2019-03-27 17:25:12 +0000";
layers = (
{
hints = (
{
horizontal = 1;
place = "{-389, 134}";
type = Stem;
},
{
horizontal = 1;
place = "{217, 119}";
type = Stem;
},
{
place = "{20, 563}";
type = Stem;
},
{
place = "{399, 83}";
type = Stem;
}
);
layerId = "02376AAC-77FF-49DA-9399-294AF7A35492";
paths = (
{
closed = 1;
nodes = (
"117 -384 OFFCURVE",
"145 -388 OFFCURVE",
"173 -389 CURVE",
"244 -389 OFFCURVE",
"315 -357 OFFCURVE",
"352 -321 CURVE SMOOTH",
"408 -267 OFFCURVE",
"446 -201 OFFCURVE",
"470 -127 CURVE SMOOTH",
"478 -104 OFFCURVE",
"482 -81 OFFCURVE",
"482 -59 CURVE SMOOTH",
"482 8 OFFCURVE",
"446 65 OFFCURVE",
"375 96 CURVE SMOOTH",
"348 107 OFFCURVE",
"321 116 OFFCURVE",
"293 120 CURVE",
"283 121 OFFCURVE",
"278 123 OFFCURVE",
"278 130 CURVE SMOOTH",
"278 132 OFFCURVE",
"279 136 OFFCURVE",
"281 140 CURVE",
"289 158 OFFCURVE",
"296 177 OFFCURVE",
"297 197 CURVE",
"299 213 OFFCURVE",
"307 217 OFFCURVE",
"326 217 CURVE SMOOTH",
"395 217 OFFCURVE",
"460 238 OFFCURVE",
"526 258 CURVE SMOOTH",
"570 272 OFFCURVE",
"583 300 OFFCURVE",
"583 340 CURVE SMOOTH",
"583 375 OFFCURVE",
"579 389 OFFCURVE",
"564 389 CURVE SMOOTH",
"556 389 OFFCURVE",
"545 386 OFFCURVE",
"530 379 CURVE",
"529 379 OFFCURVE",
"527 378 OFFCURVE",
"526 377 CURVE",
"462 351 OFFCURVE",
"396 336 OFFCURVE",
"323 336 CURVE SMOOTH",
"314 336 OFFCURVE",
"295 338 OFFCURVE",
"275 336 CURVE SMOOTH",
"262 335 OFFCURVE",
"254 329 OFFCURVE",
"245 315 CURVE SMOOTH",
"224 281 OFFCURVE",
"211 244 OFFCURVE",
"195 208 CURVE SMOOTH",
"182 177 OFFCURVE",
"170 147 OFFCURVE",
"170 114 CURVE SMOOTH",
"170 110 OFFCURVE",
"171 105 OFFCURVE",
"171 100 CURVE",
"173 80 OFFCURVE",
"169 62 OFFCURVE",
"162 44 CURVE",
"158 35 OFFCURVE",
"156 28 OFFCURVE",
"156 24 CURVE SMOOTH",
"156 15 OFFCURVE",
"164 13 OFFCURVE",
"183 10 CURVE",
"226 5 OFFCURVE",
"269 0 OFFCURVE",
"309 -18 CURVE SMOOTH",
"348 -36 OFFCURVE",
"380 -62 OFFCURVE",
"395 -105 CURVE",
"398 -112 OFFCURVE",
"399 -118 OFFCURVE",
"399 -125 CURVE SMOOTH",
"399 -151 OFFCURVE",
"380 -170 OFFCURVE",
"366 -191 CURVE",
"336 -232 OFFCURVE",
"291 -255 OFFCURVE",
"241 -255 CURVE SMOOTH",
"221 -255 OFFCURVE",
"201 -252 OFFCURVE",
"181 -244 CURVE",
"143 -231 OFFCURVE",
"107 -213 OFFCURVE",
"66 -208 CURVE SMOOTH",
"51 -206 OFFCURVE",
"45 -210 OFFCURVE",
"38 -223 CURVE SMOOTH",
"20 -255 OFFCURVE",
"28 -291 OFFCURVE",
"20 -325 CURVE SMOOTH",
"18 -335 OFFCURVE",
"25 -347 OFFCURVE",
"39 -351 CURVE",
"57 -357 OFFCURVE",
"75 -364 OFFCURVE",
"92 -372 CURVE SMOOTH"
);
}
);
width = 603;
}
);
note = uniE085;
unicode = E085;
},
{
glyphname = uniE086;
lastChange = "2019-03-27 17:25:12 +0000";
layers = (
{
hints = (
{
horizontal = 1;
place = "{-363, 115}";
type = Stem;
},
{
horizontal = 1;
place = "{-72, 113}";
type = Stem;
},
{
horizontal = 1;
place = "{245, 118}";
type = Stem;
},
{
place = "{20, 48}";
type = Stem;
},
{
place = "{514, 51}";
type = Stem;
}
);
layerId = "02376AAC-77FF-49DA-9399-294AF7A35492";
paths = (
{
closed = 1;
nodes = (
"326 -352 OFFCURVE",
"381 -343 OFFCURVE",
"431 -318 CURVE SMOOTH",
"523 -271 OFFCURVE",
"565 -195 OFFCURVE",
"565 -93 CURVE SMOOTH",
"565 -11 OFFCURVE",
"521 40 OFFCURVE",
"453 41 CURVE SMOOTH",
"437 41 OFFCURVE",
"421 38 OFFCURVE",
"403 33 CURVE SMOOTH",
"272 -6 OFFCURVE",
"192 -96 OFFCURVE",
"162 -232 CURVE",
"126 -218 OFFCURVE",
"99 -193 OFFCURVE",
"80 -158 CURVE SMOOTH",
"72 -143 OFFCURVE",
"68 -127 OFFCURVE",
"68 -111 CURVE SMOOTH",
"68 -100 OFFCURVE",
"70 -88 OFFCURVE",
"74 -76 CURVE SMOOTH",
"86 -41 OFFCURVE",
"101 -8 OFFCURVE",
"116 26 CURVE SMOOTH",
"164 131 OFFCURVE",
"241 203 OFFCURVE",
"353 236 CURVE",
"368 241 OFFCURVE",
"384 245 OFFCURVE",
"399 245 CURVE SMOOTH",
"417 245 OFFCURVE",
"434 240 OFFCURVE",
"450 227 CURVE",
"454 223 OFFCURVE",
"459 222 OFFCURVE",
"462 222 CURVE SMOOTH",
"468 222 OFFCURVE",
"473 226 OFFCURVE",
"477 233 CURVE",
"484 249 OFFCURVE",
"488 265 OFFCURVE",
"488 281 CURVE SMOOTH",
"488 298 OFFCURVE",
"484 313 OFFCURVE",
"475 328 CURVE SMOOTH",
"461 350 OFFCURVE",
"438 362 OFFCURVE",
"412 363 CURVE",
"408 363 OFFCURVE",
"404 363 OFFCURVE",
"400 362 CURVE",
"328 353 OFFCURVE",
"264 323 OFFCURVE",
"206 280 CURVE SMOOTH",
"151 239 OFFCURVE",
"114 183 OFFCURVE",
"80 123 CURVE SMOOTH",
"42 57 OFFCURVE",
"20 -12 OFFCURVE",
"20 -84 CURVE SMOOTH",
"20 -120 OFFCURVE",
"25 -156 OFFCURVE",
"37 -193 CURVE SMOOTH",
"57 -260 OFFCURVE",
"91 -315 OFFCURVE",
"157 -345 CURVE SMOOTH",
"184 -357 OFFCURVE",
"212 -363 OFFCURVE",
"241 -363 CURVE SMOOTH",
"251 -363 OFFCURVE",
"261 -362 OFFCURVE",
"271 -360 CURVE"
);
},
{
closed = 1;
nodes = (
"244 -248 LINE",
"234 -247 OFFCURVE",
"222 -252 OFFCURVE",
"217 -244 CURVE",
"211 -236 OFFCURVE",
"222 -227 OFFCURVE",
"226 -219 CURVE SMOOTH",
"259 -154 OFFCURVE",
"311 -110 OFFCURVE",
"377 -83 CURVE SMOOTH",
"396 -75 OFFCURVE",
"414 -71 OFFCURVE",
"432 -72 CURVE",
"455 -72 OFFCURVE",
"477 -78 OFFCURVE",
"498 -92 CURVE SMOOTH",
"508 -99 OFFCURVE",
"514 -106 OFFCURVE",
"514 -116 CURVE SMOOTH",
"514 -122 OFFCURVE",
"512 -128 OFFCURVE",
"507 -136 CURVE SMOOTH",
"479 -179 OFFCURVE",
"440 -208 OFFCURVE",
"391 -223 CURVE SMOOTH",
"345 -237 OFFCURVE",
"297 -246 OFFCURVE",
"249 -248 CURVE"
);
}
);
width = 585;
}
);
note = uniE086;
unicode = E086;
},
{
glyphname = uniE087;
lastChange = "2019-03-27 17:25:12 +0000";
layers = (
{
hints = (
{
horizontal = 1;
place = "{209, 41}";
type = Stem;
},
{
place = "{20.37, 571.63}";
type = Stem;
}
);
layerId = "02376AAC-77FF-49DA-9399-294AF7A35492";
paths = (
{
closed = 1;
nodes = (
"192 -345 OFFCURVE",
"206 -338 OFFCURVE",
"221 -337 CURVE SMOOTH",
"242 -335 OFFCURVE",
"250 -325 OFFCURVE",
"254 -306 CURVE SMOOTH",
"271 -224 OFFCURVE",
"301 -146 OFFCURVE",
"338 -72 CURVE SMOOTH",
"403 57 OFFCURVE",
"487 171 OFFCURVE",
"580 280 CURVE SMOOTH",
"588 289 OFFCURVE",
"592 297 OFFCURVE",
"592 303 CURVE SMOOTH",
"592 313 OFFCURVE",
"583 320 OFFCURVE",
"566 324 CURVE SMOOTH",
"554 327 OFFCURVE",
"541 329 OFFCURVE",
"529 329 CURVE SMOOTH",
"508 329 OFFCURVE",
"487 323 OFFCURVE",
"468 309 CURVE",
"453 299 OFFCURVE",
"436 292 OFFCURVE",
"419 285 CURVE SMOOTH",
"370 263 OFFCURVE",
"319 250 OFFCURVE",
"266 250 CURVE SMOOTH",
"219 250 OFFCURVE",
"173 265 OFFCURVE",
"139 302 CURVE SMOOTH",
"117 326 OFFCURVE",
"91 337 OFFCURVE",
"61 343 CURVE SMOOTH",
"56 344 OFFCURVE",
"51 345 OFFCURVE",
"46 345 CURVE SMOOTH",
"36 345 OFFCURVE",
"27 342 OFFCURVE",
"23 336 CURVE",
"15 326 OFFCURVE",
"27 313 OFFCURVE",
"35 303 CURVE SMOOTH",
"79 250 OFFCURVE",
"138 225 OFFCURVE",
"205 215 CURVE SMOOTH",
"230 211 OFFCURVE",
"256 209 OFFCURVE",
"282 209 CURVE SMOOTH",
"325 209 OFFCURVE",
"368 214 OFFCURVE",
"412 225 CURVE",
"409 218 OFFCURVE",
"408 215 OFFCURVE",
"406 213 CURVE",
"313 95 OFFCURVE",
"235 -32 OFFCURVE",
"184 -173 CURVE SMOOTH",
"168 -217 OFFCURVE",
"155 -262 OFFCURVE",
"144 -307 CURVE",
"143 -312 OFFCURVE",
"142 -317 OFFCURVE",
"142 -321 CURVE SMOOTH",
"142 -338 OFFCURVE",
"153 -345 OFFCURVE",
"176 -345 CURVE SMOOTH"
);
}
);
width = 612;
}
);
note = uniE087;
unicode = E087;
},
{
glyphname = uniE088;
lastChange = "2019-03-27 17:25:12 +0000";
layers = (
{
hints = (
{
horizontal = 1;
place = "{-428, 124}";
type = Stem;
},
{
horizontal = 1;
place = "{313, 115}";
type = Stem;
},
{
place = "{23, 87}";
type = Stem;
},
{
place = "{368, 47}";
type = Stem;
},
{
place = "{424, 80}";
type = Stem;
},
{
place = "{20, 47}";
type = Stem;
}
);
layerId = "02376AAC-77FF-49DA-9399-294AF7A35492";
paths = (
{
closed = 1;
nodes = (
"190 -428 OFFCURVE",
"195 -428 OFFCURVE",
"201 -427 CURVE",
"342 -411 OFFCURVE",
"456 -337 OFFCURVE",
"493 -188 CURVE SMOOTH",
"501 -159 OFFCURVE",
"505 -130 OFFCURVE",
"504 -103 CURVE",
"504 -33 OFFCURVE",
"477 29 OFFCURVE",
"406 75 CURVE SMOOTH",
"400 79 OFFCURVE",
"398 83 OFFCURVE",
"397 88 CURVE",
"397 92 OFFCURVE",
"399 96 OFFCURVE",
"400 100 CURVE SMOOTH",
"410 136 OFFCURVE",
"415 173 OFFCURVE",
"415 209 CURVE SMOOTH",
"415 235 OFFCURVE",
"412 261 OFFCURVE",
"407 287 CURVE",
"388 369 OFFCURVE",
"324 428 OFFCURVE",
"247 428 CURVE SMOOTH",
"220 428 OFFCURVE",
"191 421 OFFCURVE",
"162 404 CURVE SMOOTH",
"70 351 OFFCURVE",
"20 267 OFFCURVE",
"20 162 CURVE SMOOTH",
"20 106 OFFCURVE",
"32 50 OFFCURVE",
"72 6 CURVE SMOOTH",
"88 -11 OFFCURVE",
"111 -19 OFFCURVE",
"131 -33 CURVE",
"98 -51 OFFCURVE",
"79 -79 OFFCURVE",
"64 -110 CURVE SMOOTH",
"44 -151 OFFCURVE",
"35 -194 OFFCURVE",
"26 -238 CURVE SMOOTH",
"24 -249 OFFCURVE",
"23 -260 OFFCURVE",
"23 -271 CURVE SMOOTH",
"23 -364 OFFCURVE",
"103 -428 OFFCURVE",
"184 -428 CURVE SMOOTH"
);
},
{
closed = 1;
nodes = (
"149 73 OFFCURVE",
"116 81 OFFCURVE",
"86 103 CURVE SMOOTH",
"73 113 OFFCURVE",
"67 123 OFFCURVE",
"67 136 CURVE SMOOTH",
"67 140 OFFCURVE",
"67 145 OFFCURVE",
"69 151 CURVE SMOOTH",
"83 195 OFFCURVE",
"105 234 OFFCURVE",
"137 267 CURVE SMOOTH",
"168 298 OFFCURVE",
"206 313 OFFCURVE",
"243 313 CURVE SMOOTH",
"286 313 OFFCURVE",
"328 293 OFFCURVE",
"358 253 CURVE SMOOTH",
"363 246 OFFCURVE",
"368 238 OFFCURVE",
"368 230 CURVE SMOOTH",
"368 227 LINE",
"368 222 LINE",
"361 181 OFFCURVE",
"352 139 OFFCURVE",
"325 105 CURVE SMOOTH",
"316 94 OFFCURVE",
"307 87 OFFCURVE",
"291 85 CURVE SMOOTH",
"257 81 OFFCURVE",
"222 73 OFFCURVE",
"179 73 CURVE SMOOTH"
);
},
{
closed = 1;
nodes = (
"162 -303 OFFCURVE",
"111 -249 OFFCURVE",
"110 -192 CURVE",
"110 -183 OFFCURVE",
"112 -175 OFFCURVE",
"115 -166 CURVE",
"122 -141 OFFCURVE",
"140 -124 OFFCURVE",
"160 -109 CURVE SMOOTH",
"190 -87 OFFCURVE",
"222 -68 OFFCURVE",
"255 -50 CURVE SMOOTH",
"275 -39 OFFCURVE",
"294 -34 OFFCURVE",
"311 -34 CURVE SMOOTH",
"341 -34 OFFCURVE",
"367 -50 OFFCURVE",
"390 -82 CURVE SMOOTH",
"410 -109 OFFCURVE",
"424 -138 OFFCURVE",
"424 -174 CURVE SMOOTH",
"424 -200 OFFCURVE",
"413 -221 OFFCURVE",
"395 -237 CURVE SMOOTH",
"347 -279 OFFCURVE",
"289 -300 OFFCURVE",
"228 -304 CURVE"
);
}
);
width = 524;
}
);
note = uniE088;
unicode = E088;
},
{
glyphname = uniE089;
lastChange = "2019-03-27 17:25:12 +0000";
layers = (
{
hints = (
{
horizontal = 1;
place = "{-421, 110}";
type = Stem;
},
{
horizontal = 1;
place = "{-37, 109}";
type = Stem;
},
{
horizontal = 1;
place = "{312, 109}";
type = Stem;
},
{
place = "{39, 49}";
type = Stem;
},
{
place = "{453, 41}";
type = Stem;
},
{
place = "{20, 46}";
type = Stem;
}
);
layerId = "02376AAC-77FF-49DA-9399-294AF7A35492";
paths = (
{
closed = 1;
nodes = (
"191 -421 OFFCURVE",
"221 -412 OFFCURVE",
"251 -392 CURVE SMOOTH",
"338 -335 OFFCURVE",
"393 -254 OFFCURVE",
"430 -159 CURVE SMOOTH",
"461 -79 OFFCURVE",
"482 3 OFFCURVE",
"490 88 CURVE SMOOTH",
"492 113 OFFCURVE",
"494 137 OFFCURVE",
"494 162 CURVE SMOOTH",
"494 188 OFFCURVE",
"492 214 OFFCURVE",
"486 240 CURVE SMOOTH",
"457 359 OFFCURVE",
"368 421 OFFCURVE",
"270 421 CURVE SMOOTH",
"261 421 OFFCURVE",
"253 421 OFFCURVE",
"244 420 CURVE SMOOTH",
"119 407 OFFCURVE",
"39 306 OFFCURVE",
"39 189 CURVE SMOOTH",
"39 150 OFFCURVE",
"48 108 OFFCURVE",
"67 68 CURVE SMOOTH",
"100 -2 OFFCURVE",
"165 -37 OFFCURVE",
"232 -37 CURVE SMOOTH",
"283 -37 OFFCURVE",
"336 -17 OFFCURVE",
"378 25 CURVE SMOOTH",
"407 54 OFFCURVE",
"432 86 OFFCURVE",
"453 122 CURVE",
"448 98 OFFCURVE",
"444 73 OFFCURVE",
"438 49 CURVE SMOOTH",
"416 -44 OFFCURVE",
"390 -136 OFFCURVE",
"324 -210 CURVE SMOOTH",
"286 -253 OFFCURVE",
"246 -293 OFFCURVE",
"188 -307 CURVE SMOOTH",
"177 -310 OFFCURVE",
"166 -311 OFFCURVE",
"156 -311 CURVE SMOOTH",
"103 -311 OFFCURVE",
"68 -274 OFFCURVE",
"66 -212 CURVE",
"66 -200 OFFCURVE",
"65 -188 OFFCURVE",
"62 -177 CURVE",
"60 -171 OFFCURVE",
"59 -162 OFFCURVE",
"51 -162 CURVE SMOOTH",
"45 -162 OFFCURVE",
"39 -166 OFFCURVE",
"36 -172 CURVE",
"29 -188 OFFCURVE",
"21 -202 OFFCURVE",
"20 -220 CURVE",
"20 -251 OFFCURVE",
"28 -281 OFFCURVE",
"34 -311 CURVE SMOOTH",
"48 -376 OFFCURVE",
"100 -421 OFFCURVE",
"163 -421 CURVE SMOOTH"
);
},
{
closed = 1;
nodes = (
"183 75 OFFCURVE",
"135 98 OFFCURVE",
"100 145 CURVE SMOOTH",
"92 156 OFFCURVE",
"88 167 OFFCURVE",
"88 179 CURVE SMOOTH",
"88 188 OFFCURVE",
"90 197 OFFCURVE",
"95 206 CURVE",
"128 275 OFFCURVE",
"187 312 OFFCURVE",
"254 312 CURVE SMOOTH",
"288 312 OFFCURVE",
"324 303 OFFCURVE",
"359 283 CURVE SMOOTH",
"379 272 OFFCURVE",
"397 258 OFFCURVE",
"413 242 CURVE SMOOTH",
"422 233 OFFCURVE",
"428 223 OFFCURVE",
"428 212 CURVE SMOOTH",
"428 207 OFFCURVE",
"426 201 OFFCURVE",
"423 195 CURVE SMOOTH",
"387 128 OFFCURVE",
"331 72 OFFCURVE",
"236 72 CURVE"
);
}
);
width = 514;
}
);
note = uniE089;
unicode = E089;
},
{
glyphname = uniE4CE;
lastChange = "2020-02-19 17:08:24 +0000";
layers = (
{
hints = (
{
horizontal = 1;
place = "{0, 275}";
type = Stem;
},
{
place = "{83, 65}";
type = Stem;
}
);
layerId = "02376AAC-77FF-49DA-9399-294AF7A35492";
paths = (
{
closed = 1;
nodes = (
"108 14 OFFCURVE",
"121 33 OFFCURVE",
"130 54 CURVE SMOOTH",
"143 84 OFFCURVE",
"148 114 OFFCURVE",
"148 145 CURVE SMOOTH",
"148 165 OFFCURVE",
"146 184 OFFCURVE",
"143 204 CURVE SMOOTH",
"139 234 OFFCURVE",
"119 255 OFFCURVE",
"97 271 CURVE SMOOTH",
"93 274 OFFCURVE",
"89 275 OFFCURVE",
"85 275 CURVE SMOOTH",
"73 275 OFFCURVE",
"59 267 OFFCURVE",
"47 265 CURVE",
"42 265 OFFCURVE",
"37 265 OFFCURVE",
"32 263 CURVE SMOOTH",
"8 256 OFFCURVE",
"0 248 OFFCURVE",
"0 228 CURVE SMOOTH",
"0 224 OFFCURVE",
"1 220 OFFCURVE",
"1 216 CURVE SMOOTH",
"3 191 OFFCURVE",
"15 169 OFFCURVE",
"21 146 CURVE SMOOTH",
"27 124 OFFCURVE",
"32 116 OFFCURVE",
"46 116 CURVE SMOOTH",
"51 116 OFFCURVE",
"57 117 OFFCURVE",
"65 119 CURVE SMOOTH",
"76 121 OFFCURVE",
"86 125 OFFCURVE",
"99 125 CURVE SMOOTH",
"103 125 OFFCURVE",
"107 125 OFFCURVE",
"111 124 CURVE",
"86 101 OFFCURVE",
"83 74 OFFCURVE",
"83 46 CURVE SMOOTH",
"83 31 OFFCURVE",
"84 16 OFFCURVE",
"83 0 CURVE"
);
}
);
width = 148;
}
);
note = uniE4CE;
unicode = E4CE;
},
{
glyphname = uniE4EE;
lastChange = "2021-03-27 19:36:13 +0000";
layers = (
{
hints = (
{
horizontal = 1;
place = "{-120, 212}";
type = Stem;
},
{
place = "{0, 39}";
type = Stem;
},
{
place = "{725, 43}";
type = Stem;
},
{
place = "{3, 40}";
type = Stem;
}
);
layerId = "02376AAC-77FF-49DA-9399-294AF7A35492";
paths = (
{
closed = 1;
nodes = (
"22 -265 OFFCURVE",
"28 -249 OFFCURVE",
"33 -238 CURVE SMOOTH",
"34 -235 OFFCURVE",
"33 -232 OFFCURVE",
"34 -229 CURVE SMOOTH",
"38 -212 OFFCURVE",
"39 -195 OFFCURVE",
"39 -178 CURVE SMOOTH",
"39 -166 OFFCURVE",
"39 -154 OFFCURVE",
"38 -143 CURVE SMOOTH",
"37 -120 OFFCURVE",
"45 -117 OFFCURVE",
"65 -118 CURVE SMOOTH",
"129 -120 OFFCURVE",
"194 -120 OFFCURVE",
"259 -120 CURVE SMOOTH",
"534 -120 LINE SMOOTH",
"555 -121 OFFCURVE",
"576 -121 OFFCURVE",
"597 -121 CURVE SMOOTH",
"639 -121 OFFCURVE",
"682 -120 OFFCURVE",
"726 -115 CURVE",
"725 -125 OFFCURVE",
"725 -135 OFFCURVE",
"725 -145 CURVE SMOOTH",
"725 -174 OFFCURVE",
"728 -202 OFFCURVE",
"733 -229 CURVE SMOOTH",
"734 -234 OFFCURVE",
"733 -244 OFFCURVE",
"741 -244 CURVE SMOOTH",
"747 -245 OFFCURVE",
"752 -238 OFFCURVE",
"754 -232 CURVE SMOOTH",
"757 -222 OFFCURVE",
"761 -212 OFFCURVE",
"763 -202 CURVE SMOOTH",
"765 -179 OFFCURVE",
"767 -155 OFFCURVE",
"768 -131 CURVE SMOOTH",
"768 -19 OFFCURVE",
"770 93 OFFCURVE",
"777 204 CURVE SMOOTH",
"777 211 OFFCURVE",
"778 219 OFFCURVE",
"778 226 CURVE SMOOTH",
"778 234 OFFCURVE",
"777 242 OFFCURVE",
"773 249 CURVE SMOOTH",
"769 255 OFFCURVE",
"771 265 OFFCURVE",
"763 265 CURVE SMOOTH",
"762 265 LINE SMOOTH",
"753 264 OFFCURVE",
"743 259 OFFCURVE",
"742 247 CURVE SMOOTH",
"739 229 OFFCURVE",
"734 212 OFFCURVE",
"734 193 CURVE SMOOTH",
"735 164 OFFCURVE",
"734 134 OFFCURVE",
"733 104 CURVE SMOOTH",
"733 93 OFFCURVE",
"731 85 OFFCURVE",
"718 85 CURVE SMOOTH",
"714 85 LINE SMOOTH",
"692 88 OFFCURVE",
"669 88 OFFCURVE",
"647 88 CURVE SMOOTH",
"605 88 OFFCURVE",
"564 86 OFFCURVE",
"522 87 CURVE SMOOTH",
"437 90 OFFCURVE",
"352 92 OFFCURVE",
"267 92 CURVE SMOOTH",
"209 92 OFFCURVE",
"152 91 OFFCURVE",
"94 90 CURVE SMOOTH",
"82 89 OFFCURVE",
"68 83 OFFCURVE",
"58 83 CURVE SMOOTH",
"53 83 OFFCURVE",
"50 84 OFFCURVE",
"47 87 CURVE SMOOTH",
"43 92 OFFCURVE",
"42 98 OFFCURVE",
"42 106 CURVE SMOOTH",
"42 114 OFFCURVE",
"43 123 OFFCURVE",
"43 130 CURVE SMOOTH",
"43 132 OFFCURVE",
"43 134 OFFCURVE",
"43 136 CURVE SMOOTH",
"43 152 OFFCURVE",
"44 167 OFFCURVE",
"44 182 CURVE SMOOTH",
"44 201 OFFCURVE",
"43 219 OFFCURVE",
"36 238 CURVE",
"35 243 OFFCURVE",
"36 251 OFFCURVE",
"29 251 CURVE",
"29 251 OFFCURVE",
"28 251 OFFCURVE",
"27 252 CURVE",
"19 250 OFFCURVE",
"10 249 OFFCURVE",
"8 239 CURVE SMOOTH",
"5 218 LINE SMOOTH",
"4 205 OFFCURVE",
"3 193 OFFCURVE",
"3 180 CURVE SMOOTH",
"3 151 OFFCURVE",
"5 122 OFFCURVE",
"4 93 CURVE SMOOTH",
"1 26 OFFCURVE",
"0 -41 OFFCURVE",
"0 -108 CURVE SMOOTH",
"0 -153 OFFCURVE",
"1 -199 OFFCURVE",
"1 -244 CURVE SMOOTH",
"1 -253 OFFCURVE",
"2 -262 OFFCURVE",
"11 -263 CURVE SMOOTH"
);
}
);
width = 778;
}
);
note = uniE4EE;
unicode = E4EE;
},
{
glyphname = uniE562;
lastChange = "2021-04-07 18:31:02 +0000";
layers = (
{
hints = (
{
horizontal = 1;
place = "{-80, 586}";
type = Stem;
},
{
place = "{159, 21}";
type = Stem;
},
{
place = "{262, 25}";
type = Stem;
},
{
place = "{154, 11}";
type = Stem;
}
);
layerId = "02376AAC-77FF-49DA-9399-294AF7A35492";
paths = (
{
closed = 1;
nodes = (
"98 -81 OFFCURVE",
"135 -61 OFFCURVE",
"163 -33 CURVE SMOOTH",
"174 -22 OFFCURVE",
"180 -9 OFFCURVE",
"182 4 CURVE",
"184 10 OFFCURVE",
"184 16 OFFCURVE",
"184 22 CURVE SMOOTH",
"186 63 OFFCURVE",
"180 104 OFFCURVE",
"180 144 CURVE SMOOTH",
"180 231 OFFCURVE",
"174 318 OFFCURVE",
"174 405 CURVE SMOOTH",
"174 410 LINE",
"188 378 OFFCURVE",
"207 349 OFFCURVE",
"228 322 CURVE SMOOTH",
"252 291 OFFCURVE",
"262 257 OFFCURVE",
"262 221 CURVE SMOOTH",
"262 209 OFFCURVE",
"261 198 OFFCURVE",
"259 186 CURVE SMOOTH",
"256 169 OFFCURVE",
"251 151 OFFCURVE",
"251 134 CURVE SMOOTH",
"251 123 OFFCURVE",
"253 113 OFFCURVE",
"257 102 CURVE",
"259 103 OFFCURVE",
"261 103 OFFCURVE",
"262 105 CURVE",
"264 107 OFFCURVE",
"265 110 OFFCURVE",
"266 113 CURVE SMOOTH",
"281 148 OFFCURVE",
"287 184 OFFCURVE",
"287 220 CURVE SMOOTH",
"287 247 OFFCURVE",
"284 273 OFFCURVE",
"279 300 CURVE SMOOTH",
"265 376 OFFCURVE",
"202 425 OFFCURVE",
"172 493 CURVE",
"167 499 LINE SMOOTH",
"166 500 OFFCURVE",
"165 500 OFFCURVE",
"165 501 CURVE",
"154 506 LINE",
"159 357 OFFCURVE",
"158 211 OFFCURVE",
"164 62 CURVE",
"155 71 OFFCURVE",
"145 79 OFFCURVE",
"133 83 CURVE SMOOTH",
"122 87 OFFCURVE",
"111 88 OFFCURVE",
"100 88 CURVE SMOOTH",
"71 88 OFFCURVE",
"46 76 OFFCURVE",
"22 52 CURVE SMOOTH",
"6 36 OFFCURVE",
"0 19 OFFCURVE",
"0 1 CURVE SMOOTH",
"0 -11 OFFCURVE",
"3 -24 OFFCURVE",
"7 -37 CURVE SMOOTH",
"18 -73 OFFCURVE",
"27 -79 OFFCURVE",
"60 -80 CURVE SMOOTH"
);
}
);
width = 287;
}
);
note = uniE562;
unicode = E562;
},
{
glyphname = uniE563;
lastChange = "2021-04-07 18:31:02 +0000";
layers = (
{
hints = (
{
horizontal = 1;
place = "{-512, 590}";
type = Stem;
},
{
place = "{0, 29}";
type = Stem;
},
{
place = "{121, 29}";
type = Stem;
}
);
layerId = "02376AAC-77FF-49DA-9399-294AF7A35492";
paths = (
{
closed = 1;
nodes = (
"18 -502 OFFCURVE",
"21 -497 OFFCURVE",
"23 -494 CURVE SMOOTH",
"30 -479 OFFCURVE",
"39 -465 OFFCURVE",
"50 -453 CURVE SMOOTH",
"89 -411 OFFCURVE",
"121 -364 OFFCURVE",
"138 -307 CURVE SMOOTH",
"146 -281 OFFCURVE",
"150 -255 OFFCURVE",
"150 -229 CURVE SMOOTH",
"150 -204 OFFCURVE",
"146 -180 OFFCURVE",
"137 -155 CURVE SMOOTH",
"134 -149 OFFCURVE",
"131 -141 OFFCURVE",
"124 -141 CURVE SMOOTH",
"123 -141 LINE SMOOTH",
"118 -142 OFFCURVE",
"117 -146 OFFCURVE",
"117 -151 CURVE SMOOTH",
"117 -160 LINE SMOOTH",
"115 -175 OFFCURVE",
"121 -190 OFFCURVE",
"121 -206 CURVE SMOOTH",
"121 -210 OFFCURVE",
"121 -214 OFFCURVE",
"120 -218 CURVE SMOOTH",
"107 -271 OFFCURVE",
"83 -316 OFFCURVE",
"51 -359 CURVE SMOOTH",
"42 -371 OFFCURVE",
"33 -384 OFFCURVE",
"25 -397 CURVE",
"25 -373 OFFCURVE",
"25 -349 OFFCURVE",
"27 -326 CURVE SMOOTH",
"29 -287 OFFCURVE",
"29 -249 OFFCURVE",
"29 -210 CURVE SMOOTH",
"29 -164 OFFCURVE",
"29 -117 OFFCURVE",
"28 -71 CURVE",
"30 -72 OFFCURVE",
"31 -74 OFFCURVE",
"32 -75 CURVE SMOOTH",
"45 -86 OFFCURVE",
"59 -89 OFFCURVE",
"74 -89 CURVE SMOOTH",
"85 -89 OFFCURVE",
"96 -87 OFFCURVE",
"107 -86 CURVE SMOOTH",
"154 -80 OFFCURVE",
"197 -48 OFFCURVE",
"203 -10 CURVE SMOOTH",
"205 -1 OFFCURVE",
"205 8 OFFCURVE",
"205 17 CURVE SMOOTH",
"205 53 OFFCURVE",
"190 83 OFFCURVE",
"146 78 CURVE SMOOTH",
"95 75 OFFCURVE",
"50 64 OFFCURVE",
"20 20 CURVE SMOOTH",
"15 11 LINE",
"13 6 LINE SMOOTH",
"3 -18 OFFCURVE",
"1 -63 OFFCURVE",
"1 -97 CURVE SMOOTH",
"1 -156 OFFCURVE",
"0 -216 OFFCURVE",
"0 -276 CURVE SMOOTH",
"0 -454 LINE SMOOTH",
"0 -474 OFFCURVE",
"7 -492 OFFCURVE",
"13 -512 CURVE"
);
}
);
width = 205;
}
);
note = uniE563;
unicode = E563;
},
{
glyphname = uniF0B6;
lastChange = "2021-04-07 18:31:02 +0000";
layers = (
{
layerId = "02376AAC-77FF-49DA-9399-294AF7A35492";
paths = (
{
closed = 1;
nodes = (
"193 -657 OFFCURVE",
"12 -704 OFFCURVE",
"13 -704 CURVE",
"14 -704 OFFCURVE",
"18 -806 OFFCURVE",
"18 -807 CURVE",
"18 -810 OFFCURVE",
"398 -706 OFFCURVE",
"375 -698 CURVE",
"374 -697 LINE",
"370 -697 OFFCURVE",
"385 -639 OFFCURVE",
"382 -618 CURVE",
"370 -92 LINE",
"370 2 OFFCURVE",
"267 130 OFFCURVE",
"149 130 CURVE",
"63 130 OFFCURVE",
"37 110 OFFCURVE",
"37 51 CURVE",
"37 -39 OFFCURVE",
"175 -139 OFFCURVE",
"300 -139 CURVE",
"301 -295 LINE",
"5 -347 LINE",
"-1 -448 LINE",
"301 -413 LINE",
"301 -466 LINE",
"287 -466 LINE",
"180 -493 OFFCURVE",
"-1 -540 OFFCURVE",
"0 -540 CURVE",
"1 -540 OFFCURVE",
"4 -641 OFFCURVE",
"4 -642 CURVE",
"4 -647 OFFCURVE",
"300 -565 OFFCURVE",
"301 -555 CURVE",
"301 -555 LINE",
"301 -631 LINE"
);
},
{
closed = 1;
nodes = (
"302 -631 OFFCURVE",
"298 -632 OFFCURVE",
"301 -631 CURVE"
);
}
);
width = 411;
}
);
unicode = F0B6;
},
{
glyphname = uniE1F6;
lastChange = "2021-04-07 18:31:02 +0000";
layers = (
{
layerId = "02376AAC-77FF-49DA-9399-294AF7A35492";
paths = (
{
closed = 1;
nodes = (
"321 666 OFFCURVE",
"326 665 OFFCURVE",
"324 665 CURVE"
);
},
{
closed = 1;
nodes = (
"324 584 LINE",
"323 594 OFFCURVE",
"5 682 OFFCURVE",
"5 678 CURVE",
"5 676 OFFCURVE",
"1 568 OFFCURVE",
"0 568 CURVE",
"-1 568 OFFCURVE",
"194 517 OFFCURVE",
"309 489 CURVE",
"324 489 LINE",
"324 405 LINE",
"1 475 LINE",
"1 364 LINE",
"324 303 LINE",
"323 136 LINE",
"189 136 OFFCURVE",
"41 30 OFFCURVE",
"41 -67 CURVE",
"41 -132 OFFCURVE",
"69 -153 OFFCURVE",
"161 -153 CURVE",
"287 -153 OFFCURVE",
"398 -14 OFFCURVE",
"398 87 CURVE",
"411 652 LINE",
"415 674 OFFCURVE",
"410 737 OFFCURVE",
"415 737 CURVE",
"404 738 LINE",
"428 746 OFFCURVE",
"19 858 OFFCURVE",
"19 854 CURVE",
"19 853 OFFCURVE",
"15 744 OFFCURVE",
"14 744 CURVE",
"13 744 OFFCURVE",
"208 693 OFFCURVE",
"324 665 CURVE",
"324 584 LINE"
);
}
);
width = 415;
}
);
unicode = E1F6;
},
{
glyphname = uniF0B7;
lastChange = "2021-04-07 18:31:02 +0000";
layers = (
{
layerId = "02376AAC-77FF-49DA-9399-294AF7A35492";
paths = (
{
closed = 1;
nodes = (
"385 -465 OFFCURVE",
"732 -568 OFFCURVE",
"734 -568 CURVE",
"734 -568 OFFCURVE",
"738 -666 OFFCURVE",
"738 -667 CURVE",
"738 -670 OFFCURVE",
"402 -560 OFFCURVE",
"379 -551 CURVE",
"375 -550 LINE",
"377 -629 LINE",
"382 -614 OFFCURVE",
"660 -728 OFFCURVE",
"727 -728 CURVE",
"728 -728 OFFCURVE",
"733 -824 OFFCURVE",
"733 -828 CURVE",
"733 -830 OFFCURVE",
"396 -718 OFFCURVE",
"373 -711 CURVE",
"371 -711 LINE",
"366 -711 OFFCURVE",
"296 -672 OFFCURVE",
"296 -666 CURVE",
"296 -645 OFFCURVE",
"291 -175 OFFCURVE",
"289 -175 CURVE",
"152 -175 OFFCURVE",
"0 -81 OFFCURVE",
"0 7 CURVE",
"0 65 OFFCURVE",
"28 82 OFFCURVE",
"123 82 CURVE",
"252 82 OFFCURVE",
"366 -40 OFFCURVE",
"366 -131 CURVE",
"372 -354 LINE",
"742 -409 LINE",
"745 -497 LINE",
"373 -437 LINE",
"374 -470 LINE",
"383 -470 LINE"
);
}
);
width = 745;
}
);
unicode = F0B7;
},
{
glyphname = uniF0B8;
lastChange = "2021-04-07 18:31:02 +0000";
layers = (
{
layerId = "02376AAC-77FF-49DA-9399-294AF7A35492";
paths = (
{
closed = 1;
nodes = (
"385 480 OFFCURVE",
"732 599 OFFCURVE",
"734 599 CURVE",
"734 599 OFFCURVE",
"738 711 OFFCURVE",
"738 712 CURVE",
"738 716 OFFCURVE",
"402 589 OFFCURVE",
"379 579 CURVE",
"375 578 LINE",
"377 669 LINE",
"382 651 OFFCURVE",
"660 782 OFFCURVE",
"727 782 CURVE",
"728 782 OFFCURVE",
"733 894 OFFCURVE",
"733 897 CURVE",
"733 899 OFFCURVE",
"396 771 OFFCURVE",
"373 763 CURVE",
"371 762 LINE",
"366 762 OFFCURVE",
"296 718 OFFCURVE",
"296 711 CURVE",
"296 688 OFFCURVE",
"291 146 OFFCURVE",
"289 146 CURVE",
"152 146 OFFCURVE",
"0 37 OFFCURVE",
"0 -63 CURVE",
"0 -130 OFFCURVE",
"28 -150 OFFCURVE",
"123 -150 CURVE",
"252 -150 OFFCURVE",
"366 -10 OFFCURVE",
"366 95 CURVE",
"372 352 LINE",
"742 416 LINE",
"745 517 LINE",
"373 447 LINE",
"374 486 LINE",
"383 486 LINE"
);
}
);
width = 745;
}
);
unicode = F0B8;
},
{
glyphname = uniF0B9;
lastChange = "2021-04-07 18:31:02 +0000";
layers = (
{
layerId = "02376AAC-77FF-49DA-9399-294AF7A35492";
paths = (
{
closed = 1;
nodes = (
"278 -438 OFFCURVE",
"277 -419 OFFCURVE",
"277 -403 CURVE SMOOTH",
"277 -398 OFFCURVE",
"47 -369 OFFCURVE",
"47 -365 CURVE SMOOTH",
"47 -352 OFFCURVE",
"35 -322 OFFCURVE",
"35 -310 CURVE SMOOTH",
"35 -307 OFFCURVE",
"277 -348 OFFCURVE",
"277 -344 CURVE SMOOTH",
"277 -248 OFFCURVE",
"274 -176 OFFCURVE",
"273 -176 CURVE",
"144 -176 OFFCURVE",
"0 -81 OFFCURVE",
"0 6 CURVE",
"0 64 OFFCURVE",
"26 81 OFFCURVE",
"116 81 CURVE",
"238 81 OFFCURVE",
"346 -41 OFFCURVE",
"346 -130 CURVE",
"351 -355 LINE",
"641 -375 LINE",
"634 -455 LINE",
"352 -411 LINE",
"353 -469 LINE",
"362 -469 LINE",
"363 -463 OFFCURVE",
"621 -545 OFFCURVE",
"622 -545 CURVE",
"623 -545 OFFCURVE",
"625 -630 OFFCURVE",
"625 -631 CURVE",
"625 -634 OFFCURVE",
"380 -557 OFFCURVE",
"358 -549 CURVE",
"354 -548 LINE",
"356 -626 LINE",
"361 -611 OFFCURVE",
"572 -703 OFFCURVE",
"635 -703 CURVE",
"636 -703 OFFCURVE",
"641 -800 OFFCURVE",
"641 -802 CURVE",
"641 -805 OFFCURVE",
"64 -629 OFFCURVE",
"42 -622 CURVE",
"42 -549 LINE",
"267 -606 LINE",
"269 -535 LINE",
"74 -488 LINE",
"35 -402 LINE",
"278 -455 LINE"
);
}
);
width = 641;
}
);
unicode = F0B9;
},
{
glyphname = uniF0C0;
lastChange = "2021-04-07 18:31:02 +0000";
layers = (
{
layerId = "02376AAC-77FF-49DA-9399-294AF7A35492";
paths = (
{
closed = 1;
nodes = (
"278 414 OFFCURVE",
"278 394 OFFCURVE",
"277 376 CURVE SMOOTH",
"277 371 OFFCURVE",
"47 340 OFFCURVE",
"47 335 CURVE SMOOTH",
"47 321 OFFCURVE",
"35 288 OFFCURVE",
"35 275 CURVE SMOOTH",
"35 272 OFFCURVE",
"277 316 OFFCURVE",
"277 312 CURVE SMOOTH",
"276 207 OFFCURVE",
"274 128 OFFCURVE",
"273 128 CURVE",
"144 128 OFFCURVE",
"0 25 OFFCURVE",
"0 -70 CURVE",
"0 -133 OFFCURVE",
"26 -152 OFFCURVE",
"116 -152 CURVE",
"238 -152 OFFCURVE",
"346 -19 OFFCURVE",
"346 79 CURVE",
"351 324 LINE",
"641 346 LINE",
"634 433 LINE",
"352 385 LINE",
"353 448 LINE",
"362 448 LINE",
"363 442 OFFCURVE",
"621 531 OFFCURVE",
"622 531 CURVE",
"623 531 OFFCURVE",
"625 624 OFFCURVE",
"625 626 CURVE",
"625 629 OFFCURVE",
"380 545 OFFCURVE",
"358 536 CURVE",
"354 535 LINE",
"356 620 LINE",
"361 604 OFFCURVE",
"572 704 OFFCURVE",
"635 704 CURVE",
"636 704 OFFCURVE",
"641 810 OFFCURVE",
"641 812 CURVE",
"641 815 OFFCURVE",
"64 623 OFFCURVE",
"42 615 CURVE",
"42 536 LINE",
"267 598 LINE",
"269 520 LINE",
"74 469 LINE",
"35 375 LINE",
"278 433 LINE"
);
}
